<svg xmlns="http://www.w3.org/2000/svg" width="203" height="72" fill="none"><path fill="#fff" d="M186.866 43.619a8.432 8.432 0 0 1-.618 3.274 8.514 8.514 0 0 1-1.842 2.79 8.618 8.618 0 0 1-2.785 1.88 8.723 8.723 0 0 1-3.303.682H24.47a8.792 8.792 0 0 1-6.005-2.617A8.568 8.568 0 0 1 16 43.623a8.57 8.57 0 0 1 2.465-6.005A8.792 8.792 0 0 1 24.47 35h153.873a8.731 8.731 0 0 1 3.295.687 8.634 8.634 0 0 1 2.777 1.879 8.517 8.517 0 0 1 1.836 2.786 8.43 8.43 0 0 1 .615 3.267Z"/><path stroke="#49EDCA" d="M.5 16.5h202v55H.5z"/><path fill="#49EDCA" d="M0 0h45v17H0z"/><path fill="#000" d="M11.45 6.695c.067 0 .137.003.21.008.073.003.142.01.207.02.068.007.13.018.184.03a.834.834 0 0 1 .14.044l-.097.707a3.497 3.497 0 0 0-.403-.066 3.183 3.183 0 0 0-.394-.024c-.339 0-.613.077-.824.23a1.335 1.335 0 0 0-.461.645V11h-.727V6.773h.688l.035.672c.172-.231.377-.414.617-.547a1.66 1.66 0 0 1 .824-.203Zm4.737 3.723c-.141.208-.317.371-.528.488-.21.115-.454.172-.73.172-.222 0-.422-.034-.602-.101a1.171 1.171 0 0 1-.46-.325 1.52 1.52 0 0 1-.298-.554 2.86 2.86 0 0 1-.101-.813V6.773h.723v2.52c0 .23.018.42.054.57a.921.921 0 0 0 .164.364.594.594 0 0 0 .266.187c.107.037.229.055.367.055.294 0 .531-.06.711-.18.182-.12.318-.281.406-.484V6.773h.727V11h-.656l-.043-.582Zm2.67-3.645.051.625c.154-.218.343-.389.567-.511.224-.125.474-.19.75-.192.221 0 .422.032.601.094.183.063.337.16.465.293.128.133.225.302.293.508.07.203.105.445.105.726V11h-.722V8.332c0-.187-.021-.346-.063-.477a.71.71 0 0 0-.488-.492 1.37 1.37 0 0 0-.406-.054c-.242 0-.456.06-.64.183a1.33 1.33 0 0 0-.438.477V11h-.723V6.773h.649Zm4.757 2.696.086.605.106-.605.676-2.696h.464l.672 2.696.114.664.105-.664.469-2.696h.64L26.048 11h-.57l-.66-2.59-.11-.656-.105.656L23.95 11h-.57l-.898-4.227h.64l.492 2.696ZM30.516 11a.835.835 0 0 1-.07-.203 2.65 2.65 0 0 1-.036-.258 1.945 1.945 0 0 1-.543.379 1.713 1.713 0 0 1-.734.16c-.224 0-.427-.032-.61-.098a1.47 1.47 0 0 1-.46-.261 1.21 1.21 0 0 1-.293-.395 1.216 1.216 0 0 1-.102-.496c0-.232.046-.435.137-.61a1.21 1.21 0 0 1 .394-.433c.17-.117.373-.204.61-.262.24-.057.506-.085.8-.085h.79v-.333a.81.81 0 0 0-.07-.343.717.717 0 0 0-.2-.258.895.895 0 0 0-.316-.168 1.36 1.36 0 0 0-.414-.059c-.144 0-.273.019-.387.055a.946.946 0 0 0-.285.145.658.658 0 0 0-.184.214.547.547 0 0 0-.062.254h-.727c.003-.153.042-.304.117-.453.078-.148.19-.281.332-.398.146-.12.322-.216.528-.29.208-.072.444-.109.707-.109.24 0 .462.03.668.09.205.057.382.146.53.266.152.117.27.264.356.441.086.177.13.384.13.621v1.965c0 .14.012.29.038.45.026.156.063.292.11.41V11h-.754Zm-1.278-.55a1.375 1.375 0 0 0 .727-.2c.102-.06.189-.128.262-.203.073-.078.13-.159.172-.242v-.856h-.672c-.422 0-.75.063-.985.188a.624.624 0 0 0-.351.59c0 .104.017.2.05.289a.644.644 0 0 0 .426.379c.107.036.23.054.371.054Zm4.82-.95.187.512 1.29-3.239h.808l-2.145 4.88c-.049.109-.113.225-.191.347a1.702 1.702 0 0 1-.277.34c-.11.104-.237.191-.383.262a1.147 1.147 0 0 1-.617.097 1.026 1.026 0 0 1-.125-.015 1.376 1.376 0 0 1-.207-.04l.117-.59a15.422 15.422 0 0 0 .172.012c.034.003.066.004.097.004a.945.945 0 0 0 .075.004.47.47 0 0 0 .27-.082.98.98 0 0 0 .218-.195 1.36 1.36 0 0 0 .164-.235c.047-.08.083-.147.11-.199l.288-.562-1.82-4.028h.809l1.16 2.727Z"/></svg>