<svg xmlns="http://www.w3.org/2000/svg" width="112" height="236" fill="none"><rect width="111" height="159" x=".5" y=".5" fill="#191919" stroke="#333" rx="7.5"/><path fill="#fff" d="M16.438 17.523c0 .336-.043.66-.13.97-.085.306-.214.579-.386.816-.17.234-.383.421-.64.562a1.86 1.86 0 0 1-.9.207c-.34 0-.637-.07-.89-.21a1.927 1.927 0 0 1-.633-.563 2.642 2.642 0 0 1-.379-.817 3.668 3.668 0 0 1-.125-.965v-.726c0-.224.019-.443.055-.656.04-.214.095-.414.168-.602.076-.19.168-.364.277-.523.112-.162.243-.3.391-.414a1.822 1.822 0 0 1 1.133-.368 1.833 1.833 0 0 1 1.543.778c.172.234.3.506.387.816.085.31.128.633.128.969v.726Zm-.942-.734a4.016 4.016 0 0 0-.059-.637 1.907 1.907 0 0 0-.183-.562c-.086-.167-.2-.3-.344-.402a.869.869 0 0 0-.531-.157.861.861 0 0 0-.527.156 1.1 1.1 0 0 0-.332.403c-.081.167-.138.355-.172.566-.032.209-.049.42-.051.633v.734c.002.214.02.426.055.637.033.209.09.397.171.567.084.166.194.302.332.406.141.104.317.156.528.156.213 0 .39-.052.531-.156.143-.104.258-.24.344-.406.086-.167.146-.356.18-.567.036-.21.055-.423.058-.637v-.734Zm5.613 1.14c0 .308-.036.593-.109.856a2.1 2.1 0 0 1-.32.684c-.14.19-.314.34-.52.449a1.49 1.49 0 0 1-.703.16c-.24 0-.452-.039-.637-.117a1.352 1.352 0 0 1-.472-.336v2h-.934v-5.852h.86l.038.426c.136-.161.296-.285.481-.37.188-.09.405-.134.652-.134.268 0 .506.052.711.157.209.104.383.25.524.441.14.188.247.414.32.68.073.263.11.554.11.875v.082Zm-.933-.081c0-.19-.02-.369-.059-.535a1.379 1.379 0 0 0-.18-.442.896.896 0 0 0-.308-.3.869.869 0 0 0-.445-.11.924.924 0 0 0-.516.133.938.938 0 0 0-.32.355v1.89a.99.99 0 0 0 .316.356c.135.091.311.137.527.137a.845.845 0 0 0 .75-.418c.081-.128.14-.276.176-.445.04-.17.059-.35.059-.54v-.081ZM24.91 20a.933.933 0 0 1-.066-.184 3.843 3.843 0 0 1-.043-.226 1.523 1.523 0 0 1-.496.344 1.692 1.692 0 0 1-.696.144 1.87 1.87 0 0 1-.609-.094 1.476 1.476 0 0 1-.465-.265 1.187 1.187 0 0 1-.402-.902c0-.454.168-.8.504-1.04.338-.24.823-.359 1.453-.359h.683v-.277a.665.665 0 0 0-.226-.532c-.151-.132-.365-.199-.64-.199a1.04 1.04 0 0 0-.329.047.665.665 0 0 0-.234.121.503.503 0 0 0-.14.184.553.553 0 0 0-.048.226h-.933c0-.164.037-.323.113-.476.078-.157.191-.295.34-.414.148-.123.33-.22.543-.293.216-.073.462-.11.738-.11.25 0 .482.032.695.094.214.06.399.151.555.274.156.12.279.27.367.453.089.18.133.39.133.632v1.883c0 .185.013.354.04.508.028.151.068.283.12.395V20h-.957Zm-1.125-.676a1.26 1.26 0 0 0 .621-.16.972.972 0 0 0 .219-.168.882.882 0 0 0 .148-.191v-.793h-.593c-.38 0-.662.06-.844.183a.596.596 0 0 0-.27.524c0 .086.015.166.043.242a.527.527 0 0 0 .13.191c.06.052.133.094.222.125.091.032.2.047.324.047Zm5.082.012a1.02 1.02 0 0 0 .621-.207.716.716 0 0 0 .196-.23.553.553 0 0 0 .07-.29h.883c.002.203-.045.395-.14.575a1.496 1.496 0 0 1-.388.464 1.91 1.91 0 0 1-.562.317 1.939 1.939 0 0 1-.672.117 2.04 2.04 0 0 1-.855-.168 1.748 1.748 0 0 1-.614-.457 2.007 2.007 0 0 1-.37-.676 2.727 2.727 0 0 1-.122-.82v-.14c0-.29.04-.563.121-.821a1.96 1.96 0 0 1 .371-.676c.164-.193.369-.345.614-.457.244-.114.528-.172.851-.172.255 0 .491.04.707.117.219.079.406.188.563.329a1.491 1.491 0 0 1 .496 1.145h-.883a.759.759 0 0 0-.063-.325.75.75 0 0 0-.183-.266.917.917 0 0 0-.645-.246.912.912 0 0 0-.488.121.897.897 0 0 0-.313.313 1.356 1.356 0 0 0-.168.437 2.67 2.67 0 0 0-.046.5v.14c0 .173.015.34.047.505.033.164.09.311.168.441a.943.943 0 0 0 .312.313c.13.078.294.117.492.117Zm3.16-3.563h2.254v3.454h1.254V20h-3.508v-.773h1.313V16.55h-1.313v-.778Zm1.235-1.093c0-.146.047-.266.14-.36.094-.096.226-.144.395-.144.172 0 .305.048.398.144a.48.48 0 0 1 .145.36.493.493 0 0 1-.145.363c-.093.094-.226.14-.398.14-.17 0-.3-.046-.395-.14a.5.5 0 0 1-.14-.363Zm5.238.07v1.023h1.598v.696H38.5v2.027c0 .159.018.29.055.395a.582.582 0 0 0 .398.383c.091.023.191.035.3.035.082 0 .165-.004.25-.012l.255-.031a3.683 3.683 0 0 0 .402-.082l.106.644a1.47 1.47 0 0 1-.246.11 2.303 2.303 0 0 1-.31.078c-.111.02-.228.036-.35.047-.12.013-.239.019-.356.019-.211 0-.405-.029-.582-.086a1.215 1.215 0 0 1-.453-.273 1.326 1.326 0 0 1-.297-.477 2.07 2.07 0 0 1-.106-.7V16.47h-1.03v-.696h1.03V14.75h.934Zm4.61 3.559.16.507 1.187-3.043h1.035l-2.14 4.868a2.828 2.828 0 0 1-.184.343c-.076.125-.17.241-.281.348-.11.107-.241.195-.395.266-.153.073-.333.109-.539.109a2.11 2.11 0 0 1-.492-.07l.133-.727h.074l.098.008c.034.003.065.004.093.004a.945.945 0 0 0 .075.004.384.384 0 0 0 .242-.082 1.134 1.134 0 0 0 .324-.387c.036-.065.063-.11.078-.133l.277-.523-1.796-4.028h1.03l1.02 2.536Z"/><rect width="66" height="4" x="12.5" y="30.5" fill="#202020" stroke="#292929" rx="2"/><path fill="#fff" d="M90.726 33.106c0 .322-.038.605-.113.852a1.711 1.711 0 0 1-.318.615 1.337 1.337 0 0 1-.51.372 1.73 1.73 0 0 1-.676.127c-.248 0-.473-.042-.673-.127a1.366 1.366 0 0 1-.513-.372 1.796 1.796 0 0 1-.325-.615 2.917 2.917 0 0 1-.113-.852v-1.189c0-.321.038-.604.113-.848.075-.246.182-.45.321-.615.142-.166.312-.292.51-.376.2-.084.425-.126.673-.126.25 0 .476.042.677.126.2.084.37.21.51.376.14.164.249.37.324.615.075.244.113.527.113.848v1.19Zm-2.42-.31 1.592-1.187c-.018-.34-.093-.59-.225-.752-.13-.164-.32-.246-.57-.246-.268 0-.467.095-.6.284-.131.19-.197.48-.197.872v1.028Zm1.6-.544-1.594 1.186c.041.652.307.977.797.977.53 0 .796-.388.796-1.165v-.998Zm2.85 2.26a.67.67 0 0 1 .037-.226.526.526 0 0 1 .3-.304.696.696 0 0 1 .258-.045c.095 0 .18.015.252.044a.52.52 0 0 1 .305.305.619.619 0 0 1 0 .447.505.505 0 0 1-.304.29.669.669 0 0 1-.253.045.696.696 0 0 1-.257-.044.51.51 0 0 1-.3-.29.64.64 0 0 1-.038-.223Zm3.319-1.98.27-2.509h2.662v.732h-1.986l-.126 1.18c.08-.046.186-.09.318-.134.132-.043.285-.065.458-.065.235 0 .444.039.629.116.187.078.344.19.472.335.127.144.225.319.293.526.069.206.103.438.103.698 0 .23-.033.446-.1.65a1.43 1.43 0 0 1-.296.525c-.133.148-.3.266-.503.352-.203.087-.442.13-.718.13-.207 0-.407-.03-.598-.088a1.627 1.627 0 0 1-.506-.267 1.441 1.441 0 0 1-.365-.441 1.472 1.472 0 0 1-.161-.612h.79c.031.246.121.434.27.564a.843.843 0 0 0 .57.192.777.777 0 0 0 .352-.076.69.69 0 0 0 .25-.208.942.942 0 0 0 .147-.325c.034-.128.051-.267.051-.417 0-.143-.02-.276-.058-.396a.836.836 0 0 0-.168-.311.78.78 0 0 0-.28-.209.935.935 0 0 0-.386-.075c-.098 0-.182.008-.253.024a.78.78 0 0 0-.342.154 3.063 3.063 0 0 0-.136.116l-.653-.16Z"/><circle cx="45.5" cy="32.5" r="4.5" fill="#EEE"/><path fill="#fff" d="M16.422 55.254a2.309 2.309 0 0 1-.195.75 1.86 1.86 0 0 1-.415.578 1.849 1.849 0 0 1-.609.371 2.22 2.22 0 0 1-.777.129c-.347 0-.649-.066-.906-.2a1.898 1.898 0 0 1-.645-.546c-.172-.23-.3-.497-.387-.805a3.742 3.742 0 0 1-.133-.984v-.777c.003-.347.049-.674.137-.98.089-.31.219-.58.39-.81.175-.231.391-.414.65-.546.257-.136.556-.203.898-.203.3 0 .566.044.8.132.235.089.435.214.602.375.167.162.3.358.398.59.1.232.163.49.192.774h-.938a1.809 1.809 0 0 0-.097-.454 1.044 1.044 0 0 0-.196-.351.802.802 0 0 0-.316-.227 1.153 1.153 0 0 0-.445-.078.931.931 0 0 0-.532.145c-.143.096-.259.226-.347.39a1.856 1.856 0 0 0-.192.563 3.985 3.985 0 0 0-.054.672v.785c0 .245.018.475.054.691.04.214.102.401.188.563.086.161.2.289.344.383.143.093.321.14.535.14.328 0 .578-.092.75-.277.172-.188.273-.452.304-.793h.942Zm.816-.406c0-.305.045-.589.133-.852.091-.263.22-.49.387-.684.17-.192.375-.343.617-.453.242-.109.517-.164.824-.164.31 0 .586.055.828.164.245.11.45.26.617.453.17.193.299.421.387.684.089.263.133.547.133.852v.082c0 .307-.044.592-.133.855a1.98 1.98 0 0 1-.386.684c-.167.19-.372.34-.614.449-.242.11-.517.164-.824.164a2.02 2.02 0 0 1-.832-.164 1.816 1.816 0 0 1-.617-.45 2.066 2.066 0 0 1-.387-.683 2.667 2.667 0 0 1-.133-.855v-.082Zm.934.082c0 .192.02.373.058.543.042.169.105.319.188.449a.98.98 0 0 0 .324.305c.13.073.285.109.465.109a.899.899 0 0 0 .453-.11.945.945 0 0 0 .32-.304c.086-.13.149-.28.188-.45.042-.169.063-.35.063-.542v-.082c0-.188-.021-.366-.063-.535a1.322 1.322 0 0 0-.188-.446.89.89 0 0 0-.781-.418.903.903 0 0 0-.46.113.943.943 0 0 0-.321.305 1.431 1.431 0 0 0-.188.446c-.039.169-.058.347-.058.535v.082Zm4.887-2.157.058.586c.154-.21.339-.373.555-.488.219-.117.46-.176.726-.176.217 0 .413.032.59.094.18.063.334.16.461.293.13.133.23.305.301.516.073.21.11.465.11.761V57h-.934v-2.625c0-.175-.021-.32-.063-.438a.662.662 0 0 0-.172-.28.608.608 0 0 0-.27-.15 1.296 1.296 0 0 0-.362-.046c-.206 0-.386.046-.54.137a1.066 1.066 0 0 0-.367.37V57h-.937v-4.227h.844Zm5.832-1.023v1.023h1.597v.696h-1.597v2.027c0 .159.018.29.054.395a.58.58 0 0 0 .399.383c.09.023.191.035.3.035.081 0 .165-.004.25-.012l.254-.031a3.683 3.683 0 0 0 .402-.082l.106.644c-.067.04-.15.076-.246.11a2.31 2.31 0 0 1-.308.078 3.56 3.56 0 0 1-.352.047c-.12.012-.238.019-.355.019-.211 0-.405-.029-.582-.086a1.215 1.215 0 0 1-.454-.273 1.326 1.326 0 0 1-.297-.477 2.07 2.07 0 0 1-.105-.7V53.47h-1.031v-.696h1.031V51.75h.934Zm5.836.945a3.295 3.295 0 0 1 .441.032 2.57 2.57 0 0 1 .336.074l-.133.918a3.81 3.81 0 0 0-.848-.098c-.312 0-.565.065-.757.195-.19.13-.331.312-.422.543V57h-.934v-4.227h.875l.043.66a1.93 1.93 0 0 1 .61-.538c.236-.133.5-.2.789-.2ZM39.324 57a.94.94 0 0 1-.066-.184 4.014 4.014 0 0 1-.043-.226 1.523 1.523 0 0 1-.496.344 1.693 1.693 0 0 1-.696.144 1.87 1.87 0 0 1-.609-.094 1.477 1.477 0 0 1-.465-.265 1.187 1.187 0 0 1-.402-.902c0-.454.168-.8.504-1.04.338-.24.823-.359 1.453-.359h.684v-.277a.665.665 0 0 0-.227-.532c-.151-.132-.365-.199-.64-.199a1.04 1.04 0 0 0-.329.047.665.665 0 0 0-.234.121.503.503 0 0 0-.14.184.55.55 0 0 0-.048.226h-.933c0-.164.038-.323.113-.476.078-.157.191-.295.34-.414.148-.123.33-.22.543-.293.216-.073.462-.11.738-.11.25 0 .482.032.695.094.214.06.399.151.555.273.156.12.279.271.367.454.089.18.133.39.133.632v1.883c0 .185.013.354.04.508.028.151.068.283.12.395V57h-.957Zm-1.125-.676a1.261 1.261 0 0 0 .621-.16.974.974 0 0 0 .22-.168.886.886 0 0 0 .148-.191v-.793h-.594c-.38 0-.662.06-.844.183a.596.596 0 0 0-.27.524c0 .086.015.166.043.242a.53.53 0 0 0 .13.191.68.68 0 0 0 .222.125 1 1 0 0 0 .324.047Zm5.989-.468a.421.421 0 0 0-.044-.192.397.397 0 0 0-.156-.16 1.207 1.207 0 0 0-.304-.137 4.252 4.252 0 0 0-.493-.12 5.092 5.092 0 0 1-.68-.188c-.2-.073-.373-.16-.519-.262a1.145 1.145 0 0 1-.332-.352.92.92 0 0 1-.117-.468c0-.172.04-.335.121-.489.08-.156.195-.293.344-.41.15-.117.333-.21.547-.277.216-.07.457-.106.722-.106.282 0 .533.035.754.106.224.07.413.166.567.289.153.12.27.262.351.426.084.164.125.34.125.527h-.933a.59.59 0 0 0-.219-.445.797.797 0 0 0-.274-.141 1.149 1.149 0 0 0-.37-.055c-.141 0-.264.016-.368.047a.793.793 0 0 0-.254.117.467.467 0 0 0-.152.168.502.502 0 0 0-.012.395c.026.057.073.11.14.156.069.047.162.09.282.13.12.035.275.07.465.105.266.046.504.105.715.175.213.07.394.157.543.258.15.102.267.223.347.363.081.138.121.301.121.489 0 .187-.042.36-.128.515a1.234 1.234 0 0 1-.368.407c-.159.112-.35.199-.574.261-.221.063-.47.094-.746.094a2.49 2.49 0 0 1-.812-.121 1.905 1.905 0 0 1-.59-.324 1.391 1.391 0 0 1-.364-.453 1.187 1.187 0 0 1-.12-.516h.906a.666.666 0 0 0 .332.555c.093.054.198.095.312.12.115.024.23.036.348.036.289 0 .509-.048.66-.145.151-.099.227-.225.227-.379Zm3.921-4.106v1.023h1.598v.696h-1.598v2.027c0 .159.019.29.055.395a.581.581 0 0 0 .398.383c.092.023.192.035.301.035.081 0 .164-.004.25-.012l.254-.031a3.646 3.646 0 0 0 .402-.082l.106.644a1.47 1.47 0 0 1-.246.11 2.303 2.303 0 0 1-.309.078c-.112.02-.229.036-.351.047-.12.012-.239.019-.356.019-.21 0-.405-.029-.582-.086a1.216 1.216 0 0 1-.453-.273 1.328 1.328 0 0 1-.297-.477 2.07 2.07 0 0 1-.105-.7V53.47h-1.032v-.696h1.032V51.75h.933Z"/><rect width="66" height="4" x="12.5" y="67.5" fill="#202020" stroke="#292929" rx="2"/><path fill="#fff" d="M89.963 67.003v.697h-.054c-.28 0-.522.04-.725.12-.2.077-.368.183-.502.318a1.39 1.39 0 0 0-.305.471 2.109 2.109 0 0 0-.13.571c.055-.061.118-.12.189-.174.07-.057.149-.107.235-.15.087-.046.18-.081.28-.106.1-.028.208-.041.322-.041a1.288 1.288 0 0 1 1.077.513c.116.152.202.328.26.529.056.198.085.404.085.619 0 .239-.037.462-.11.67a1.467 1.467 0 0 1-.817.899c-.2.086-.428.13-.683.13a1.542 1.542 0 0 1-1.24-.588 1.957 1.957 0 0 1-.319-.623 2.475 2.475 0 0 1-.109-.738v-.318c0-.244.018-.482.055-.714.036-.235.094-.456.174-.663.082-.208.187-.398.314-.571.13-.175.285-.326.465-.451.183-.126.393-.224.633-.294.239-.07.51-.106.813-.106h.092Zm-.885 2.365a.829.829 0 0 0-.27.045.841.841 0 0 0-.24.12.96.96 0 0 0-.331.424v.232c0 .202.022.38.065.533.046.15.107.277.185.38a.8.8 0 0 0 .266.231.755.755 0 0 0 .663 0c.1-.05.185-.12.253-.208a.966.966 0 0 0 .161-.321c.037-.126.055-.262.055-.41 0-.14-.017-.27-.052-.394a.993.993 0 0 0-.153-.328.717.717 0 0 0-.602-.304Zm5.852.738c0 .322-.038.605-.113.852a1.711 1.711 0 0 1-.318.615 1.337 1.337 0 0 1-.51.372 1.73 1.73 0 0 1-.676.127c-.248 0-.473-.042-.673-.127a1.366 1.366 0 0 1-.513-.372 1.796 1.796 0 0 1-.325-.615 2.92 2.92 0 0 1-.113-.852v-1.189c0-.321.038-.604.113-.848.075-.246.182-.45.322-.615.14-.166.31-.292.509-.376.2-.084.425-.126.673-.126.25 0 .476.042.677.126.2.084.37.21.51.376.14.164.249.37.324.615.075.244.113.527.113.848v1.19Zm-2.42-.31 1.593-1.187c-.019-.34-.094-.59-.226-.752-.13-.164-.32-.246-.57-.246-.267 0-.467.095-.599.284-.132.19-.198.48-.198.872v1.028Zm1.6-.544-1.593 1.186c.04.652.306.977.796.977.53 0 .796-.388.796-1.165v-.998Zm1.431-1.34c0-.132.02-.256.059-.372a.844.844 0 0 1 .479-.51c.118-.052.255-.078.413-.078.157 0 .295.026.413.078a.83.83 0 0 1 .475.51c.041.116.062.24.062.372v.263c0 .13-.02.253-.062.37a.87.87 0 0 1-.177.304.81.81 0 0 1-.294.205c-.119.05-.256.075-.41.075-.158 0-.297-.025-.417-.075a.845.845 0 0 1-.479-.51 1.101 1.101 0 0 1-.061-.369v-.263Zm.575.263c0 .062.007.121.02.178a.451.451 0 0 0 .065.147.401.401 0 0 0 .12.103.38.38 0 0 0 .178.037.372.372 0 0 0 .174-.037.328.328 0 0 0 .113-.103.451.451 0 0 0 .065-.147.757.757 0 0 0 .02-.178v-.263a.715.715 0 0 0-.02-.174.411.411 0 0 0-.065-.147.315.315 0 0 0-.117-.103.353.353 0 0 0-.177-.04.345.345 0 0 0-.29.143.411.411 0 0 0-.066.147.72.72 0 0 0-.02.174v.263Zm1.449 2.673c0-.13.02-.253.058-.369a.872.872 0 0 1 .181-.304.824.824 0 0 1 .298-.209c.118-.05.256-.075.413-.075.157 0 .295.025.414.075a.831.831 0 0 1 .475.513c.04.116.061.24.061.37v.266c0 .13-.02.253-.061.369a.831.831 0 0 1-.472.51 1.03 1.03 0 0 1-.41.074 1.08 1.08 0 0 1-.417-.075.882.882 0 0 1-.3-.205.872.872 0 0 1-.182-.304 1.161 1.161 0 0 1-.058-.37v-.266Zm.574.267c0 .061.007.12.02.178a.45.45 0 0 0 .066.146.404.404 0 0 0 .12.103c.05.025.109.038.177.038a.387.387 0 0 0 .181-.038.29.29 0 0 0 .113-.103.44.44 0 0 0 .058-.146.904.904 0 0 0 .017-.178v-.267a.701.701 0 0 0-.02-.17.413.413 0 0 0-.065-.148.347.347 0 0 0-.29-.144c-.071 0-.13.014-.179.042a.317.317 0 0 0-.116.102.413.413 0 0 0-.065.147.843.843 0 0 0-.017.171v.267Zm-1.326.215-.434-.219 1.917-3.513.434.218-1.917 3.514Z"/><circle cx="52.5" cy="69.5" r="4.5" fill="#EEE"/><path fill="#fff" d="M12.707 88.313h3.383v.777h-1.23v4.137h1.23V94h-3.383v-.773h1.203V89.09h-1.203v-.778Zm6.55 5.023a1.019 1.019 0 0 0 .622-.207.716.716 0 0 0 .195-.23.553.553 0 0 0 .07-.29h.883c.003.204-.044.395-.14.575a1.493 1.493 0 0 1-.387.464 1.91 1.91 0 0 1-.563.317 1.938 1.938 0 0 1-.671.117 2.04 2.04 0 0 1-.856-.168 1.747 1.747 0 0 1-.613-.457 2.006 2.006 0 0 1-.371-.676 2.73 2.73 0 0 1-.121-.82v-.14c0-.29.04-.563.12-.821.084-.258.208-.483.372-.676.164-.192.368-.345.613-.457.245-.114.529-.172.852-.172.255 0 .49.04.707.118.218.078.406.187.562.328a1.491 1.491 0 0 1 .496 1.145h-.883a.759.759 0 0 0-.062-.325.748.748 0 0 0-.184-.266.915.915 0 0 0-.644-.246.912.912 0 0 0-.488.121.897.897 0 0 0-.313.313 1.354 1.354 0 0 0-.168.437c-.031.164-.047.331-.047.5v.14c0 .173.016.34.047.505a1.4 1.4 0 0 0 .168.441.943.943 0 0 0 .313.313c.13.078.294.117.492.117Zm2.786-1.488c0-.305.044-.589.133-.852.09-.263.22-.49.387-.683.169-.193.375-.344.617-.454.242-.109.517-.164.824-.164.31 0 .586.055.828.164.245.11.45.26.617.454.17.192.298.42.387.683.088.263.133.547.133.852v.082c0 .307-.045.592-.133.855a1.98 1.98 0 0 1-.387.684c-.166.19-.37.34-.613.449-.242.11-.517.164-.824.164a2.02 2.02 0 0 1-.832-.164 1.816 1.816 0 0 1-.617-.45 2.066 2.066 0 0 1-.387-.683 2.664 2.664 0 0 1-.133-.855v-.082Zm.934.082c0 .192.02.373.058.543.042.169.104.319.188.449a.98.98 0 0 0 .324.305c.13.072.285.109.465.109a.898.898 0 0 0 .453-.11.944.944 0 0 0 .32-.304c.086-.13.149-.28.188-.45.041-.169.062-.35.062-.542v-.082c0-.188-.02-.366-.062-.535a1.322 1.322 0 0 0-.188-.446.89.89 0 0 0-.781-.418.903.903 0 0 0-.461.114.943.943 0 0 0-.32.304 1.431 1.431 0 0 0-.188.445c-.039.17-.058.348-.058.536v.082Zm4.886-2.157.059.586c.154-.21.338-.373.555-.488.218-.117.46-.176.726-.176.216 0 .413.032.59.094.18.063.333.16.46.293.131.133.231.305.302.516.073.21.11.465.11.761V94h-.934v-2.625c0-.174-.021-.32-.063-.438a.662.662 0 0 0-.172-.28.608.608 0 0 0-.27-.15 1.296 1.296 0 0 0-.363-.046c-.205 0-.385.046-.539.137a1.066 1.066 0 0 0-.367.37V94h-.938v-4.227h.844Zm11.696 2.762a.712.712 0 0 0-.086-.355.817.817 0 0 0-.239-.274 1.535 1.535 0 0 0-.367-.203 4.28 4.28 0 0 0-.46-.164 5.361 5.361 0 0 1-.665-.242 2.642 2.642 0 0 1-.582-.352 1.805 1.805 0 0 1-.414-.488 1.312 1.312 0 0 1-.156-.648c0-.245.052-.464.156-.657.107-.195.249-.36.426-.496.177-.135.383-.24.617-.312.234-.073.48-.11.734-.11.274 0 .53.043.766.13.24.083.448.201.625.355.18.15.322.333.426.547.104.21.157.445.16.703h-.938a1.304 1.304 0 0 0-.093-.39.875.875 0 0 0-.52-.508 1.23 1.23 0 0 0-.433-.071c-.141 0-.271.018-.391.055a.932.932 0 0 0-.313.16.74.74 0 0 0-.277.59.6.6 0 0 0 .102.347.992.992 0 0 0 .265.254c.11.073.235.137.375.192.144.052.292.1.446.144.237.07.463.158.68.262.215.102.406.225.57.371.164.143.294.31.39.5.097.19.145.408.145.652 0 .253-.054.476-.16.668-.107.193-.25.355-.43.485s-.388.229-.625.297a2.79 2.79 0 0 1-1.262.046 2.484 2.484 0 0 1-.496-.152 2.261 2.261 0 0 1-.437-.25 1.875 1.875 0 0 1-.356-.348 1.665 1.665 0 0 1-.234-.441 1.694 1.694 0 0 1-.09-.539h.941c.013.172.051.322.114.45a.951.951 0 0 0 .25.32c.104.083.225.147.363.19.14.043.296.063.465.063.14 0 .272-.017.394-.05.123-.034.23-.084.32-.149a.746.746 0 0 0 .215-.246.71.71 0 0 0 .079-.336Zm2.078-2.762h2.254v3.454h1.254V94h-3.508v-.773h1.312V90.55h-1.312v-.778Zm1.234-1.093c0-.146.047-.266.14-.36a.525.525 0 0 1 .395-.144c.172 0 .305.048.399.144a.48.48 0 0 1 .144.36.493.493 0 0 1-.144.363c-.094.094-.227.14-.399.14-.169 0-.3-.046-.394-.14a.5.5 0 0 1-.14-.363Zm4.54 4.574h2.554V94H46.18v-.617l2.414-2.852h-2.375v-.758h3.633v.598l-2.442 2.883Zm5.6.824c-.312 0-.597-.052-.855-.156a2.002 2.002 0 0 1-.664-.43 1.946 1.946 0 0 1-.426-.644 2.127 2.127 0 0 1-.152-.809v-.16c0-.336.053-.638.16-.906.11-.269.254-.498.434-.688a1.89 1.89 0 0 1 .633-.437 1.95 1.95 0 0 1 .761-.153c.308 0 .578.052.813.157.234.101.43.246.586.433.159.185.278.405.36.66.08.256.12.536.12.84v.395h-2.93c.016.164.057.316.122.457.065.14.15.263.254.367.106.102.23.182.37.242.144.057.3.086.47.086.236 0 .454-.047.652-.14.2-.094.363-.223.488-.387l.508.476c-.068.102-.155.2-.262.297a1.921 1.921 0 0 1-.375.254 2.256 2.256 0 0 1-.484.176 2.27 2.27 0 0 1-.582.07Zm-.113-3.629a.902.902 0 0 0-.664.277 1.18 1.18 0 0 0-.226.329c-.06.127-.103.273-.13.437h1.981v-.07a1.282 1.282 0 0 0-.074-.36.925.925 0 0 0-.176-.312.85.85 0 0 0-.297-.219.972.972 0 0 0-.414-.082Z"/><rect width="66" height="4" x="12.5" y="104.5" fill="#202020" stroke="#292929" rx="2"/><path fill="#fff" d="M90.633 105.336c0 .244-.062.461-.188.653a1.315 1.315 0 0 1-.512.448 1.45 1.45 0 0 1 .587.485c.071.102.125.215.161.338.039.121.058.25.058.386 0 .231-.042.435-.126.612-.085.178-.2.327-.345.448a1.508 1.508 0 0 1-.517.27 2.086 2.086 0 0 1-.632.092c-.23 0-.445-.03-.646-.092a1.508 1.508 0 0 1-.516-.27 1.292 1.292 0 0 1-.345-.448 1.441 1.441 0 0 1-.123-.612c0-.136.018-.266.054-.389.04-.123.093-.236.161-.339a1.392 1.392 0 0 1 .588-.481 1.295 1.295 0 0 1-.506-.448 1.183 1.183 0 0 1-.184-.653c0-.221.037-.417.112-.588a1.21 1.21 0 0 1 .311-.434 1.33 1.33 0 0 1 .479-.267c.184-.061.386-.092.605-.092.219 0 .42.031.605.092.187.06.349.148.485.267.137.116.243.261.318.434.078.171.116.367.116.588Zm-.71 2.269a.956.956 0 0 0-.059-.341.72.72 0 0 0-.42-.431.85.85 0 0 0-.332-.062.878.878 0 0 0-.335.062.728.728 0 0 0-.253.167.786.786 0 0 0-.16.264 1.008 1.008 0 0 0-.055.341c0 .256.072.455.215.599.144.141.342.212.595.212a.935.935 0 0 0 .325-.055.693.693 0 0 0 .42-.414.942.942 0 0 0 .058-.342Zm-.107-2.242a.856.856 0 0 0-.05-.301.638.638 0 0 0-.37-.393.74.74 0 0 0-.287-.054.789.789 0 0 0-.29.051.573.573 0 0 0-.216.15.656.656 0 0 0-.137.236.939.939 0 0 0-.047.311c0 .114.015.218.047.311.035.091.081.17.14.236a.668.668 0 0 0 .223.151.75.75 0 0 0 .29.054.74.74 0 0 0 .287-.054.63.63 0 0 0 .36-.387.897.897 0 0 0 .05-.311Zm5.155 1.825c0 .269-.032.519-.096.749a1.83 1.83 0 0 1-.28.598 1.34 1.34 0 0 1-.455.393c-.178.094-.383.14-.615.14-.21 0-.395-.034-.557-.102a1.2 1.2 0 0 1-.414-.294v1.75h-.817v-5.12h.752l.034.372c.119-.141.26-.249.42-.324.165-.078.355-.117.572-.117.234 0 .442.046.622.137.182.091.335.22.458.386.123.164.216.363.28.595.064.23.096.485.096.766v.071Zm-.817-.071a2.05 2.05 0 0 0-.051-.469 1.208 1.208 0 0 0-.158-.386.791.791 0 0 0-.27-.263.758.758 0 0 0-.39-.096.805.805 0 0 0-.45.117.817.817 0 0 0-.28.311v1.654c.068.127.16.231.276.311a.81.81 0 0 0 .462.12.74.74 0 0 0 .656-.366c.07-.112.122-.242.154-.39a2.09 2.09 0 0 0 .05-.472v-.071Zm3.4-.564.882-1.251h.91l-1.306 1.822L99.387 109h-.906l-.916-1.295-.913 1.295h-.912l1.346-1.876-1.305-1.822h.905l.869 1.251Z"/><circle cx="35.5" cy="106.5" r="4.5" fill="#EEE"/><path fill="#fff" d="M15.535 129.535a.71.71 0 0 0-.086-.355.817.817 0 0 0-.238-.274 1.525 1.525 0 0 0-.367-.203 4.4 4.4 0 0 0-.461-.164 5.392 5.392 0 0 1-.664-.242 2.63 2.63 0 0 1-.582-.352 1.79 1.79 0 0 1-.414-.488 1.312 1.312 0 0 1-.157-.648c0-.245.052-.464.157-.657.106-.195.248-.36.425-.496.178-.135.383-.239.618-.312.234-.073.479-.11.734-.11.273 0 .529.043.766.129.24.084.447.202.625.356.18.151.321.333.425.547.105.211.158.445.16.703h-.937a1.306 1.306 0 0 0-.094-.391.878.878 0 0 0-.52-.508 1.229 1.229 0 0 0-.433-.07c-.14 0-.27.018-.39.055a.93.93 0 0 0-.313.16.742.742 0 0 0-.277.59c0 .133.034.248.101.347a.983.983 0 0 0 .266.254c.11.073.234.137.375.192.143.052.292.1.445.144.237.07.464.158.68.262.216.101.406.225.57.371.164.143.295.31.39.5.097.19.145.408.145.652 0 .253-.053.476-.16.668a1.48 1.48 0 0 1-.43.485c-.18.13-.387.229-.624.297a2.792 2.792 0 0 1-1.262.046 2.28 2.28 0 0 1-.934-.402 1.835 1.835 0 0 1-.355-.348 1.658 1.658 0 0 1-.235-.441 1.695 1.695 0 0 1-.09-.539h.942c.013.172.05.322.113.449a.939.939 0 0 0 .25.32c.104.084.226.148.364.192.14.042.295.062.464.062.141 0 .273-.017.395-.05.122-.034.229-.084.32-.149a.753.753 0 0 0 .215-.246.71.71 0 0 0 .078-.336Zm3.746-3.785v1.023h1.598v.696H19.28v2.027c0 .159.018.29.055.395.039.104.092.187.16.25a.585.585 0 0 0 .238.132c.091.024.192.036.301.036a2.7 2.7 0 0 0 .25-.012l.254-.031c.083-.013.159-.026.227-.039.07-.016.129-.03.175-.043l.106.644c-.068.039-.15.076-.246.11a2.386 2.386 0 0 1-.309.078c-.112.02-.229.036-.351.046-.12.014-.239.02-.356.02-.21 0-.405-.029-.582-.086a1.22 1.22 0 0 1-.453-.273 1.326 1.326 0 0 1-.297-.477 2.066 2.066 0 0 1-.105-.699v-2.078h-1.032v-.696h1.032v-1.023h.933Zm5.836.945a3.433 3.433 0 0 1 .442.032 2.381 2.381 0 0 1 .335.074l-.132.918a3.822 3.822 0 0 0-.848-.098c-.312 0-.565.065-.758.195-.19.131-.33.312-.422.543V131h-.933v-4.227h.875l.043.661c.172-.23.375-.409.61-.539.236-.133.5-.2.788-.2Zm1.73 2.153c0-.305.045-.589.133-.852a2.07 2.07 0 0 1 .387-.684c.17-.192.375-.343.617-.453.243-.109.517-.164.825-.164.31 0 .585.055.828.164.244.11.45.261.617.453.17.193.298.421.387.684.088.263.132.547.132.852v.082c0 .307-.044.592-.132.855a1.983 1.983 0 0 1-.387.684c-.167.19-.371.34-.613.449a1.988 1.988 0 0 1-.825.164c-.31 0-.587-.055-.832-.164a1.812 1.812 0 0 1-.617-.449 2.07 2.07 0 0 1-.387-.684 2.662 2.662 0 0 1-.132-.855v-.082Zm.934.082c0 .192.02.373.059.543.041.169.104.319.187.449a.992.992 0 0 0 .325.305c.13.072.285.109.464.109a.907.907 0 0 0 .454-.109.954.954 0 0 0 .32-.305c.086-.13.148-.28.187-.449.042-.17.063-.351.063-.543v-.082c0-.188-.021-.366-.063-.536a1.322 1.322 0 0 0-.187-.445.894.894 0 0 0-.781-.418.908.908 0 0 0-.461.113.955.955 0 0 0-.32.305 1.441 1.441 0 0 0-.188.445c-.04.17-.059.348-.059.536v.082Zm5.489.222-.508.485V131h-.934v-6h.934v3.535l.394-.441 1.242-1.321h1.125l-1.632 1.758L35.773 131H34.61l-1.34-1.848Zm5.328 1.926c-.313 0-.598-.052-.856-.156a2.004 2.004 0 0 1-.664-.43 1.945 1.945 0 0 1-.426-.644 2.131 2.131 0 0 1-.152-.809v-.16c0-.336.053-.638.16-.906.11-.269.254-.498.434-.688.182-.19.393-.336.633-.437.242-.102.496-.153.761-.153.308 0 .578.052.813.157.234.101.43.246.586.433.159.185.278.405.36.66.08.256.12.535.12.84v.395h-2.93c.016.164.056.316.122.457.065.14.15.263.254.367.106.101.23.182.37.242.144.057.3.086.47.086.236 0 .454-.047.652-.141.2-.093.363-.222.488-.386l.508.476a1.576 1.576 0 0 1-.262.297 1.897 1.897 0 0 1-.375.254 2.236 2.236 0 0 1-.484.176c-.177.047-.371.07-.582.07Zm-.114-3.629a.93.93 0 0 0-.363.071.878.878 0 0 0-.3.207 1.16 1.16 0 0 0-.227.328c-.06.127-.103.273-.13.437h1.981v-.07a1.285 1.285 0 0 0-.074-.36.854.854 0 0 0-.473-.531.981.981 0 0 0-.414-.082Zm10.535 1.594.407-3.731h.875L49.574 131h-.898l-.621-3.781L47.44 131h-.894l-.727-5.688h.875l.407 3.711.582-3.711h.734l.602 3.731Zm2.227-2.27H53.5v3.454h1.254V131h-3.508v-.773h1.313v-2.676h-1.313v-.778Zm1.234-1.093c0-.146.047-.266.141-.36.094-.096.225-.144.395-.144.172 0 .304.048.398.144a.481.481 0 0 1 .145.36.491.491 0 0 1-.145.363c-.094.094-.227.141-.398.141-.17 0-.301-.047-.395-.141a.498.498 0 0 1-.14-.363Zm3.243 3.175c0-.32.039-.613.117-.878.078-.266.19-.494.336-.684.146-.19.321-.337.527-.441.208-.105.441-.157.7-.157.231 0 .436.041.613.121.177.079.332.192.465.34V125h.937v6h-.848l-.047-.43a1.352 1.352 0 0 1-.48.379 1.524 1.524 0 0 1-.648.129c-.256 0-.486-.053-.692-.16a1.61 1.61 0 0 1-.527-.449 2.196 2.196 0 0 1-.336-.676 2.992 2.992 0 0 1-.117-.855v-.083Zm.933.083c0 .19.019.368.055.535.036.166.094.312.172.437.08.125.182.224.304.297.126.07.274.105.446.105a.92.92 0 0 0 .523-.136c.136-.094.244-.219.325-.375v-1.836a.97.97 0 0 0-.329-.367.898.898 0 0 0-.511-.137.875.875 0 0 0-.45.109.906.906 0 0 0-.304.301 1.494 1.494 0 0 0-.176.445c-.036.17-.055.349-.055.539v.083Zm5.867-3.188v1.023h1.598v.696h-1.598v2.027c0 .159.019.29.055.395.04.104.093.187.16.25a.585.585 0 0 0 .239.132c.09.024.191.036.3.036.081 0 .164-.004.25-.012l.254-.031c.084-.013.16-.026.227-.039.07-.016.129-.03.176-.043l.105.644c-.068.039-.15.076-.246.11a2.386 2.386 0 0 1-.309.078c-.112.02-.229.036-.351.046-.12.014-.239.02-.356.02a1.89 1.89 0 0 1-.582-.086 1.22 1.22 0 0 1-.453-.273 1.326 1.326 0 0 1-.297-.477 2.066 2.066 0 0 1-.105-.699v-2.078h-1.031v-.696h1.03v-1.023h.934Zm3.868 1.609c.145-.208.322-.371.53-.488.212-.117.446-.176.704-.176.219 0 .42.033.602.098.184.065.342.167.472.305.13.135.232.311.305.527.073.214.11.47.11.77V131h-.934v-2.613c0-.162-.021-.3-.063-.414a.716.716 0 0 0-.172-.289.658.658 0 0 0-.27-.168 1.107 1.107 0 0 0-.362-.055 1.1 1.1 0 0 0-.922.469V131h-.934v-6h.934v2.359Z"/><rect width="66" height="4" x="12.5" y="141.5" fill="#202020" stroke="#292929" rx="2"/><path fill="#fff" d="M89.741 146h-.823v-3.968l-1.272.465v-.718l2.044-.756h.051V146Zm5.23-1.812c0 .269-.032.519-.096.749a1.83 1.83 0 0 1-.28.598 1.34 1.34 0 0 1-.455.393c-.178.094-.383.14-.615.14-.21 0-.395-.034-.557-.102a1.2 1.2 0 0 1-.414-.294v1.75h-.817v-5.12h.752l.034.372c.119-.141.26-.249.42-.324.165-.078.355-.117.572-.117.234 0 .442.046.622.137.182.091.335.22.458.386.123.164.216.363.28.595.064.23.096.485.096.766v.071Zm-.817-.071a2.05 2.05 0 0 0-.051-.469 1.208 1.208 0 0 0-.158-.386.791.791 0 0 0-.27-.263.758.758 0 0 0-.39-.096.805.805 0 0 0-.45.117.817.817 0 0 0-.28.311v1.654c.068.127.16.231.276.311a.81.81 0 0 0 .462.12.74.74 0 0 0 .656-.366c.07-.112.122-.242.154-.39a2.09 2.09 0 0 0 .05-.472v-.071Zm3.4-.564.882-1.251h.91l-1.306 1.822L99.387 146h-.906l-.916-1.295-.913 1.295h-.912l1.346-1.876-1.305-1.822h.905l.869 1.251Z"/><circle cx="25.5" cy="143.5" r="4.5" fill="#EEE"/></svg>