<svg xmlns="http://www.w3.org/2000/svg" width="176" height="142" fill="none"><path fill="#fff" d="M170.387 91.285a11.814 11.814 0 0 1-2.442 4.156 17.925 17.925 0 0 1-8.108 4.936c-6.948 2.286-13.533 1.006-16.641.2.076-.333.16-.648.236-.972l-.278.964a34.01 34.01 0 0 1-1.473-.341l-.27-.075-12.109-3.142h-.075L32.732 67.805a15.072 15.072 0 0 1-5.474-2.975L6.83 47.06a8.145 8.145 0 0 1-2.619-4.537C3.208 37.735 1.18 27.745 0 22.003c.227-2.594 3.032-4.447 5.979-3.882l10.947 2.136a9.57 9.57 0 0 1 4.222 1.82 9.403 9.403 0 0 1 2.86 3.566l5.507 12.882 37.473 9.683-.969-2.976L52.95 5.18C52.37 2.496 54.735.002 57.851.002h12.177a10.913 10.913 0 0 1 5.202 1.195 10.75 10.75 0 0 1 3.985 3.51l33.843 52.643 2.097 3.325 15.999 4.155 16.985 4.397 2.998.74c.413.1 1.171.282 2.097.565 3.411 1.022 9.44 2.925 13.962 8.161a17.55 17.55 0 0 1 1.541 2.053c2.147 3.3 2.846 7.015 1.65 10.54Z"/><path stroke="#FF6B75" stroke-linecap="round" stroke-linejoin="round" stroke-width="2" d="m99 96.334-12.667-6 6 12.666 1.334-5.333L99 96.333Z"/><rect width="33" height="16" x="103" y="90" fill="#FF6B75" rx="4"/><path fill="#fff" d="M107.757 102v-7.11h1.645c.495.007.936.092 1.324.254.39.16.719.385.986.674.27.287.475.632.615 1.035.143.4.217.845.22 1.334v.522a4.06 4.06 0 0 1-.22 1.338c-.14.4-.345.745-.615 1.035a2.812 2.812 0 0 1-.986.674 3.522 3.522 0 0 1-1.324.244h-1.645Zm.918-6.367v5.63h.727c.384-.004.716-.07.996-.201.28-.133.512-.314.694-.541.185-.228.322-.497.41-.806.091-.31.138-.645.142-1.006v-.532a3.642 3.642 0 0 0-.142-1.001 2.276 2.276 0 0 0-.41-.801 1.896 1.896 0 0 0-.694-.537 2.444 2.444 0 0 0-.996-.205h-.727Zm8.652 6.367a1.042 1.042 0 0 1-.088-.254 3.57 3.57 0 0 1-.044-.322 2.48 2.48 0 0 1-.307.259 2.244 2.244 0 0 1-.801.361 2.128 2.128 0 0 1-.488.054c-.28 0-.534-.041-.762-.122a1.833 1.833 0 0 1-.576-.328 1.487 1.487 0 0 1-.366-.493 1.512 1.512 0 0 1-.127-.62c0-.29.057-.543.17-.762.118-.218.282-.398.494-.542a2.25 2.25 0 0 1 .761-.327c.3-.071.633-.107 1.001-.107h.987v-.415c0-.16-.03-.303-.088-.43a.906.906 0 0 0-.249-.322 1.128 1.128 0 0 0-.396-.21 1.696 1.696 0 0 0-.517-.073c-.179 0-.341.023-.484.068-.14.046-.259.106-.356.18a.827.827 0 0 0-.23.27.684.684 0 0 0-.078.317h-.908c.003-.192.052-.381.146-.567.098-.185.236-.351.416-.498.182-.15.402-.27.659-.361a2.66 2.66 0 0 1 .883-.137c.3 0 .578.038.835.112.258.072.479.183.665.333.188.146.336.33.444.551.107.222.161.48.161.777v2.456c0 .175.016.363.049.561.032.195.078.366.137.513V102h-.943Zm-1.597-.688a1.754 1.754 0 0 0 1.236-.503 1.31 1.31 0 0 0 .215-.303v-1.07h-.84c-.528 0-.938.079-1.231.235a.78.78 0 0 0-.439.737c0 .13.021.251.063.362.046.11.113.206.201.288.087.078.198.14.332.185.133.046.288.069.463.069Zm6.202-.611.083.327.088-.327 1.479-3.984h.923L122.352 102h-.689l-2.173-5.283h.928l1.514 3.984Zm6.269 1.397c-.371 0-.713-.064-1.025-.191a2.324 2.324 0 0 1-.796-.532 2.444 2.444 0 0 1-.518-.811 2.758 2.758 0 0 1-.185-1.02v-.205c0-.427.068-.807.205-1.143a2.61 2.61 0 0 1 .542-.854c.228-.235.485-.414.771-.537.29-.124.586-.186.889-.186.381 0 .713.067.996.2.287.13.524.313.713.547.189.231.329.505.42.82.094.316.141.658.141 1.026v.405h-3.774c.01.241.055.467.137.679.084.211.198.397.342.557a1.61 1.61 0 0 0 1.191.507c.322 0 .609-.065.859-.195.251-.13.459-.303.625-.518l.552.43a2.093 2.093 0 0 1-.332.386c-.13.12-.281.228-.454.322a2.768 2.768 0 0 1-1.299.313Zm-.117-4.737c-.182 0-.355.034-.518.103a1.304 1.304 0 0 0-.439.293c-.13.127-.241.285-.332.474-.088.185-.15.4-.186.644h2.842v-.068a1.988 1.988 0 0 0-.102-.523 1.444 1.444 0 0 0-.249-.464 1.257 1.257 0 0 0-1.016-.459Z"/></svg>