<svg xmlns="http://www.w3.org/2000/svg" width="112" height="238" fill="none"><rect width="111" height="237" x=".5" y=".5" fill="#191919" stroke="#333" rx="7.5"/><rect width="32" height="32" x="16" y="16" fill="#232323" rx="4"/><path stroke="#fff" stroke-linecap="round" stroke-linejoin="round" stroke-width="2" d="M32 42c5.523 0 10-4.477 10-10s-4.477-10-10-10-10 4.477-10 10 4.477 10 10 10Z"/><path stroke="#fff" stroke-linecap="round" stroke-linejoin="round" stroke-width="2" d="m29 32 2 2 4-4"/><rect width="32" height="32" x="16" y="64" fill="#232323" rx="4"/><path stroke="#fff" stroke-linecap="round" stroke-linejoin="round" stroke-width="2" d="M38 70H26a2 2 0 0 0-2 2v16a2 2 0 0 0 2 2h12a2 2 0 0 0 2-2V72a2 2 0 0 0-2-2ZM28 74h8M36 82v4M36 78h.01M32 78h.01M28 78h.01M32 82h.01M28 82h.01M32 86h.01M28 86h.01"/><rect width="32" height="32" x="64" y="64" fill="#232323" rx="4"/><path stroke="#fff" stroke-linecap="round" stroke-linejoin="round" stroke-width="2" d="m77.06 79.9 8.07-8.06a2.848 2.848 0 0 1 4.684.903 2.851 2.851 0 0 1-.654 3.127l-8.06 8.08M75.07 82.94c-1.66 0-3 1.35-3 3.02 0 1.33-2.5 1.52-2 2.02 1.08 1.1 2.49 2.02 4 2.02 2.2 0 4-1.8 4-4.04a3.01 3.01 0 0 0-3-3.02Z"/><rect width="32" height="32" x="64" y="112" fill="#232323" rx="4"/><path stroke="#fff" stroke-linecap="round" stroke-linejoin="round" stroke-width="2" d="M89.66 133.67a1.083 1.083 0 0 1 .231 1.244 1.078 1.078 0 0 1-.27.356 12.003 12.003 0 0 1-16.105-.785 12.002 12.002 0 0 1-.786-16.105 1.104 1.104 0 0 1 1.238-.29c.14.057.266.142.372.25l15.32 15.33Z"/><path stroke="#fff" stroke-linecap="round" stroke-linejoin="round" stroke-width="2" d="M87.65 131.66a7.996 7.996 0 0 1-5.615 2.194 7.995 7.995 0 0 1-7.89-7.903 7.999 7.999 0 0 1 2.205-5.611M82 126l-5.5 5.5"/><path stroke="#fff" stroke-linecap="round" stroke-linejoin="round" stroke-width="2" d="M82 133.85V126h-7.85"/><rect width="31" height="31" x="16.5" y="112.5" fill="#353535" stroke="#444" rx="3.5"/><g fill="#fff" clip-path="url(#a)"><path d="M41.425 135.028a.948.948 0 0 1-.28.683.996.996 0 0 1-.691.289H22.971a1.006 1.006 0 0 1-.682-.295.96.96 0 0 1 0-1.353.997.997 0 0 1 .682-.295h17.486a.982.982 0 0 1 .898.603.943.943 0 0 1 .07.368ZM41.362 130.286a1.33 1.33 0 0 1-.277.468 2.04 2.04 0 0 1-.922.556c-.79.258-1.538.113-1.89.023l.026-.11-.032.109a5.056 5.056 0 0 1-.167-.039l-.03-.008-1.377-.354h-.008l-10.966-3.291a1.723 1.723 0 0 1-.622-.335l-2.32-2.002a.917.917 0 0 1-.299-.512c-.113-.539-.344-1.665-.478-2.312.026-.292.345-.501.68-.437l1.243.24a1.094 1.094 0 0 1 .805.607l.626 1.452 4.258 1.091-.11-.335-1.485-4.513c-.066-.303.203-.584.557-.584h1.384a1.248 1.248 0 0 1 1.044.53l3.845 5.932.239.375 1.818.468 1.93.495.34.084c.048.011.134.031.239.063.388.115 1.073.33 1.587.92.064.073.122.15.175.231.244.372.323.791.187 1.188Z"/></g><rect width="32" height="32" x="16" y="160" fill="#232323" rx="4"/><path stroke="#fff" stroke-linecap="round" stroke-linejoin="round" stroke-width="2" d="M25 170a3.998 3.998 0 0 1 4-4h6a3.997 3.997 0 0 1 4 4v14a2 2 0 0 1-2 2H27a2 2 0 0 1-2-2v-14ZM25 174h14M35 171v6"/><mask id="c" width="80" height="43" x="16" y="193" maskUnits="userSpaceOnUse" style="mask-type:alpha"><path fill="url(#b)" d="M16 193h80v43H16z"/></mask><g mask="url(#c)"><rect width="32" height="28" x="16" y="208" fill="#232323" rx="4"/><path stroke="#fff" stroke-linecap="round" stroke-linejoin="round" stroke-width="2" d="M36 217a1 1 0 1 0 0-2 1 1 0 0 0 0 2ZM38 231l1-7-6 1M25 220l3-3 5.5 3-2.36 3.5M24.24 226.5a5 5 0 0 0 6.88 6"/><path stroke="#fff" stroke-linecap="round" stroke-linejoin="round" stroke-width="2" d="M33.76 229.5a5 5 0 0 0-6.88-6"/><rect width="32" height="29" x="64" y="208" fill="#232323" rx="4"/><path stroke="#fff" stroke-linecap="round" stroke-linejoin="round" stroke-width="2" d="M80 234v-14M73 224h-3a10 10 0 1 0 20 0h-3M80 220a3 3 0 1 0 0-6 3 3 0 0 0 0 6Z"/></g><rect width="32" height="32" x="64" y="160" fill="#232323" rx="4"/><path stroke="#fff" stroke-linecap="round" stroke-linejoin="round" stroke-width="2" d="M87 167H73a2 2 0 0 0-2 2v14a2 2 0 0 0 2 2h14a2 2 0 0 0 2-2v-14a2 2 0 0 0-2-2Z"/><path stroke="#fff" stroke-linecap="round" stroke-linejoin="round" stroke-width="2" d="M79 173h4a2 2 0 0 0 2-2v-4"/><path stroke="#fff" stroke-linecap="round" stroke-linejoin="round" stroke-width="2" d="M77 175a2 2 0 1 0 0-4 2 2 0 0 0 0 4ZM75 185v-4a2 2 0 0 1 2-2h4"/><path stroke="#fff" stroke-linecap="round" stroke-linejoin="round" stroke-width="2" d="M83 181a2 2 0 1 0 0-4 2 2 0 0 0 0 4Z"/><rect width="32" height="32" x="64" y="16" fill="#232323" rx="4"/><path stroke="#fff" stroke-linecap="round" stroke-linejoin="round" stroke-width="2" d="m74 36 5-5-5-5M81 36l5-5-5-5"/><defs><linearGradient id="b" x1="56" x2="56" y1="193" y2="236" gradientUnits="userSpaceOnUse"><stop stop-color="#111"/><stop offset="1" stop-color="#111" stop-opacity="0"/></linearGradient><clipPath id="a"><path fill="#fff" d="M22 120h20v16H22z"/></clipPath></defs></svg>