<svg xmlns="http://www.w3.org/2000/svg" width="169" height="287" fill="none"><rect width="131" height="237" x="21.5" y="30.5" fill="#171717" stroke="#292929" rx="7.5"/><g filter="url(#a)"><circle cx="98" cy="88" r="21" fill="url(#b)"/></g><g filter="url(#c)"><circle cx="71" cy="216" r="21" fill="url(#d)"/></g><path fill="#fff" d="M29.51 164.734h2.578v.472h-1.023v3.325h1.023V169H29.51v-.469h.999v-3.325h-1v-.472Zm4.09 1.096.038.469c.115-.164.257-.292.425-.384.167-.094.355-.142.562-.144.166 0 .316.024.451.071.137.047.253.12.349.22a.977.977 0 0 1 .22.38c.052.153.079.334.079.545V169h-.542v-2.001c0-.141-.016-.26-.047-.357a.565.565 0 0 0-.14-.238.544.544 0 0 0-.226-.132 1.039 1.039 0 0 0-.305-.041.849.849 0 0 0-.48.138.995.995 0 0 0-.329.358V169h-.542v-3.17h.487Zm4.4-.768v.768h1.207v.419H38v1.723c0 .123.016.224.047.304.031.08.074.145.129.194.054.047.117.08.187.099.072.02.149.03.229.03a1.9 1.9 0 0 0 .363-.036c.06-.009.116-.019.167-.029l.129-.029.076.384a.858.858 0 0 1-.164.073 2.415 2.415 0 0 1-.706.097c-.14 0-.272-.02-.395-.059a.841.841 0 0 1-.317-.19.942.942 0 0 1-.214-.337 1.466 1.466 0 0 1-.076-.501v-1.723h-.832v-.419h.832v-.768H38Zm4.377 3.501a1.14 1.14 0 0 1-.396.367c-.158.086-.34.129-.547.129-.166 0-.317-.026-.452-.077a.865.865 0 0 1-.345-.243 1.138 1.138 0 0 1-.223-.416 2.143 2.143 0 0 1-.076-.609v-1.884h.542v1.89c0 .172.014.314.04.427a.687.687 0 0 0 .124.273.454.454 0 0 0 .2.141.86.86 0 0 0 .275.041c.22 0 .398-.045.533-.135a.816.816 0 0 0 .304-.363v-2.274h.545V169h-.492l-.032-.437Zm1.632-2.733h1.62v2.701h1.034V169H44.01v-.469h1.078v-2.229h-1.078v-.472Zm1.008-.832c0-.09.026-.165.079-.226.054-.062.136-.093.246-.093.107 0 .188.031.243.093a.326.326 0 0 1 .082.226.311.311 0 0 1-.082.22c-.055.058-.136.088-.243.088-.11 0-.192-.03-.246-.088a.318.318 0 0 1-.08-.22Zm3.793.064v.768h1.208v.419H48.81v1.723c0 .123.016.224.047.304a.5.5 0 0 0 .13.194c.054.047.116.08.187.099.072.02.148.03.228.03a1.903 1.903 0 0 0 .364-.036c.06-.009.116-.019.167-.029l.129-.029.076.384a.856.856 0 0 1-.164.073 2.417 2.417 0 0 1-.706.097c-.141 0-.273-.02-.396-.059a.84.84 0 0 1-.316-.19.939.939 0 0 1-.214-.337 1.464 1.464 0 0 1-.076-.501v-1.723h-.832v-.419h.832v-.768h.544Zm2.406.768h1.62v2.701h1.034V169h-2.654v-.469h1.078v-2.229h-1.078v-.472Zm1.008-.832c0-.09.026-.165.079-.226.054-.062.137-.093.246-.093.107 0 .188.031.243.093a.326.326 0 0 1 .082.226.31.31 0 0 1-.082.22c-.055.058-.136.088-.243.088-.11 0-.192-.03-.246-.088a.318.318 0 0 1-.08-.22Zm3.753 3.223.05.196.052-.196.888-2.391h.553L56.228 169h-.413l-1.303-3.17h.556l.909 2.391Zm3.761.838c-.222 0-.428-.038-.615-.115a1.389 1.389 0 0 1-.788-.805 1.652 1.652 0 0 1-.111-.613v-.123c0-.256.04-.484.123-.685.082-.203.19-.374.325-.513.137-.141.29-.248.463-.322a1.35 1.35 0 0 1 .533-.112c.229 0 .428.041.598.121.172.078.314.187.427.328.114.138.198.302.252.492.057.189.085.394.085.615v.243h-2.264c.006.145.033.281.082.408.05.126.119.238.205.334a.96.96 0 0 0 .715.304 1.104 1.104 0 0 0 .89-.428l.331.258a1.27 1.27 0 0 1-.199.232 1.384 1.384 0 0 1-.272.193 1.65 1.65 0 0 1-.78.188Zm-.07-2.842a.794.794 0 0 0-.574.237.997.997 0 0 0-.2.284c-.052.112-.09.241-.11.387h1.704v-.041a1.173 1.173 0 0 0-.061-.313.848.848 0 0 0-.15-.279.753.753 0 0 0-.609-.275Zm7.96 2.783a.634.634 0 0 1-.053-.152 2.033 2.033 0 0 1-.026-.194 1.458 1.458 0 0 1-.407.284c-.08.038-.166.067-.258.088-.092.022-.19.033-.293.033-.168 0-.32-.025-.457-.074a1.085 1.085 0 0 1-.346-.196.91.91 0 0 1-.22-.296.91.91 0 0 1-.076-.372c0-.174.034-.326.103-.457a.906.906 0 0 1 .296-.325c.127-.088.279-.153.457-.196.18-.043.38-.065.6-.065h.592v-.249a.607.607 0 0 0-.053-.258.541.541 0 0 0-.15-.193.662.662 0 0 0-.236-.126 1.029 1.029 0 0 0-.311-.044.965.965 0 0 0-.29.041.7.7 0 0 0-.214.108.492.492 0 0 0-.138.162.408.408 0 0 0-.046.19h-.545a.773.773 0 0 1 .087-.34.975.975 0 0 1 .25-.299c.109-.09.24-.162.395-.216a1.59 1.59 0 0 1 .53-.083c.18 0 .347.023.501.068.155.043.287.109.399.199a.923.923 0 0 1 .266.331c.065.133.097.288.097.466v1.474c0 .105.01.217.03.337.019.117.046.219.081.307V169h-.565Zm-.958-.413a1.044 1.044 0 0 0 .741-.302.77.77 0 0 0 .129-.181v-.642h-.504c-.316 0-.562.047-.738.141a.467.467 0 0 0-.264.442c0 .078.013.15.038.217a.488.488 0 0 0 .12.173c.053.046.12.084.2.111a.87.87 0 0 0 .278.041Zm2.965-2.757.038.469c.115-.164.257-.292.425-.384.168-.094.355-.142.562-.144.166 0 .317.024.451.071.137.047.253.12.349.22a.978.978 0 0 1 .22.38c.052.153.079.334.079.545V169h-.542v-2.001c0-.141-.016-.26-.047-.357a.564.564 0 0 0-.14-.238.544.544 0 0 0-.226-.132 1.038 1.038 0 0 0-.305-.041.849.849 0 0 0-.48.138.995.995 0 0 0-.329.358V169h-.542v-3.17h.487Zm3.014 1.559c0-.237.03-.453.088-.651.06-.199.146-.37.255-.512.111-.143.245-.254.402-.334.156-.08.33-.121.524-.121.19 0 .354.033.495.097.143.063.266.154.37.276V164.5h.541v4.5h-.498l-.023-.334a1.03 1.03 0 0 1-.378.293c-.147.066-.318.1-.513.1a1.105 1.105 0 0 1-.917-.463 1.653 1.653 0 0 1-.255-.51 2.156 2.156 0 0 1-.09-.636v-.061Zm.542.061c0 .154.017.301.05.44.033.138.084.26.153.366a.81.81 0 0 0 .266.252c.108.06.237.091.387.091a.875.875 0 0 0 .249-.033.745.745 0 0 0 .202-.09.8.8 0 0 0 .161-.144c.047-.057.088-.119.123-.187v-1.471a.904.904 0 0 0-.284-.317.753.753 0 0 0-.445-.126.784.784 0 0 0-.393.094.8.8 0 0 0-.266.255c-.069.106-.12.229-.153.369-.033.139-.05.285-.05.44v.061Zm8.874.709a.384.384 0 0 0-.038-.173.388.388 0 0 0-.129-.143.976.976 0 0 0-.24-.117 2.3 2.3 0 0 0-.372-.1 3.758 3.758 0 0 1-.498-.135 1.734 1.734 0 0 1-.384-.187.86.86 0 0 1-.246-.258.67.67 0 0 1-.088-.346.74.74 0 0 1 .091-.36.92.92 0 0 1 .255-.296c.11-.084.24-.15.39-.199.152-.049.319-.074.5-.074.196 0 .372.026.528.077.156.05.289.121.398.211a.924.924 0 0 1 .343.703h-.542a.414.414 0 0 0-.052-.2.574.574 0 0 0-.147-.175.74.74 0 0 0-.228-.123.87.87 0 0 0-.3-.047c-.115 0-.216.012-.304.038a.688.688 0 0 0-.217.102.442.442 0 0 0-.129.15.377.377 0 0 0-.044.176c0 .062.012.118.035.167a.348.348 0 0 0 .12.131c.06.04.136.075.232.106.098.031.22.061.37.091.195.041.37.089.524.143.154.053.284.117.39.194a.78.78 0 0 1 .24.26.69.69 0 0 1 .084.346.771.771 0 0 1-.096.384.885.885 0 0 1-.264.296 1.29 1.29 0 0 1-.407.19 1.89 1.89 0 0 1-.519.068 1.81 1.81 0 0 1-.574-.085 1.439 1.439 0 0 1-.428-.229 1.027 1.027 0 0 1-.266-.331.885.885 0 0 1-.091-.39h.542a.573.573 0 0 0 .088.282.645.645 0 0 0 .193.184c.078.047.164.08.258.1.094.019.186.029.278.029.229 0 .41-.042.542-.126.133-.084.2-.195.202-.334Zm2.898.9c-.223 0-.428-.038-.615-.115a1.388 1.388 0 0 1-.788-.805 1.654 1.654 0 0 1-.112-.613v-.123a1.8 1.8 0 0 1 .123-.685c.082-.203.19-.374.326-.513.136-.141.29-.248.462-.322a1.35 1.35 0 0 1 .534-.112c.228 0 .427.041.597.121.172.078.315.187.428.328.113.138.197.302.252.492.057.189.085.394.085.615v.243H83.99c.006.145.033.281.082.408.051.126.12.238.205.334a.96.96 0 0 0 .715.304 1.104 1.104 0 0 0 .89-.428l.332.258a1.27 1.27 0 0 1-.2.232 1.384 1.384 0 0 1-.272.193 1.65 1.65 0 0 1-.78.188Zm-.07-2.842a.794.794 0 0 0-.575.237.997.997 0 0 0-.199.284c-.053.112-.09.241-.111.387h1.705v-.041a1.173 1.173 0 0 0-.062-.313.85.85 0 0 0-.149-.279.754.754 0 0 0-.61-.275Zm3.624 2.402a.856.856 0 0 0 .284-.047.847.847 0 0 0 .249-.129.678.678 0 0 0 .173-.196.498.498 0 0 0 .07-.246h.513a.838.838 0 0 1-.112.404c-.07.127-.165.24-.284.337a1.407 1.407 0 0 1-.894.317c-.24 0-.45-.043-.63-.129a1.322 1.322 0 0 1-.45-.346 1.518 1.518 0 0 1-.27-.504 1.985 1.985 0 0 1-.09-.603v-.123c0-.209.03-.41.09-.601a1.5 1.5 0 0 1 .27-.504c.12-.146.271-.263.45-.349.18-.086.39-.129.63-.129.188 0 .36.031.516.091.158.059.294.14.407.243a1.081 1.081 0 0 1 .367.815h-.513a.638.638 0 0 0-.065-.27.704.704 0 0 0-.16-.225.756.756 0 0 0-.247-.153.823.823 0 0 0-.304-.055.823.823 0 0 0-.425.102.819.819 0 0 0-.276.264 1.12 1.12 0 0 0-.152.363c-.03.135-.044.271-.044.408v.123c0 .138.015.276.044.413.031.134.081.256.15.366.07.107.162.195.275.264a.85.85 0 0 0 .428.099Zm4.31-.056a1.139 1.139 0 0 1-.396.367 1.13 1.13 0 0 1-.548.129c-.166 0-.317-.026-.451-.077a.865.865 0 0 1-.346-.243 1.138 1.138 0 0 1-.223-.416 2.143 2.143 0 0 1-.076-.609v-1.884h.542v1.89c0 .172.014.314.041.427a.687.687 0 0 0 .123.273.454.454 0 0 0 .2.141.86.86 0 0 0 .275.041c.22 0 .398-.045.533-.135a.817.817 0 0 0 .305-.363v-2.274h.545V169h-.493l-.032-.437Zm3.623-2.792a2.17 2.17 0 0 1 .314.021c.05.006.096.014.137.023.043.01.079.021.106.033l-.073.53a2.555 2.555 0 0 0-.302-.05 2.335 2.335 0 0 0-.296-.017c-.254 0-.46.057-.618.172a1.007 1.007 0 0 0-.346.484V169h-.545v-3.17h.516l.026.504c.129-.174.283-.311.463-.41a1.24 1.24 0 0 1 .618-.153Zm2.927 3.288c-.223 0-.428-.038-.615-.115a1.389 1.389 0 0 1-.788-.805 1.654 1.654 0 0 1-.112-.613v-.123c0-.256.041-.484.123-.685.082-.203.19-.374.326-.513.136-.141.29-.248.462-.322a1.35 1.35 0 0 1 .534-.112c.228 0 .427.041.597.121.172.078.315.187.428.328.113.138.197.302.252.492.057.189.085.394.085.615v.243h-2.265c.006.145.034.281.082.408.051.126.12.238.205.334a.96.96 0 0 0 .715.304 1.104 1.104 0 0 0 .891-.428l.331.258a1.28 1.28 0 0 1-.472.425 1.652 1.652 0 0 1-.779.188Zm-.07-2.842a.794.794 0 0 0-.575.237 1 1 0 0 0-.199.284c-.052.112-.09.241-.111.387h1.705v-.041a1.144 1.144 0 0 0-.062-.313.845.845 0 0 0-.149-.279.754.754 0 0 0-.61-.275ZM30.86 176.619a.856.856 0 0 0 .285-.047.846.846 0 0 0 .249-.129.68.68 0 0 0 .172-.196.497.497 0 0 0 .07-.246h.513a.837.837 0 0 1-.11.404c-.071.127-.166.24-.285.337a1.407 1.407 0 0 1-.894.317c-.24 0-.45-.043-.63-.129a1.322 1.322 0 0 1-.45-.346 1.517 1.517 0 0 1-.27-.504 1.982 1.982 0 0 1-.091-.603v-.123c0-.209.03-.41.09-.601.061-.191.151-.359.27-.504.121-.146.272-.263.451-.349.18-.086.39-.129.63-.129.188 0 .36.031.516.091.158.059.294.14.407.243a1.08 1.08 0 0 1 .366.815h-.512a.637.637 0 0 0-.065-.27.704.704 0 0 0-.16-.225.755.755 0 0 0-.247-.153.822.822 0 0 0-.305-.055.823.823 0 0 0-.424.102.82.82 0 0 0-.276.264 1.12 1.12 0 0 0-.152.363c-.03.135-.044.271-.044.408v.123c0 .138.015.276.044.413.031.134.08.256.15.366.07.107.161.195.275.264a.85.85 0 0 0 .427.099Zm4.31-.056a1.138 1.138 0 0 1-.396.367c-.158.086-.34.129-.547.129-.166 0-.317-.026-.452-.077a.864.864 0 0 1-.345-.243 1.14 1.14 0 0 1-.223-.416 2.143 2.143 0 0 1-.076-.609v-1.884h.542v1.89c0 .172.014.314.04.427a.685.685 0 0 0 .124.273.454.454 0 0 0 .2.141.86.86 0 0 0 .275.041c.22 0 .398-.045.533-.135a.817.817 0 0 0 .304-.363v-2.274h.545V177h-.492l-.032-.437Zm3.653-.404a.385.385 0 0 0-.038-.173.389.389 0 0 0-.129-.143.976.976 0 0 0-.24-.117 2.3 2.3 0 0 0-.372-.1 3.758 3.758 0 0 1-.498-.135 1.736 1.736 0 0 1-.384-.187.86.86 0 0 1-.246-.258.67.67 0 0 1-.088-.346.74.74 0 0 1 .09-.36.921.921 0 0 1 .256-.296c.11-.084.24-.15.39-.199.152-.049.319-.074.5-.074.196 0 .371.026.528.077.156.05.289.121.398.211a.924.924 0 0 1 .343.703h-.542a.414.414 0 0 0-.053-.2.574.574 0 0 0-.146-.175.74.74 0 0 0-.229-.123.87.87 0 0 0-.298-.047c-.116 0-.217.012-.305.038a.688.688 0 0 0-.217.102.441.441 0 0 0-.129.15.376.376 0 0 0-.044.176c0 .062.012.118.035.167a.349.349 0 0 0 .12.131c.059.04.136.075.232.106.098.031.22.061.369.091.195.041.37.089.524.143.155.053.285.117.39.194a.78.78 0 0 1 .24.26.69.69 0 0 1 .085.346.772.772 0 0 1-.096.384.886.886 0 0 1-.264.296 1.29 1.29 0 0 1-.407.19 1.89 1.89 0 0 1-.519.068c-.215 0-.406-.029-.574-.085a1.439 1.439 0 0 1-.428-.229 1.027 1.027 0 0 1-.267-.331.885.885 0 0 1-.09-.39h.542a.573.573 0 0 0 .088.282.645.645 0 0 0 .193.184c.078.047.164.08.258.1.093.019.186.029.278.029.229 0 .41-.042.542-.126.133-.084.2-.195.202-.334Zm2.78-3.097v.768h1.207v.419h-1.207v1.723c0 .123.016.224.047.304.032.08.075.145.13.194.054.047.117.08.187.099.072.02.148.03.228.03a1.903 1.903 0 0 0 .364-.036c.06-.009.116-.019.167-.029l.129-.029.076.384a.86.86 0 0 1-.164.073 2.421 2.421 0 0 1-.706.097c-.141 0-.273-.02-.396-.059a.841.841 0 0 1-.316-.19.94.94 0 0 1-.214-.337 1.464 1.464 0 0 1-.076-.501v-1.723h-.832v-.419h.832v-.768h.544Zm2.169 2.324c0-.229.033-.441.1-.636.066-.197.16-.368.283-.513.125-.144.277-.258.454-.34.178-.084.378-.126.601-.126.225 0 .426.042.603.126a1.3 1.3 0 0 1 .455.34c.125.145.22.316.287.513.066.195.1.407.1.636v.064c0 .229-.034.441-.1.636a1.524 1.524 0 0 1-.287.51 1.307 1.307 0 0 1-.452.34 1.417 1.417 0 0 1-.6.123c-.225 0-.427-.041-.607-.123a1.335 1.335 0 0 1-.454-.34 1.551 1.551 0 0 1-.284-.51 1.961 1.961 0 0 1-.1-.636v-.064Zm.541.064c0 .156.019.306.056.448.037.141.093.265.167.373a.8.8 0 0 0 .68.348.778.778 0 0 0 .39-.094.814.814 0 0 0 .28-.254c.077-.108.133-.232.17-.373.038-.142.056-.292.056-.448v-.064c0-.155-.02-.302-.058-.443a1.146 1.146 0 0 0-.17-.375.827.827 0 0 0-.282-.255.774.774 0 0 0-.392-.096.774.774 0 0 0-.393.096.866.866 0 0 0-.28.255c-.075.108-.13.233-.168.375a1.73 1.73 0 0 0-.056.443v.064Zm3.463-1.62.015.299a.726.726 0 0 1 .252-.261.76.76 0 0 1 .38-.097c.292 0 .486.114.584.34a.724.724 0 0 1 .246-.243.737.737 0 0 1 .375-.097c.232 0 .411.072.536.214.125.143.188.359.188.648V177h-.516v-2.373c0-.266-.122-.398-.366-.396a.466.466 0 0 0-.167.027.32.32 0 0 0-.19.179.444.444 0 0 0-.036.123V177h-.515v-2.376a.447.447 0 0 0-.085-.293c-.057-.068-.147-.102-.27-.1a.445.445 0 0 0-.264.068.39.39 0 0 0-.137.179V177h-.516v-3.17h.486Zm8.994 2.066h-1.423L55.004 177h-.542l1.377-4.266h.454L57.647 177h-.54l-.337-1.104Zm-1.277-.472h1.134l-.563-1.852-.57 1.852Zm2.845-2.69h2.578v.472h-1.022v3.325h1.022V177h-2.578v-.469h.999v-3.325h-1v-.472Zm9.29 4.266a.634.634 0 0 1-.053-.152 2.033 2.033 0 0 1-.026-.194 1.458 1.458 0 0 1-.407.284c-.08.038-.166.067-.258.088-.092.022-.19.033-.293.033-.168 0-.32-.025-.457-.074a1.085 1.085 0 0 1-.346-.196.91.91 0 0 1-.22-.296.91.91 0 0 1-.076-.372c0-.174.034-.326.103-.457a.906.906 0 0 1 .296-.325c.127-.088.279-.153.457-.196.18-.043.38-.065.6-.065h.592v-.249a.607.607 0 0 0-.053-.258.541.541 0 0 0-.15-.193.662.662 0 0 0-.236-.126 1.029 1.029 0 0 0-.311-.044.965.965 0 0 0-.29.041.7.7 0 0 0-.214.108.492.492 0 0 0-.138.162.408.408 0 0 0-.046.19h-.545a.773.773 0 0 1 .087-.34.975.975 0 0 1 .25-.299c.109-.09.24-.162.395-.216a1.59 1.59 0 0 1 .53-.083c.18 0 .347.023.501.068.155.043.287.109.399.199a.923.923 0 0 1 .266.331c.065.133.097.288.097.466v1.474c0 .105.01.217.03.337.019.117.046.219.081.307V177h-.565Zm-.958-.413a1.044 1.044 0 0 0 .741-.302.77.77 0 0 0 .129-.181v-.642h-.504c-.316 0-.562.047-.738.141a.467.467 0 0 0-.264.442c0 .078.013.15.038.217a.488.488 0 0 0 .12.173c.053.046.12.084.2.111a.87.87 0 0 0 .278.041Zm4.585-.428a.384.384 0 0 0-.038-.173.39.39 0 0 0-.13-.143.977.977 0 0 0-.24-.117 2.306 2.306 0 0 0-.371-.1 3.756 3.756 0 0 1-.498-.135 1.735 1.735 0 0 1-.384-.187.858.858 0 0 1-.246-.258.67.67 0 0 1-.088-.346.74.74 0 0 1 .09-.36.919.919 0 0 1 .256-.296c.109-.084.239-.15.39-.199a1.63 1.63 0 0 1 .5-.074c.195 0 .371.026.527.077.157.05.29.121.399.211a.925.925 0 0 1 .343.703h-.542a.413.413 0 0 0-.053-.2.572.572 0 0 0-.147-.175.738.738 0 0 0-.228-.123.87.87 0 0 0-.299-.047c-.115 0-.217.012-.305.038a.689.689 0 0 0-.216.102.442.442 0 0 0-.13.15.376.376 0 0 0-.043.176c0 .062.011.118.035.167a.35.35 0 0 0 .12.131c.059.04.136.075.232.106.097.031.22.061.369.091.195.041.37.089.524.143.154.053.284.117.39.194a.78.78 0 0 1 .24.26c.057.1.085.215.085.346a.772.772 0 0 1-.097.384.886.886 0 0 1-.264.296 1.29 1.29 0 0 1-.407.19 1.89 1.89 0 0 1-.518.068c-.215 0-.406-.029-.575-.085a1.44 1.44 0 0 1-.427-.229 1.027 1.027 0 0 1-.267-.331.884.884 0 0 1-.09-.39h.541a.574.574 0 0 0 .088.282.646.646 0 0 0 .194.184c.078.047.164.08.257.1a1.4 1.4 0 0 0 .279.029c.228 0 .409-.042.542-.126.133-.084.2-.195.202-.334Zm3.603 0a.384.384 0 0 0-.038-.173.388.388 0 0 0-.129-.143.976.976 0 0 0-.24-.117 2.304 2.304 0 0 0-.372-.1 3.754 3.754 0 0 1-.498-.135 1.734 1.734 0 0 1-.384-.187.86.86 0 0 1-.246-.258.67.67 0 0 1-.088-.346.74.74 0 0 1 .091-.36.919.919 0 0 1 .255-.296c.11-.084.24-.15.39-.199a1.63 1.63 0 0 1 .5-.074c.196 0 .372.026.528.077.156.05.289.121.398.211a.922.922 0 0 1 .343.703h-.542a.413.413 0 0 0-.053-.2.572.572 0 0 0-.146-.175.739.739 0 0 0-.229-.123.87.87 0 0 0-.298-.047c-.116 0-.217.012-.305.038a.689.689 0 0 0-.217.102.442.442 0 0 0-.129.15.376.376 0 0 0-.044.176c0 .062.012.118.035.167a.35.35 0 0 0 .12.131c.06.04.136.075.232.106.098.031.22.061.37.091.194.041.37.089.523.143.155.053.285.117.39.194a.779.779 0 0 1 .24.26c.057.1.085.215.085.346a.771.771 0 0 1-.096.384.886.886 0 0 1-.264.296 1.288 1.288 0 0 1-.407.19 1.89 1.89 0 0 1-.519.068c-.215 0-.406-.029-.574-.085a1.44 1.44 0 0 1-.428-.229 1.027 1.027 0 0 1-.266-.331.885.885 0 0 1-.091-.39h.542a.573.573 0 0 0 .088.282.646.646 0 0 0 .193.184c.078.047.164.08.258.1a1.4 1.4 0 0 0 .278.029c.229 0 .41-.042.542-.126.133-.084.2-.195.202-.334Zm1.582-2.329h1.62v2.701h1.035V177H76.44v-.469h1.079v-2.229H76.44v-.472Zm1.008-.832c0-.09.027-.165.08-.226.054-.062.136-.093.245-.093.108 0 .189.031.244.093a.326.326 0 0 1 .082.226.31.31 0 0 1-.082.22c-.055.058-.136.088-.244.088-.109 0-.191-.03-.246-.088a.318.318 0 0 1-.079-.22Zm4.617 3.161a.384.384 0 0 0-.038-.173.388.388 0 0 0-.129-.143.976.976 0 0 0-.24-.117 2.3 2.3 0 0 0-.372-.1 3.758 3.758 0 0 1-.498-.135 1.734 1.734 0 0 1-.384-.187.86.86 0 0 1-.246-.258.67.67 0 0 1-.088-.346.74.74 0 0 1 .091-.36.92.92 0 0 1 .255-.296c.11-.084.24-.15.39-.199.152-.049.319-.074.5-.074.196 0 .372.026.528.077.156.05.289.121.398.211a.924.924 0 0 1 .343.703h-.542a.414.414 0 0 0-.052-.2.574.574 0 0 0-.147-.175.74.74 0 0 0-.228-.123.87.87 0 0 0-.3-.047c-.115 0-.216.012-.304.038a.688.688 0 0 0-.217.102.442.442 0 0 0-.129.15.377.377 0 0 0-.044.176c0 .062.012.118.035.167a.348.348 0 0 0 .12.131c.06.04.136.075.232.106.098.031.22.061.37.091.195.041.37.089.524.143.154.053.284.117.39.194a.78.78 0 0 1 .24.26.69.69 0 0 1 .084.346.771.771 0 0 1-.096.384.885.885 0 0 1-.264.296 1.29 1.29 0 0 1-.407.19 1.89 1.89 0 0 1-.519.068 1.81 1.81 0 0 1-.574-.085 1.439 1.439 0 0 1-.428-.229 1.027 1.027 0 0 1-.266-.331.885.885 0 0 1-.091-.39h.542a.573.573 0 0 0 .088.282.645.645 0 0 0 .193.184c.078.047.164.08.258.1.094.019.186.029.278.029.229 0 .41-.042.542-.126.133-.084.2-.195.202-.334Zm2.78-3.097v.768h1.208v.419h-1.207v1.723c0 .123.015.224.047.304.03.08.074.145.129.194.054.047.117.08.187.099.072.02.148.03.228.03a1.9 1.9 0 0 0 .364-.036c.06-.009.116-.019.167-.029l.129-.029.076.384a.862.862 0 0 1-.164.073 2.421 2.421 0 0 1-.706.097c-.14 0-.273-.02-.396-.059a.841.841 0 0 1-.316-.19.94.94 0 0 1-.214-.337 1.464 1.464 0 0 1-.076-.501v-1.723h-.832v-.419h.832v-.768h.545ZM89.25 177a.634.634 0 0 1-.053-.152 2.033 2.033 0 0 1-.026-.194 1.458 1.458 0 0 1-.407.284c-.08.038-.166.067-.258.088-.092.022-.19.033-.293.033-.168 0-.32-.025-.457-.074a1.085 1.085 0 0 1-.346-.196.91.91 0 0 1-.22-.296.91.91 0 0 1-.076-.372c0-.174.034-.326.103-.457a.906.906 0 0 1 .296-.325c.127-.088.279-.153.457-.196.18-.043.38-.065.6-.065h.592v-.249a.607.607 0 0 0-.053-.258.541.541 0 0 0-.149-.193.662.662 0 0 0-.237-.126 1.029 1.029 0 0 0-.31-.044.965.965 0 0 0-.29.041.7.7 0 0 0-.215.108.492.492 0 0 0-.138.162.408.408 0 0 0-.046.19h-.545a.773.773 0 0 1 .088-.34.976.976 0 0 1 .249-.299c.109-.09.24-.162.395-.216a1.59 1.59 0 0 1 .53-.083c.18 0 .347.023.501.068.155.043.287.109.399.199a.92.92 0 0 1 .266.331c.065.133.097.288.097.466v1.474c0 .105.01.217.03.337.019.117.046.219.081.307V177h-.565Zm-.958-.413a1.044 1.044 0 0 0 .741-.302.77.77 0 0 0 .13-.181v-.642h-.505c-.316 0-.562.047-.738.141a.467.467 0 0 0-.264.442c0 .078.013.15.038.217a.488.488 0 0 0 .12.173c.053.046.12.084.2.111a.87.87 0 0 0 .278.041Zm2.965-2.757.038.469c.115-.164.257-.292.425-.384.168-.094.355-.142.562-.144.166 0 .317.024.451.071.137.047.253.12.35.22a.978.978 0 0 1 .219.38c.052.153.079.334.079.545V177h-.542v-2.001c0-.141-.016-.26-.047-.357a.564.564 0 0 0-.14-.238.545.545 0 0 0-.226-.132 1.038 1.038 0 0 0-.305-.041.85.85 0 0 0-.48.138.996.996 0 0 0-.329.358V177h-.542v-3.17h.487Zm4.4-.768v.768h1.207v.419h-1.207v1.723c0 .123.016.224.047.304a.5.5 0 0 0 .129.194c.055.047.117.08.188.099.072.02.148.03.228.03a1.903 1.903 0 0 0 .363-.036c.06-.009.117-.019.167-.029l.13-.029.075.384a.856.856 0 0 1-.164.073 2.417 2.417 0 0 1-.706.097c-.14 0-.272-.02-.395-.059a.84.84 0 0 1-.317-.19.939.939 0 0 1-.213-.337 1.464 1.464 0 0 1-.077-.501v-1.723h-.832v-.419h.832v-.768h.545Zm4.427 3.097a.39.39 0 0 0-.038-.173.385.385 0 0 0-.129-.143.976.976 0 0 0-.24-.117 2.304 2.304 0 0 0-.372-.1 3.758 3.758 0 0 1-.498-.135 1.734 1.734 0 0 1-.384-.187.86.86 0 0 1-.246-.258.67.67 0 0 1-.088-.346.74.74 0 0 1 .09-.36.92.92 0 0 1 .256-.296c.109-.084.239-.15.39-.199a1.63 1.63 0 0 1 .5-.074c.195 0 .371.026.528.077.156.05.289.121.398.211a.933.933 0 0 1 .252.316c.06.119.091.248.091.387h-.542a.416.416 0 0 0-.053-.2.572.572 0 0 0-.146-.175.739.739 0 0 0-.229-.123.87.87 0 0 0-.299-.047c-.115 0-.217.012-.305.038a.689.689 0 0 0-.216.102.442.442 0 0 0-.13.15.376.376 0 0 0-.043.176c0 .062.012.118.035.167a.35.35 0 0 0 .12.131c.059.04.136.075.232.106.097.031.22.061.369.091.195.041.37.089.524.143.154.053.284.117.39.194a.786.786 0 0 1 .24.26c.057.1.085.215.085.346a.766.766 0 0 1-.097.384.881.881 0 0 1-.263.296 1.295 1.295 0 0 1-.408.19 1.89 1.89 0 0 1-.518.068c-.215 0-.406-.029-.574-.085a1.44 1.44 0 0 1-.428-.229 1.027 1.027 0 0 1-.267-.331.885.885 0 0 1-.09-.39h.541a.573.573 0 0 0 .088.282.646.646 0 0 0 .194.184c.078.047.164.08.258.1a1.4 1.4 0 0 0 .278.029c.228 0 .409-.042.542-.126.133-.084.2-.195.202-.334Zm5.909.841v-2.751h-.873v-.419h.873v-.223c0-.203.029-.38.088-.533.061-.154.145-.283.252-.386.109-.104.24-.182.393-.235a1.54 1.54 0 0 1 .509-.079c.129 0 .254.011.375.032.123.022.249.049.378.082l-.064.449a1.944 1.944 0 0 0-.281-.071 1.745 1.745 0 0 0-.34-.032c-.254.002-.446.066-.574.193-.127.127-.191.321-.191.58v.223h1.222v.419h-1.222V177h-.545Zm2.643-1.614c0-.229.033-.441.099-.636a1.56 1.56 0 0 1 .285-.513c.125-.144.276-.258.454-.34.177-.084.378-.126.6-.126.225 0 .426.042.604.126.179.082.331.196.454.34.125.145.221.316.287.513.066.195.1.407.1.636v.064c0 .229-.034.441-.1.636a1.517 1.517 0 0 1-.287.51 1.312 1.312 0 0 1-.451.34 1.419 1.419 0 0 1-.601.123c-.225 0-.427-.041-.606-.123a1.333 1.333 0 0 1-.454-.34 1.566 1.566 0 0 1-.285-.51 1.972 1.972 0 0 1-.099-.636v-.064Zm.542.064c0 .156.018.306.055.448.038.141.093.265.167.373a.799.799 0 0 0 .68.348.78.78 0 0 0 .39-.094.814.814 0 0 0 .281-.254c.076-.108.133-.232.17-.373.037-.142.056-.292.056-.448v-.064c0-.155-.02-.302-.059-.443a1.149 1.149 0 0 0-.17-.375.827.827 0 0 0-.281-.255.776.776 0 0 0-.393-.096.772.772 0 0 0-.392.096.87.87 0 0 0-.282.255 1.21 1.21 0 0 0-.167.375 1.735 1.735 0 0 0-.055.443v.064Zm5.291-1.679a2.167 2.167 0 0 1 .313.021c.051.006.097.014.138.023.043.01.078.021.105.033l-.073.53a2.531 2.531 0 0 0-.302-.05 2.32 2.32 0 0 0-.295-.017c-.254 0-.46.057-.619.172a1.006 1.006 0 0 0-.345.484V177h-.545v-3.17h.515l.027.504c.129-.174.283-.311.463-.41.181-.102.387-.153.618-.153ZM30.91 185.059c-.223 0-.428-.038-.615-.115a1.389 1.389 0 0 1-.788-.805 1.654 1.654 0 0 1-.112-.613v-.123c0-.256.041-.484.124-.685.082-.203.19-.374.325-.513.136-.141.29-.248.463-.322a1.35 1.35 0 0 1 .533-.112c.228 0 .428.041.598.121.171.078.314.187.427.328.114.138.198.302.252.492.057.189.085.394.085.615v.243h-2.264c.005.145.033.281.082.408.05.126.119.238.205.334a.96.96 0 0 0 .715.304 1.104 1.104 0 0 0 .89-.428l.331.258c-.053.08-.119.158-.2.232a1.384 1.384 0 0 1-.271.193 1.651 1.651 0 0 1-.78.188Zm-.07-2.842a.794.794 0 0 0-.574.237 1 1 0 0 0-.2.284c-.052.112-.09.241-.11.387h1.704v-.041a1.17 1.17 0 0 0-.061-.313.85.85 0 0 0-.15-.279.754.754 0 0 0-.61-.275Zm3.515 2.004.05.196.053-.196.888-2.391h.553L34.607 185h-.413l-1.303-3.17h.556l.908 2.391Zm3.762.838c-.222 0-.427-.038-.615-.115a1.388 1.388 0 0 1-.788-.805 1.652 1.652 0 0 1-.111-.613v-.123a1.8 1.8 0 0 1 .123-.685c.082-.203.19-.374.325-.513.136-.141.29-.248.463-.322a1.35 1.35 0 0 1 .533-.112c.228 0 .428.041.598.121.171.078.314.187.427.328.113.138.197.302.252.492.057.189.085.394.085.615v.243h-2.264c.005.145.033.281.082.408.05.126.119.238.205.334a.96.96 0 0 0 .715.304 1.104 1.104 0 0 0 .89-.428l.331.258a1.27 1.27 0 0 1-.2.232 1.384 1.384 0 0 1-.271.193 1.65 1.65 0 0 1-.78.188Zm-.07-2.842a.794.794 0 0 0-.574.237.997.997 0 0 0-.2.284c-.052.112-.09.241-.11.387h1.704v-.041a1.173 1.173 0 0 0-.061-.313.848.848 0 0 0-.15-.279.753.753 0 0 0-.61-.275Zm4.35-.446a2.172 2.172 0 0 1 .314.021c.05.006.097.014.138.023.043.01.078.021.105.033l-.073.53a2.555 2.555 0 0 0-.302-.05 2.336 2.336 0 0 0-.296-.017c-.254 0-.46.057-.618.172a1.008 1.008 0 0 0-.346.484V185h-.545v-3.17h.516l.026.504c.13-.174.284-.311.463-.41a1.24 1.24 0 0 1 .618-.153Zm2.693 2.104.14.384.967-2.429h.607l-1.609 3.659a2.107 2.107 0 0 1-.143.261 1.274 1.274 0 0 1-.208.255 1.125 1.125 0 0 1-.287.196.856.856 0 0 1-.463.073.747.747 0 0 1-.094-.011 1.015 1.015 0 0 1-.155-.03l.088-.442.055.003a11 11 0 0 0 .074.006l.073.003a.353.353 0 0 0 .258-.059.747.747 0 0 0 .164-.146c.048-.057.09-.116.123-.176a2.66 2.66 0 0 0 .082-.15l.216-.421-1.365-3.021h.607l.87 2.045Zm5.938-.486c0-.237.03-.453.088-.651.06-.199.146-.37.255-.512a1.134 1.134 0 0 1 .926-.455c.19 0 .354.033.495.097.143.063.266.154.37.276V180.5h.541v4.5h-.498l-.023-.334a1.03 1.03 0 0 1-.378.293c-.147.066-.318.1-.513.1a1.105 1.105 0 0 1-.917-.463 1.653 1.653 0 0 1-.255-.51 2.156 2.156 0 0 1-.09-.636v-.061Zm.542.061c0 .154.017.301.05.44.033.138.084.26.153.366a.81.81 0 0 0 .266.252c.108.06.236.091.387.091a.875.875 0 0 0 .249-.033.747.747 0 0 0 .202-.09.802.802 0 0 0 .161-.144c.047-.057.088-.119.123-.187v-1.471a.905.905 0 0 0-.284-.317.754.754 0 0 0-.445-.126.784.784 0 0 0-.393.094.8.8 0 0 0-.267.255c-.068.106-.119.229-.152.369-.033.139-.05.285-.05.44v.061Zm4.565 1.609c-.223 0-.428-.038-.615-.115a1.389 1.389 0 0 1-.789-.805 1.654 1.654 0 0 1-.11-.613v-.123c0-.256.04-.484.122-.685.082-.203.19-.374.325-.513.137-.141.291-.248.463-.322a1.35 1.35 0 0 1 .534-.112c.228 0 .427.041.597.121.172.078.315.187.428.328.113.138.197.302.252.492.056.189.085.394.085.615v.243h-2.265c.006.145.033.281.082.408.05.126.12.238.205.334a.96.96 0 0 0 .715.304 1.104 1.104 0 0 0 .89-.428l.332.258c-.053.08-.12.158-.2.232a1.384 1.384 0 0 1-.272.193 1.651 1.651 0 0 1-.78.188Zm-.07-2.842a.794.794 0 0 0-.575.237 1 1 0 0 0-.199.284c-.053.112-.09.241-.111.387h1.705v-.041a1.17 1.17 0 0 0-.062-.313.85.85 0 0 0-.15-.279.754.754 0 0 0-.608-.275Zm4.948 1.233c0 .227-.028.439-.082.636a1.586 1.586 0 0 1-.24.51 1.113 1.113 0 0 1-.923.463 1.32 1.32 0 0 1-.513-.094 1.073 1.073 0 0 1-.378-.27v1.524h-.542v-4.389h.495l.026.346c.106-.131.233-.231.381-.299.15-.07.325-.106.522-.106a1.11 1.11 0 0 1 .932.455c.105.142.185.313.24.512.054.198.082.414.082.651v.061Zm-.542-.061c0-.155-.018-.301-.053-.44a1.1 1.1 0 0 0-.158-.369.791.791 0 0 0-.27-.255.784.784 0 0 0-.392-.094.756.756 0 0 0-.44.123.905.905 0 0 0-.281.311v1.526c.07.125.164.228.281.308a.788.788 0 0 0 .445.117c.15 0 .28-.031.39-.094.11-.064.2-.15.27-.257.07-.108.122-.232.155-.372a1.83 1.83 0 0 0 .053-.443v-.061ZM64.024 185a.634.634 0 0 1-.052-.152 2.033 2.033 0 0 1-.027-.194 1.452 1.452 0 0 1-.407.284c-.08.038-.166.067-.258.088-.092.022-.19.033-.293.033-.168 0-.32-.025-.457-.074a1.085 1.085 0 0 1-.345-.196.912.912 0 0 1-.22-.296.912.912 0 0 1-.076-.372c0-.174.034-.326.102-.457a.906.906 0 0 1 .296-.325c.127-.088.28-.153.457-.196.18-.043.38-.065.6-.065h.593v-.249a.608.608 0 0 0-.053-.258.541.541 0 0 0-.15-.193.662.662 0 0 0-.237-.126 1.029 1.029 0 0 0-.31-.044.965.965 0 0 0-.29.041.7.7 0 0 0-.214.108.492.492 0 0 0-.138.162.408.408 0 0 0-.047.19h-.545a.773.773 0 0 1 .088-.34.976.976 0 0 1 .249-.299c.11-.09.241-.162.395-.216.157-.055.334-.083.53-.083.18 0 .347.023.502.068.154.043.287.109.398.199a.92.92 0 0 1 .267.331c.064.133.096.288.096.466v1.474c0 .105.01.217.03.337.02.117.047.219.082.307V185h-.566Zm-.958-.413a1.044 1.044 0 0 0 .742-.302.77.77 0 0 0 .129-.181v-.642h-.504c-.317 0-.563.047-.739.141a.467.467 0 0 0-.263.442c0 .078.012.15.038.217a.488.488 0 0 0 .12.173c.053.046.119.084.2.111a.87.87 0 0 0 .277.041Zm4.556-2.816a2.17 2.17 0 0 1 .314.021c.05.006.096.014.137.023.043.01.078.021.106.033l-.073.53a2.555 2.555 0 0 0-.302-.05 2.336 2.336 0 0 0-.296-.017c-.254 0-.46.057-.618.172a1.008 1.008 0 0 0-.346.484V185h-.545v-3.17h.516l.026.504c.129-.174.283-.311.463-.41a1.24 1.24 0 0 1 .618-.153Zm2.81-.709v.768h1.207v.419h-1.207v1.723c0 .123.015.224.046.304a.5.5 0 0 0 .13.194c.054.047.117.08.187.099.072.02.148.03.228.03a1.903 1.903 0 0 0 .364-.036c.06-.009.116-.019.167-.029l.129-.029.076.384a.856.856 0 0 1-.164.073 2.417 2.417 0 0 1-.706.097c-.141 0-.273-.02-.396-.059a.84.84 0 0 1-.316-.19.939.939 0 0 1-.214-.337 1.464 1.464 0 0 1-.076-.501v-1.723h-.832v-.419h.832v-.768h.545Zm2.569.768.015.299a.726.726 0 0 1 .252-.261.76.76 0 0 1 .38-.097c.291 0 .486.114.583.34a.724.724 0 0 1 .247-.243.738.738 0 0 1 .375-.097c.232 0 .41.072.536.214.125.143.187.359.187.648V185h-.515v-2.373c0-.266-.123-.398-.367-.396a.466.466 0 0 0-.167.027.319.319 0 0 0-.117.073.31.31 0 0 0-.073.106.44.44 0 0 0-.035.123V185h-.516v-2.376a.447.447 0 0 0-.085-.293c-.056-.068-.146-.102-.27-.1a.445.445 0 0 0-.263.068.39.39 0 0 0-.138.179V185h-.515v-3.17H73Zm4.755 3.229c-.223 0-.428-.038-.615-.115a1.389 1.389 0 0 1-.788-.805 1.654 1.654 0 0 1-.112-.613v-.123c0-.256.041-.484.123-.685.082-.203.19-.374.325-.513.137-.141.292-.248.463-.322a1.35 1.35 0 0 1 .534-.112c.228 0 .427.041.597.121.172.078.315.187.428.328.113.138.197.302.252.492.056.189.085.394.085.615v.243h-2.265c.006.145.033.281.082.408.051.126.12.238.205.334a.96.96 0 0 0 .715.304 1.104 1.104 0 0 0 .89-.428l.332.258c-.053.08-.12.158-.2.232a1.384 1.384 0 0 1-.272.193 1.651 1.651 0 0 1-.78.188Zm-.07-2.842a.794.794 0 0 0-.575.237 1 1 0 0 0-.199.284c-.053.112-.09.241-.111.387h1.705v-.041a1.17 1.17 0 0 0-.062-.313.85.85 0 0 0-.15-.279.754.754 0 0 0-.608-.275Zm2.76-.387.037.469c.116-.164.257-.292.425-.384.168-.094.356-.142.563-.144.166 0 .316.024.45.071.138.047.254.12.35.22a.977.977 0 0 1 .22.38c.052.153.078.334.078.545V185h-.542v-2.001c0-.141-.015-.26-.046-.357a.565.565 0 0 0-.141-.238.544.544 0 0 0-.226-.132 1.039 1.039 0 0 0-.304-.041.849.849 0 0 0-.48.138.995.995 0 0 0-.329.358V185h-.542v-3.17h.486Zm4.4-.768v.768h1.207v.419h-1.207v1.723c0 .123.015.224.047.304.03.08.074.145.129.194.054.047.117.08.187.099.072.02.148.03.228.03a1.9 1.9 0 0 0 .364-.036c.06-.009.116-.019.167-.029l.129-.029.076.384a.862.862 0 0 1-.164.073 2.421 2.421 0 0 1-.706.097c-.14 0-.273-.02-.396-.059a.841.841 0 0 1-.316-.19.94.94 0 0 1-.214-.337 1.464 1.464 0 0 1-.076-.501v-1.723h-.832v-.419h.832v-.768h.545Zm6.008.768h1.62v2.701h1.035V185h-2.654v-.469h1.078v-2.229h-1.079v-.472Zm1.008-.832c0-.09.027-.165.08-.226.054-.062.136-.093.246-.093.107 0 .188.031.243.093a.326.326 0 0 1 .082.226.31.31 0 0 1-.082.22c-.055.058-.136.088-.243.088-.11 0-.192-.03-.247-.088a.318.318 0 0 1-.079-.22Zm2.997.832.038.469c.116-.164.257-.292.425-.384.168-.094.356-.142.563-.144.166 0 .316.024.45.071.138.047.254.12.35.22a.978.978 0 0 1 .22.38c.052.153.078.334.078.545V185h-.542v-2.001c0-.141-.015-.26-.047-.357a.564.564 0 0 0-.14-.238.544.544 0 0 0-.226-.132 1.038 1.038 0 0 0-.304-.041.849.849 0 0 0-.48.138.995.995 0 0 0-.329.358V185h-.542v-3.17h.486Zm7.887 2.045.141.384.967-2.429h.606l-1.608 3.659a2.182 2.182 0 0 1-.144.261 1.284 1.284 0 0 1-.208.255 1.129 1.129 0 0 1-.287.196.854.854 0 0 1-.463.073.775.775 0 0 1-.094-.011 1.073 1.073 0 0 1-.088-.015l-.067-.015.088-.442.056.003a7.27 7.27 0 0 0 .146.009.354.354 0 0 0 .258-.059.763.763 0 0 0 .164-.146c.049-.057.09-.116.123-.176.035-.061.062-.11.082-.15l.217-.421-1.365-3.021h.606l.87 2.045Zm2.285-.489c0-.229.033-.441.1-.636a1.54 1.54 0 0 1 .284-.513c.125-.144.276-.258.454-.34a1.39 1.39 0 0 1 .601-.126c.224 0 .426.042.603.126.18.082.331.196.454.34.125.145.221.316.287.513.067.195.1.407.1.636v.064c0 .229-.033.441-.1.636a1.517 1.517 0 0 1-.287.51 1.302 1.302 0 0 1-.451.34 1.418 1.418 0 0 1-.6.123c-.225 0-.427-.041-.607-.123a1.333 1.333 0 0 1-.454-.34 1.546 1.546 0 0 1-.284-.51 1.945 1.945 0 0 1-.1-.636v-.064Zm.542.064c0 .156.019.306.056.448.037.141.093.265.167.373a.8.8 0 0 0 .68.348.775.775 0 0 0 .389-.094.806.806 0 0 0 .281-.254c.077-.108.133-.232.17-.373a1.73 1.73 0 0 0 .056-.448v-.064c0-.155-.019-.302-.059-.443a1.147 1.147 0 0 0-.169-.375.83.83 0 0 0-.282-.255.772.772 0 0 0-.392-.096.773.773 0 0 0-.393.096.866.866 0 0 0-.281.255c-.074.108-.13.233-.167.375a1.735 1.735 0 0 0-.056.443v.064Zm5.271 1.113a1.146 1.146 0 0 1-.396.367 1.13 1.13 0 0 1-.548.129c-.166 0-.316-.026-.451-.077a.856.856 0 0 1-.345-.243 1.139 1.139 0 0 1-.223-.416 2.136 2.136 0 0 1-.076-.609v-1.884h.542v1.89c0 .172.013.314.041.427a.677.677 0 0 0 .123.273.45.45 0 0 0 .199.141.86.86 0 0 0 .275.041c.221 0 .399-.045.534-.135a.817.817 0 0 0 .304-.363v-2.274h.545V185h-.492l-.032-.437Zm3.624-2.792a2.167 2.167 0 0 1 .313.021c.051.006.097.014.138.023.043.01.078.021.105.033l-.073.53a2.531 2.531 0 0 0-.302-.05 2.32 2.32 0 0 0-.295-.017c-.254 0-.46.057-.619.172a1.006 1.006 0 0 0-.345.484V185h-.545v-3.17h.515l.027.504c.129-.174.283-.311.463-.41.181-.102.387-.153.618-.153ZM30.91 193.059c-.223 0-.428-.038-.615-.115a1.389 1.389 0 0 1-.788-.805 1.654 1.654 0 0 1-.112-.613v-.123c0-.256.041-.484.124-.685.082-.203.19-.374.325-.513.136-.141.29-.248.463-.322a1.35 1.35 0 0 1 .533-.112c.228 0 .428.041.598.121.171.078.314.187.427.328.114.138.198.302.252.492.057.189.085.394.085.615v.243h-2.264c.005.145.033.281.082.408.05.126.119.238.205.334a.96.96 0 0 0 .715.304 1.104 1.104 0 0 0 .89-.428l.331.258c-.053.08-.119.158-.2.232a1.384 1.384 0 0 1-.271.193 1.651 1.651 0 0 1-.78.188Zm-.07-2.842a.794.794 0 0 0-.574.237 1 1 0 0 0-.2.284c-.052.112-.09.241-.11.387h1.704v-.041a1.17 1.17 0 0 0-.061-.313.85.85 0 0 0-.15-.279.754.754 0 0 0-.61-.275Zm2.76-.387.038.469c.115-.164.257-.292.425-.384.167-.094.355-.142.562-.144.166 0 .316.024.451.071.137.047.253.12.349.22a.977.977 0 0 1 .22.38c.052.153.079.334.079.545V193h-.542v-2.001c0-.141-.016-.26-.047-.357a.565.565 0 0 0-.14-.238.544.544 0 0 0-.226-.132 1.039 1.039 0 0 0-.305-.041.849.849 0 0 0-.48.138.995.995 0 0 0-.329.358V193h-.542v-3.17h.487Zm4.4-.768v.768h1.207v.419H38v1.723c0 .123.016.224.047.304.031.08.074.145.129.194.054.047.117.08.187.099.072.02.149.03.229.03a1.9 1.9 0 0 0 .363-.036c.06-.009.116-.019.167-.029l.129-.029.076.384a.858.858 0 0 1-.164.073 2.415 2.415 0 0 1-.706.097c-.14 0-.272-.02-.395-.059a.841.841 0 0 1-.317-.19.942.942 0 0 1-.214-.337 1.466 1.466 0 0 1-.076-.501v-1.723h-.832v-.419h.832v-.768H38Zm3.72 3.997c-.222 0-.427-.038-.614-.115a1.388 1.388 0 0 1-.789-.805 1.654 1.654 0 0 1-.11-.613v-.123a1.8 1.8 0 0 1 .122-.685c.082-.203.19-.374.325-.513.137-.141.291-.248.463-.322a1.35 1.35 0 0 1 .533-.112c.229 0 .428.041.598.121.172.078.315.187.428.328.113.138.197.302.252.492.056.189.085.394.085.615v.243h-2.265c.006.145.033.281.082.408.05.126.12.238.205.334a.96.96 0 0 0 .715.304 1.104 1.104 0 0 0 .89-.428l.332.258a1.273 1.273 0 0 1-.472.425 1.65 1.65 0 0 1-.78.188Zm-.07-2.842a.794.794 0 0 0-.574.237.995.995 0 0 0-.199.284c-.053.112-.09.241-.111.387h1.705v-.041a1.173 1.173 0 0 0-.062-.313.85.85 0 0 0-.15-.279.753.753 0 0 0-.609-.275Zm4.351-.446a2.17 2.17 0 0 1 .314.021c.05.006.096.014.137.023.043.01.078.021.106.033l-.074.53a2.555 2.555 0 0 0-.301-.05 2.336 2.336 0 0 0-.296-.017c-.254 0-.46.057-.618.172a1.007 1.007 0 0 0-.346.484V193h-.545v-3.17h.516l.026.504c.129-.174.283-.311.463-.41a1.24 1.24 0 0 1 .618-.153Zm4.201 1.679c0 .227-.027.439-.082.636a1.586 1.586 0 0 1-.24.51 1.113 1.113 0 0 1-.923.463c-.193 0-.364-.032-.513-.094a1.075 1.075 0 0 1-.378-.27v1.524h-.542v-4.389h.495l.027.346c.105-.131.232-.231.38-.299.151-.07.325-.106.522-.106a1.11 1.11 0 0 1 .932.455c.105.142.185.313.24.512.055.198.082.414.082.651v.061Zm-.542-.061c0-.155-.017-.301-.053-.44a1.097 1.097 0 0 0-.158-.369.79.79 0 0 0-.27-.255.784.784 0 0 0-.392-.094.756.756 0 0 0-.44.123.905.905 0 0 0-.28.311v1.526c.07.125.163.228.28.308a.787.787 0 0 0 .446.117c.15 0 .28-.031.39-.094.109-.064.199-.15.27-.257.07-.108.121-.232.154-.372.036-.141.053-.289.053-.443v-.061Zm3.548-1.618a2.17 2.17 0 0 1 .314.021c.05.006.096.014.137.023.043.01.078.021.106.033l-.074.53a2.552 2.552 0 0 0-.301-.05 2.334 2.334 0 0 0-.296-.017c-.254 0-.46.057-.618.172a1.007 1.007 0 0 0-.346.484V193h-.545v-3.17h.516l.026.504c.129-.174.283-.311.463-.41a1.24 1.24 0 0 1 .618-.153Zm1.611.059h1.62v2.701h1.035V193h-2.655v-.469h1.078v-2.229H54.82v-.472Zm1.008-.832c0-.09.026-.165.08-.226.054-.062.136-.093.245-.093.108 0 .189.031.243.093a.326.326 0 0 1 .082.226.31.31 0 0 1-.081.22c-.055.058-.136.088-.244.088-.109 0-.191-.03-.246-.088a.318.318 0 0 1-.079-.22Zm4.617 3.161a.384.384 0 0 0-.038-.173.388.388 0 0 0-.129-.143.976.976 0 0 0-.24-.117 2.3 2.3 0 0 0-.372-.1 3.758 3.758 0 0 1-.498-.135 1.736 1.736 0 0 1-.384-.187.86.86 0 0 1-.246-.258.67.67 0 0 1-.088-.346.74.74 0 0 1 .091-.36.92.92 0 0 1 .255-.296c.11-.084.24-.15.39-.199.152-.049.319-.074.5-.074.196 0 .372.026.528.077.156.05.289.121.398.211a.924.924 0 0 1 .343.703h-.542a.414.414 0 0 0-.053-.2.574.574 0 0 0-.146-.175.74.74 0 0 0-.229-.123.87.87 0 0 0-.299-.047c-.115 0-.216.012-.304.038a.688.688 0 0 0-.217.102.441.441 0 0 0-.129.15.376.376 0 0 0-.044.176c0 .062.012.118.035.167a.348.348 0 0 0 .12.131c.06.04.136.075.232.106.098.031.22.061.37.091.194.041.37.089.524.143.154.053.284.117.39.194a.78.78 0 0 1 .24.26.69.69 0 0 1 .084.346.771.771 0 0 1-.096.384.885.885 0 0 1-.264.296 1.29 1.29 0 0 1-.407.19 1.89 1.89 0 0 1-.519.068c-.215 0-.406-.029-.574-.085a1.439 1.439 0 0 1-.428-.229 1.027 1.027 0 0 1-.266-.331.885.885 0 0 1-.091-.39h.542a.573.573 0 0 0 .088.282.645.645 0 0 0 .193.184c.078.047.164.08.258.1.094.019.186.029.278.029.229 0 .41-.042.542-.126.133-.084.2-.195.202-.334Zm2.898.9c-.223 0-.428-.038-.615-.115a1.388 1.388 0 0 1-.788-.805 1.654 1.654 0 0 1-.112-.613v-.123a1.8 1.8 0 0 1 .123-.685c.082-.203.19-.374.325-.513.137-.141.291-.248.463-.322a1.35 1.35 0 0 1 .534-.112c.228 0 .427.041.597.121.172.078.315.187.428.328.113.138.197.302.252.492.056.189.085.394.085.615v.243h-2.265c.006.145.033.281.082.408.051.126.12.238.205.334a.96.96 0 0 0 .715.304 1.104 1.104 0 0 0 .89-.428l.332.258a1.273 1.273 0 0 1-.472.425 1.65 1.65 0 0 1-.78.188Zm-.07-2.842a.794.794 0 0 0-.575.237.997.997 0 0 0-.199.284c-.053.112-.09.241-.111.387h1.705v-.041a1.173 1.173 0 0 0-.062-.313.85.85 0 0 0-.15-.279.753.753 0 0 0-.608-.275Zm3.216 2.431a.4.4 0 0 1 .24-.386.477.477 0 0 1 .185-.033c.07 0 .132.011.185.033.054.021.1.051.134.091a.344.344 0 0 1 .082.131.457.457 0 0 1 0 .326.349.349 0 0 1-.082.128.324.324 0 0 1-.134.085.477.477 0 0 1-.185.033.477.477 0 0 1-.184-.033.326.326 0 0 1-.132-.085.408.408 0 0 1-.082-.128.496.496 0 0 1-.027-.162Z"/><path fill="url(#e)" d="M34.197 113.773a1.11 1.11 0 0 0-.082-.427.94.94 0 0 0-.27-.369 1.81 1.81 0 0 0-.497-.317 4.429 4.429 0 0 0-.762-.269 7.434 7.434 0 0 1-1.066-.381 3.912 3.912 0 0 1-.891-.551 2.596 2.596 0 0 1-.621-.75 2.056 2.056 0 0 1-.229-.984c0-.36.076-.686.229-.979.152-.293.363-.543.633-.75.27-.207.588-.365.955-.475a4.046 4.046 0 0 1 1.195-.169c.445 0 .852.064 1.219.193.37.129.69.31.955.545a2.436 2.436 0 0 1 .844 1.881h-1.606a1.628 1.628 0 0 0-.105-.528 1.15 1.15 0 0 0-.715-.679 1.742 1.742 0 0 0-.621-.1 1.92 1.92 0 0 0-.586.082c-.168.051-.31.125-.428.223a.94.94 0 0 0-.357.761c0 .161.039.305.117.434.082.129.199.246.351.352.153.101.336.195.551.281.219.086.465.166.738.24.391.113.75.252 1.079.416.328.164.609.359.843.586.239.223.422.479.551.768.133.285.2.603.2.955 0 .375-.077.709-.23 1.002a2.165 2.165 0 0 1-.62.738 2.893 2.893 0 0 1-.95.457 4.477 4.477 0 0 1-1.2.152 4.34 4.34 0 0 1-1.577-.299 3.394 3.394 0 0 1-.68-.38 2.638 2.638 0 0 1-.55-.534 2.522 2.522 0 0 1-.364-.691 2.694 2.694 0 0 1-.128-.855h1.617c.008.257.052.478.134.662.082.183.196.334.34.451.149.117.325.203.528.258.207.054.433.082.68.082.218 0 .411-.026.58-.076.171-.051.316-.122.433-.211a.927.927 0 0 0 .27-.323.953.953 0 0 0 .093-.422Zm6.88 1.336a2.434 2.434 0 0 1-.78.745c-.3.179-.631.269-.99.269-.329 0-.63-.051-.903-.152a1.746 1.746 0 0 1-.703-.481 2.35 2.35 0 0 1-.457-.844c-.105-.343-.158-.755-.158-1.236v-3.75h1.629v3.762c0 .258.017.474.053.65.039.176.1.319.181.428.082.105.19.182.323.229.132.046.294.07.486.07.324 0 .588-.061.79-.182.204-.125.358-.295.464-.51v-4.447h1.635V116H41.17l-.094-.891Zm8.858-2.22c0 .461-.054.888-.163 1.283a3.066 3.066 0 0 1-.475 1.025c-.207.285-.465.51-.774.674a2.225 2.225 0 0 1-1.06.246c-.34 0-.639-.058-.897-.176a2.038 2.038 0 0 1-.673-.492v2.989h-1.63v-8.778h1.507l.058.621c.195-.234.426-.416.691-.545a2.11 2.11 0 0 1 .932-.193c.402 0 .758.078 1.067.234.308.153.568.371.779.657.21.281.369.621.475 1.019.109.395.163.832.163 1.313v.123Zm-1.628-.123a3.47 3.47 0 0 0-.077-.745 1.786 1.786 0 0 0-.228-.603 1.123 1.123 0 0 0-.399-.404 1.102 1.102 0 0 0-.585-.147c-.286 0-.52.057-.703.17-.18.109-.32.266-.422.469v2.648c.101.2.242.36.422.481.183.117.421.176.714.176.23 0 .426-.051.586-.153.164-.101.297-.24.399-.416.101-.176.175-.379.222-.609.047-.235.07-.483.07-.744v-.123Zm6.216 3.351a3.54 3.54 0 0 1-1.33-.24 3.174 3.174 0 0 1-1.025-.65 2.934 2.934 0 0 1-.662-.973 3.158 3.158 0 0 1-.229-1.201v-.235c0-.484.076-.925.229-1.324.152-.402.365-.748.639-1.037a2.88 2.88 0 0 1 .972-.674c.375-.16.783-.24 1.225-.24.457 0 .863.076 1.218.228.36.149.663.36.909.633.25.274.44.604.568.991.129.382.194.806.194 1.271v.691H52.93c.03.215.093.413.187.592.098.176.22.328.37.457.148.129.318.229.51.299.19.07.4.106.626.106a2.502 2.502 0 0 0 .932-.182 2.18 2.18 0 0 0 .404-.229c.125-.089.234-.195.328-.316l.815.879a2.388 2.388 0 0 1-.399.428c-.16.136-.351.259-.574.369a3.664 3.664 0 0 1-1.605.357Zm-.193-5.256a1.254 1.254 0 0 0-.908.375 1.642 1.642 0 0 0-.287.434 2.363 2.363 0 0 0-.176.562h2.672v-.128a1.55 1.55 0 0 0-.1-.487 1.108 1.108 0 0 0-.252-.392 1.103 1.103 0 0 0-.404-.264 1.391 1.391 0 0 0-.545-.1Zm8.877-1.318c.246 0 .473.018.68.053.21.031.38.066.51.105l-.24 1.623a5.087 5.087 0 0 0-.663-.111 5.314 5.314 0 0 0-.639-.041c-.457 0-.824.088-1.101.264a1.597 1.597 0 0 0-.615.755V116h-1.63v-6.34h1.518l.076 1.037c.258-.359.567-.64.926-.843.36-.208.752-.311 1.178-.311Zm5.461 5.273c.16 0 .313-.023.457-.07a1.22 1.22 0 0 0 .38-.199.88.88 0 0 0 .253-.311.775.775 0 0 0 .082-.404h1.535a1.87 1.87 0 0 1-.205.914c-.14.281-.334.524-.58.727a2.836 2.836 0 0 1-.862.48c-.324.113-.667.17-1.03.17-.493 0-.925-.082-1.296-.246a2.667 2.667 0 0 1-.931-.686 3.02 3.02 0 0 1-.563-1.013 4.095 4.095 0 0 1-.187-1.254v-.176c0-.445.062-.861.187-1.248.125-.391.313-.73.563-1.02.25-.289.558-.517.925-.685.372-.168.801-.252 1.29-.252.39 0 .751.059 1.083.176a2.5 2.5 0 0 1 .856.498c.242.211.43.469.563.773.132.301.195.639.187 1.014H69.84a1.064 1.064 0 0 0-.07-.445 1.004 1.004 0 0 0-.24-.364 1.166 1.166 0 0 0-.382-.24 1.25 1.25 0 0 0-.486-.094c-.258 0-.47.053-.639.159a1.197 1.197 0 0 0-.404.421 2.006 2.006 0 0 0-.21.604c-.04.226-.06.461-.06.703v.176c0 .246.02.484.06.715a1.9 1.9 0 0 0 .204.603c.102.172.237.311.405.416.171.106.388.158.65.158Zm6.03-4.283c.21-.308.466-.551.767-.726a2.001 2.001 0 0 1 1.02-.264c.331 0 .636.051.913.152.278.098.516.252.715.463.2.211.354.483.463.815.114.328.17.724.17 1.189V116h-1.629v-3.85c0-.226-.03-.421-.088-.586a.967.967 0 0 0-.24-.398.952.952 0 0 0-.38-.223 1.573 1.573 0 0 0-.505-.076c-.273 0-.511.049-.715.147-.199.097-.363.234-.492.41V116h-1.629v-9h1.63v3.533ZM84.235 116a1.439 1.439 0 0 1-.1-.27 3.557 3.557 0 0 1-.07-.322 2.126 2.126 0 0 1-.703.504c-.14.063-.297.111-.469.147a2.513 2.513 0 0 1-.556.058c-.324 0-.623-.047-.897-.14a2.135 2.135 0 0 1-.697-.393 1.793 1.793 0 0 1-.457-.598 1.775 1.775 0 0 1-.164-.761c0-.668.248-1.184.744-1.547.5-.367 1.244-.551 2.233-.551h.908v-.375c0-.305-.1-.545-.299-.721-.2-.179-.486-.269-.861-.269-.332 0-.575.072-.727.217-.152.14-.228.33-.228.568h-1.63c0-.27.06-.526.176-.768.122-.242.295-.455.522-.638.23-.184.51-.329.838-.434a3.64 3.64 0 0 1 1.136-.164c.383 0 .739.047 1.067.141.332.093.62.232.861.416.243.183.432.416.569.697.136.277.205.599.205.967v2.718c0 .34.021.622.064.844.043.223.106.414.188.574v.1h-1.653Zm-1.552-1.143a1.705 1.705 0 0 0 .838-.211 1.188 1.188 0 0 0 .486-.457V113.1h-.832c-.254 0-.47.025-.65.076-.18.047-.327.115-.44.205a.79.79 0 0 0-.252.316.957.957 0 0 0-.082.399c0 .218.076.4.229.545.156.144.39.216.703.216Zm9.351-5.314c.246 0 .473.018.68.053.21.031.38.066.51.105l-.24 1.623a5.092 5.092 0 0 0-.663-.111 5.317 5.317 0 0 0-.638-.041c-.457 0-.825.088-1.102.264a1.597 1.597 0 0 0-.615.755V116h-1.63v-6.34h1.519l.076 1.037c.257-.359.566-.64.925-.843a2.31 2.31 0 0 1 1.178-.311Zm2.49 3.24c0-.48.059-.92.176-1.318.121-.399.293-.74.516-1.026.222-.285.492-.505.808-.662a2.393 2.393 0 0 1 1.073-.234c.37 0 .69.062.955.187s.492.303.68.534l.064-.604h1.482v6.135c0 .43-.074.812-.222 1.148-.145.336-.35.619-.616.85-.261.23-.578.404-.949.521a3.849 3.849 0 0 1-1.834.124c-.219-.04-.435-.1-.65-.182a3.006 3.006 0 0 1-.61-.317 2.008 2.008 0 0 1-.492-.451l.733-.99c.207.234.441.412.703.533.261.125.545.188.85.188.456 0 .812-.123 1.066-.369.258-.243.386-.588.386-1.038v-.363a2.038 2.038 0 0 1-.673.492 2.08 2.08 0 0 1-.885.176c-.395 0-.75-.08-1.067-.24a2.463 2.463 0 0 1-.802-.674 3.135 3.135 0 0 1-.516-1.014 4.484 4.484 0 0 1-.176-1.283v-.123Zm1.635.123c0 .266.026.514.076.744.055.227.137.426.246.598.11.168.249.301.416.398.168.098.368.147.598.147.285 0 .52-.055.703-.164.188-.109.336-.262.445-.457v-2.684a1.145 1.145 0 0 0-.445-.457c-.183-.109-.414-.164-.691-.164-.23 0-.43.051-.598.153a1.235 1.235 0 0 0-.422.41c-.11.172-.191.375-.246.609a3.223 3.223 0 0 0-.082.744v.123Zm8.813 3.211c-.489 0-.932-.08-1.33-.24a3.17 3.17 0 0 1-1.026-.65 2.934 2.934 0 0 1-.662-.973 3.165 3.165 0 0 1-.228-1.201v-.235c0-.484.076-.925.228-1.324a3.06 3.06 0 0 1 .639-1.037c.273-.289.597-.514.972-.674.375-.16.784-.24 1.225-.24.457 0 .863.076 1.219.228.359.149.662.36.908.633.25.274.439.604.568.991.129.382.194.806.194 1.271v.691h-4.301c.031.215.094.413.187.592.098.176.221.328.37.457.148.129.318.229.509.299.192.07.401.106.627.106a2.516 2.516 0 0 0 .932-.182c.144-.063.279-.139.404-.229.125-.089.235-.195.328-.316l.815.879a2.41 2.41 0 0 1-.399.428 2.78 2.78 0 0 1-.574.369 3.67 3.67 0 0 1-1.605.357Zm-.194-5.256a1.26 1.26 0 0 0-.908.375 1.646 1.646 0 0 0-.287.434 2.372 2.372 0 0 0-.176.562h2.672v-.128a1.542 1.542 0 0 0-.1-.487 1.104 1.104 0 0 0-.251-.392 1.112 1.112 0 0 0-.405-.264 1.391 1.391 0 0 0-.545-.1Z"/><path fill="#fff" d="m32.527 129.34.188.68 1.687-4.36h1.8l-3.218 7.289a4.64 4.64 0 0 1-.275.522 2.38 2.38 0 0 1-.416.521 2.18 2.18 0 0 1-.615.404c-.239.11-.522.165-.85.165-.078 0-.15-.004-.217-.012a1.503 1.503 0 0 1-.193-.024 1.372 1.372 0 0 1-.188-.035 2.203 2.203 0 0 1-.193-.047l.2-1.242c.066 0 .15.002.251.006.106.008.19.012.252.012a.529.529 0 0 0 .34-.117c.102-.079.188-.164.258-.258s.127-.18.17-.258c.043-.078.072-.117.088-.117l.392-.739-2.683-6.07h1.78l1.442 3.68Zm4.283-.569c0-.46.067-.886.2-1.277.133-.394.326-.736.58-1.025.258-.289.57-.516.937-.68a3.117 3.117 0 0 1 1.272-.246c.476 0 .9.082 1.271.246.371.164.684.391.938.68.258.289.453.631.586 1.025.133.391.199.817.199 1.277v.124c0 .464-.066.894-.2 1.289-.132.39-.325.73-.58 1.019a2.661 2.661 0 0 1-.937.68c-.37.16-.793.24-1.266.24-.476 0-.902-.08-1.277-.24a2.72 2.72 0 0 1-.943-.68 2.98 2.98 0 0 1-.58-1.019 4.023 4.023 0 0 1-.2-1.289v-.124Zm1.63.124c0 .265.025.515.076.75.05.23.13.433.24.609.11.172.25.308.422.41.175.102.387.152.633.152.238 0 .443-.05.615-.152s.31-.238.416-.41c.11-.176.19-.379.24-.609.05-.235.076-.485.076-.75v-.124c0-.257-.025-.501-.076-.732-.05-.23-.13-.434-.24-.609a1.173 1.173 0 0 0-.416-.416 1.208 1.208 0 0 0-.627-.153c-.242 0-.45.051-.621.153a1.22 1.22 0 0 0-.422.416c-.11.175-.19.379-.24.609-.051.231-.076.475-.076.732v.124Zm9.843 2.214a2.433 2.433 0 0 1-.78.745c-.3.179-.63.269-.99.269-.328 0-.628-.051-.902-.152a1.746 1.746 0 0 1-.703-.481 2.349 2.349 0 0 1-.457-.844c-.105-.343-.158-.755-.158-1.236v-3.75h1.629v3.762c0 .258.018.474.053.65.039.176.1.319.181.428.082.105.19.182.322.229.133.046.295.07.487.07.324 0 .588-.061.79-.182.204-.125.358-.295.464-.51v-4.447h1.634V132h-1.476l-.094-.891ZM56 125.543c.246 0 .473.018.68.053.21.031.38.066.51.105l-.24 1.623a5.087 5.087 0 0 0-.663-.111 5.314 5.314 0 0 0-.639-.041c-.457 0-.824.088-1.101.264a1.598 1.598 0 0 0-.615.755V132h-1.63v-6.34h1.518l.077 1.037c.257-.359.566-.64.925-.843.36-.208.752-.311 1.178-.311Zm15.574 3.352c0 .472-.052.906-.158 1.3a2.976 2.976 0 0 1-.463 1.02 2.192 2.192 0 0 1-.773.668 2.36 2.36 0 0 1-1.078.234c-.371 0-.694-.068-.967-.205a2.131 2.131 0 0 1-.698-.586l-.076.674h-1.465v-9h1.63v3.234c.187-.218.408-.388.662-.509.257-.121.558-.182.902-.182.414 0 .775.08 1.084.24.312.16.572.383.78.668.206.285.36.627.462 1.026.106.394.158.826.158 1.294v.124Zm-1.629-.124c0-.257-.02-.501-.058-.732a1.824 1.824 0 0 0-.205-.603 1.067 1.067 0 0 0-.387-.416 1.145 1.145 0 0 0-.615-.153c-.297 0-.54.063-.727.188a1.242 1.242 0 0 0-.428.515v2.526c.102.218.244.39.428.515.188.125.434.188.738.188.246 0 .45-.047.61-.141.16-.097.287-.23.38-.398a1.83 1.83 0 0 0 .206-.604c.039-.234.058-.488.058-.761v-.124Zm7.166 2.338a2.433 2.433 0 0 1-.779.745 1.9 1.9 0 0 1-.99.269c-.328 0-.63-.051-.903-.152a1.746 1.746 0 0 1-.703-.481 2.35 2.35 0 0 1-.457-.844c-.105-.343-.158-.755-.158-1.236v-3.75h1.629v3.762c0 .258.018.474.053.65.039.176.1.319.181.428.082.105.19.182.323.229.132.046.295.07.486.07.324 0 .588-.061.791-.182.203-.125.357-.295.463-.51v-4.447h1.635V132h-1.477l-.094-.891Zm7.254-.849a.472.472 0 0 0-.07-.258.583.583 0 0 0-.24-.205 2 2 0 0 0-.457-.182 8.572 8.572 0 0 0-.727-.164 7.423 7.423 0 0 1-1.02-.275 3.36 3.36 0 0 1-.785-.405 1.902 1.902 0 0 1-.515-.55 1.391 1.391 0 0 1-.182-.715c0-.262.063-.512.188-.75s.304-.447.539-.627c.234-.18.52-.322.855-.428a3.804 3.804 0 0 1 1.137-.158c.441 0 .838.053 1.19.158a2.7 2.7 0 0 1 .89.428 1.753 1.753 0 0 1 .756 1.459h-1.63c0-.246-.099-.451-.298-.615-.2-.168-.502-.252-.908-.252-.379 0-.666.068-.861.205-.192.136-.288.304-.288.504 0 .093.02.181.059.263.04.078.108.151.205.217.102.063.238.121.41.176.172.051.39.096.656.135a8.45 8.45 0 0 1 1.067.24c.328.098.611.225.85.381.238.152.423.34.556.562.137.219.205.481.205.785 0 .282-.068.541-.205.78a1.85 1.85 0 0 1-.574.609 2.9 2.9 0 0 1-.897.404 4.56 4.56 0 0 1-1.177.141c-.477 0-.899-.062-1.266-.187a2.984 2.984 0 0 1-.914-.487 2.151 2.151 0 0 1-.562-.685 1.762 1.762 0 0 1-.188-.774h1.553a.912.912 0 0 0 .14.446c.082.121.188.22.317.298.129.075.275.129.44.164.167.036.34.053.515.053.402 0 .709-.064.92-.193.21-.129.316-.295.316-.498Zm3.551-4.6h3.451v5.016h1.717V132h-5.168v-1.324h1.805v-3.686h-1.805v-1.33Zm1.688-1.623a.91.91 0 0 1 .064-.346.867.867 0 0 1 .486-.457c.117-.043.246-.064.387-.064.29 0 .518.082.686.246a.81.81 0 0 1 .257.621.83.83 0 0 1-.257.627c-.168.16-.397.24-.686.24-.14 0-.27-.021-.387-.064a.92.92 0 0 1-.293-.176.858.858 0 0 1-.193-.275.957.957 0 0 1-.065-.352Zm6.562 1.623.1.879c.226-.316.502-.56.826-.732a2.223 2.223 0 0 1 1.078-.264c.32 0 .613.047.879.141.265.093.494.244.685.451.196.203.346.467.452.791.109.32.164.711.164 1.172V132h-1.63v-3.879c0-.25-.029-.455-.087-.615a.877.877 0 0 0-.24-.387.857.857 0 0 0-.381-.193 1.985 1.985 0 0 0-.504-.059c-.277 0-.514.057-.71.17a1.297 1.297 0 0 0-.474.457V132H94.69v-6.34h1.477Zm8.807 6.457c-.489 0-.932-.08-1.33-.24a3.17 3.17 0 0 1-1.026-.65 2.934 2.934 0 0 1-.662-.973 3.165 3.165 0 0 1-.228-1.201v-.235c0-.484.076-.925.228-1.324a3.06 3.06 0 0 1 .639-1.037c.273-.289.597-.514.972-.674.375-.16.784-.24 1.225-.24.457 0 .863.076 1.219.228.359.149.662.36.908.633.25.274.439.604.568.991.129.382.194.806.194 1.271v.691h-4.301c.031.215.094.413.187.592.098.176.221.328.37.457.148.129.318.229.509.299.192.07.401.106.627.106a2.516 2.516 0 0 0 .932-.182c.144-.063.279-.139.404-.229.125-.089.235-.195.328-.316l.815.879a2.41 2.41 0 0 1-.399.428 2.78 2.78 0 0 1-.574.369 3.67 3.67 0 0 1-1.605.357Zm-.194-5.256a1.26 1.26 0 0 0-.908.375 1.646 1.646 0 0 0-.287.434 2.372 2.372 0 0 0-.176.562h2.672v-.128a1.542 1.542 0 0 0-.1-.487 1.104 1.104 0 0 0-.251-.392 1.112 1.112 0 0 0-.405-.264 1.391 1.391 0 0 0-.545-.1Zm8.414 3.399a.47.47 0 0 0-.07-.258.584.584 0 0 0-.24-.205 2.002 2.002 0 0 0-.457-.182 8.63 8.63 0 0 0-.727-.164 7.396 7.396 0 0 1-1.019-.275 3.337 3.337 0 0 1-.785-.405 1.9 1.9 0 0 1-.516-.55 1.392 1.392 0 0 1-.182-.715c0-.262.063-.512.188-.75s.304-.447.539-.627a2.74 2.74 0 0 1 .855-.428 3.806 3.806 0 0 1 1.137-.158c.441 0 .838.053 1.189.158.352.102.649.244.891.428a1.752 1.752 0 0 1 .756 1.459h-1.629c0-.246-.1-.451-.299-.615-.199-.168-.502-.252-.908-.252-.379 0-.666.068-.861.205-.192.136-.287.304-.287.504 0 .093.019.181.058.263a.595.595 0 0 0 .205.217c.102.063.239.121.41.176.172.051.391.096.657.135.382.062.738.142 1.066.24.328.098.611.225.85.381.238.152.424.34.556.562.137.219.205.481.205.785 0 .282-.068.541-.205.78a1.84 1.84 0 0 1-.574.609 2.901 2.901 0 0 1-.896.404 4.568 4.568 0 0 1-1.178.141c-.477 0-.899-.062-1.266-.187a2.987 2.987 0 0 1-.914-.487 2.152 2.152 0 0 1-.562-.685 1.762 1.762 0 0 1-.188-.774h1.553a.915.915 0 0 0 .141.446c.082.121.187.22.316.298.129.075.275.129.439.164.168.036.34.053.516.053.402 0 .709-.064.92-.193.211-.129.316-.295.316-.498Zm7.207 0a.47.47 0 0 0-.07-.258.584.584 0 0 0-.24-.205 2.002 2.002 0 0 0-.457-.182 8.63 8.63 0 0 0-.727-.164 7.396 7.396 0 0 1-1.019-.275 3.337 3.337 0 0 1-.785-.405 1.9 1.9 0 0 1-.516-.55 1.392 1.392 0 0 1-.182-.715c0-.262.063-.512.188-.75s.304-.447.539-.627a2.74 2.74 0 0 1 .855-.428 3.806 3.806 0 0 1 1.137-.158c.441 0 .838.053 1.189.158.352.102.649.244.891.428a1.752 1.752 0 0 1 .756 1.459h-1.629c0-.246-.1-.451-.299-.615-.199-.168-.502-.252-.908-.252-.379 0-.666.068-.861.205-.192.136-.287.304-.287.504 0 .093.019.181.058.263a.595.595 0 0 0 .205.217c.102.063.239.121.41.176.172.051.391.096.657.135.383.062.738.142 1.066.24.328.098.611.225.85.381.238.152.424.34.556.562.137.219.205.481.205.785 0 .282-.068.541-.205.78a1.84 1.84 0 0 1-.574.609 2.901 2.901 0 0 1-.896.404 4.568 4.568 0 0 1-1.178.141c-.477 0-.899-.062-1.266-.187a2.987 2.987 0 0 1-.914-.487 2.152 2.152 0 0 1-.562-.685 1.762 1.762 0 0 1-.188-.774h1.553a.915.915 0 0 0 .141.446c.082.121.187.22.316.298.129.075.275.129.439.164.168.036.34.053.516.053.402 0 .709-.064.92-.193.211-.129.316-.295.316-.498Zm-86.52 15.754.552-4.354h1.494L34.789 148h-1.43l-.832-4.031-.802 4.031h-1.43l-1.137-6.34h1.488l.551 4.371.797-4.371h1.09l.797 4.354Zm3.587-4.354h3.451v5.016h1.717V148h-5.168v-1.324h1.805v-3.686h-1.805v-1.33Zm1.687-1.623a.91.91 0 0 1 .065-.346.866.866 0 0 1 .486-.457c.117-.043.246-.064.387-.064.289 0 .517.082.685.246a.81.81 0 0 1 .258.621.829.829 0 0 1-.258.627c-.168.16-.396.24-.685.24-.14 0-.27-.021-.387-.064a.92.92 0 0 1-.293-.176.858.858 0 0 1-.193-.275.957.957 0 0 1-.065-.352Zm8.074.07v1.553h2.368v1.201h-2.367v2.725c0 .23.025.424.076.58.054.152.13.275.228.369a.87.87 0 0 0 .352.194c.14.039.297.058.468.058.125 0 .252-.006.381-.017.133-.012.258-.026.375-.041.121-.02.233-.04.334-.059.106-.02.196-.039.27-.059l.158 1.119a2.08 2.08 0 0 1-.398.176 4.149 4.149 0 0 1-.487.117 5.501 5.501 0 0 1-.539.071 5.294 5.294 0 0 1-.545.029c-.347 0-.664-.045-.949-.135a1.93 1.93 0 0 1-.726-.427 1.974 1.974 0 0 1-.463-.739c-.11-.301-.164-.66-.164-1.078v-2.883h-1.448v-1.201H45.6v-1.553h1.628Zm5.848 2.426c.211-.308.467-.551.768-.726a2 2 0 0 1 1.02-.264c.331 0 .636.051.913.152.278.098.516.252.715.463.2.211.354.483.463.815.113.328.17.724.17 1.189V148h-1.629v-3.85c0-.226-.03-.421-.088-.586a.967.967 0 0 0-.24-.398.952.952 0 0 0-.38-.223 1.573 1.573 0 0 0-.505-.076c-.273 0-.511.049-.715.147-.199.097-.363.234-.492.41V148h-1.629v-9h1.63v3.533Zm14.49 4.137h3.996V148h-5.648v-8.531h1.652v7.201Zm7.207 0h3.996V148h-5.648v-8.531h1.652v7.201Zm7.465-7.201.809 3.205.92-3.205h2.045V148H84.5v-2.525l.07-3.991-1.119 3.704h-.814l-1.002-3.545.07 3.832V148h-1.512v-8.531h2.045Zm9.334 6.791a.472.472 0 0 0-.07-.258.584.584 0 0 0-.24-.205 2 2 0 0 0-.457-.182 8.563 8.563 0 0 0-.727-.164 7.423 7.423 0 0 1-1.02-.275 3.36 3.36 0 0 1-.785-.405 1.902 1.902 0 0 1-.515-.55 1.391 1.391 0 0 1-.182-.715c0-.262.063-.512.188-.75a1.91 1.91 0 0 1 .539-.627c.234-.18.52-.322.855-.428a3.804 3.804 0 0 1 1.137-.158c.441 0 .838.053 1.19.158a2.7 2.7 0 0 1 .89.428 1.753 1.753 0 0 1 .756 1.459h-1.629c0-.246-.1-.451-.299-.615-.2-.168-.502-.252-.908-.252-.379 0-.666.068-.861.205-.192.136-.287.304-.287.504 0 .093.019.181.058.263a.59.59 0 0 0 .205.217c.102.063.238.121.41.176.172.051.39.096.657.135.382.062.738.142 1.066.24.328.098.611.225.85.381.238.152.423.34.556.562.137.219.205.481.205.785 0 .282-.068.541-.205.78a1.85 1.85 0 0 1-.574.609 2.899 2.899 0 0 1-.897.404 4.56 4.56 0 0 1-1.177.141c-.477 0-.899-.062-1.266-.187a2.985 2.985 0 0 1-.914-.487 2.151 2.151 0 0 1-.562-.685 1.762 1.762 0 0 1-.188-.774h1.553a.911.911 0 0 0 .14.446c.083.121.188.22.317.298.129.075.275.129.44.164.167.036.34.053.515.053.402 0 .709-.064.92-.193.21-.129.316-.295.316-.498ZM29.54 52v-4.266h.987c.297.004.562.055.794.153.235.095.432.23.592.404.162.172.285.379.37.621.085.24.13.507.131.8v.313c-.002.293-.046.56-.132.803a1.74 1.74 0 0 1-.369.621c-.16.172-.357.307-.592.404a2.108 2.108 0 0 1-.794.147h-.987Zm.55-3.82v3.378h.437c.23-.002.43-.042.598-.12.168-.08.307-.189.416-.326.111-.136.193-.297.246-.483.055-.186.083-.387.085-.604v-.319a2.167 2.167 0 0 0-.085-.6 1.365 1.365 0 0 0-.246-.481 1.14 1.14 0 0 0-.416-.322 1.467 1.467 0 0 0-.598-.123h-.436Zm2.957 2.206c0-.229.033-.44.1-.636.066-.197.16-.368.284-.513.125-.144.276-.258.454-.34.178-.084.378-.125.6-.125.225 0 .426.041.604.126.18.081.33.195.454.34.125.144.22.315.287.512.067.195.1.407.1.636v.064c0 .229-.033.44-.1.636a1.515 1.515 0 0 1-.287.51 1.3 1.3 0 0 1-.451.34 1.416 1.416 0 0 1-.6.123c-.225 0-.427-.041-.607-.123a1.328 1.328 0 0 1-.454-.34 1.542 1.542 0 0 1-.284-.51 1.963 1.963 0 0 1-.1-.636v-.064Zm.542.064c0 .156.018.306.056.448.037.141.092.265.166.372a.806.806 0 0 0 .68.349.783.783 0 0 0 .671-.349c.076-.107.133-.23.17-.372.037-.142.056-.292.056-.448v-.064c0-.155-.02-.302-.059-.443a1.135 1.135 0 0 0-.17-.375.817.817 0 0 0-.281-.255.77.77 0 0 0-.393-.096.77.77 0 0 0-.392.096.854.854 0 0 0-.282.255c-.074.108-.13.233-.166.375-.038.141-.056.288-.056.443v.064Zm4.564 1.17a.877.877 0 0 0 .285-.048.862.862 0 0 0 .248-.129.686.686 0 0 0 .173-.196.5.5 0 0 0 .07-.246h.513a.841.841 0 0 1-.11.404c-.071.127-.166.24-.285.337a1.5 1.5 0 0 1-.41.232 1.39 1.39 0 0 1-.484.085c-.24 0-.45-.043-.63-.13a1.327 1.327 0 0 1-.45-.345 1.527 1.527 0 0 1-.27-.504 1.99 1.99 0 0 1-.091-.603v-.123c0-.21.03-.41.09-.601.061-.191.151-.36.27-.504a1.31 1.31 0 0 1 .451-.349c.18-.085.39-.128.63-.128.188 0 .36.03.516.09.158.059.294.14.407.243a1.076 1.076 0 0 1 .366.815h-.512a.637.637 0 0 0-.065-.27.711.711 0 0 0-.407-.377.82.82 0 0 0-.305-.056.82.82 0 0 0-.425.102.808.808 0 0 0-.275.264c-.07.107-.121.229-.152.363-.03.135-.044.27-.044.407v.124c0 .138.015.276.044.413.031.134.08.257.15.366.07.107.161.195.275.264.115.066.257.1.427.1Zm4.486-.698a.58.58 0 0 0-.091-.331.764.764 0 0 0-.229-.226 1.44 1.44 0 0 0-.31-.155 7.878 7.878 0 0 0-.322-.111 5.005 5.005 0 0 1-.46-.176 2.05 2.05 0 0 1-.425-.252 1.308 1.308 0 0 1-.314-.352.933.933 0 0 1-.12-.48c0-.184.04-.348.12-.492.082-.145.189-.267.32-.367a1.644 1.644 0 0 1 .946-.305c.186 0 .364.032.536.094.172.061.324.147.457.258.133.112.24.246.32.405.08.158.121.335.125.53h-.556a1.166 1.166 0 0 0-.091-.334.763.763 0 0 0-.445-.428.917.917 0 0 0-.346-.061c-.104 0-.205.014-.305.044a.837.837 0 0 0-.264.132.683.683 0 0 0-.184.216.637.637 0 0 0-.067.3.546.546 0 0 0 .093.313c.06.084.137.155.229.213.094.059.194.108.302.147.109.039.212.073.307.102.106.034.212.072.32.115.107.04.21.089.31.143.1.055.193.117.278.185.086.068.162.146.226.234a1 1 0 0 1 .15.287c.036.104.055.22.055.346a.952.952 0 0 1-.129.501 1.149 1.149 0 0 1-.328.357 1.535 1.535 0 0 1-.457.214c-.17.047-.34.07-.51.07-.19 0-.375-.029-.556-.087a1.638 1.638 0 0 1-.49-.252 1.361 1.361 0 0 1-.348-.404 1.165 1.165 0 0 1-.144-.545h.554c.017.132.054.25.108.354a.886.886 0 0 0 .211.26c.086.071.185.125.296.162a1.275 1.275 0 0 0 .68.015.883.883 0 0 0 .275-.123.698.698 0 0 0 .197-.211.588.588 0 0 0 .076-.305Zm2.654-2.86v.768H46.5v.419h-1.207v1.723c0 .123.016.224.047.304.031.08.074.145.129.194.054.047.117.08.187.1a.87.87 0 0 0 .229.029 1.932 1.932 0 0 0 .363-.035l.167-.03c.053-.011.096-.021.129-.03l.076.385a.81.81 0 0 1-.164.073 1.88 1.88 0 0 1-.21.05 2.724 2.724 0 0 1-.495.047c-.142 0-.274-.02-.397-.059a.843.843 0 0 1-.316-.19.933.933 0 0 1-.214-.337 1.461 1.461 0 0 1-.076-.501v-1.723h-.832v-.419h.832v-.767h.545Zm2.168 2.324c0-.229.033-.44.1-.636a1.54 1.54 0 0 1 .284-.513c.125-.144.276-.258.454-.34.178-.084.378-.125.6-.125.225 0 .426.041.604.126.18.081.331.195.454.34.125.144.22.315.287.512.066.195.1.407.1.636v.064c0 .229-.034.44-.1.636a1.515 1.515 0 0 1-.287.51 1.299 1.299 0 0 1-.451.34 1.416 1.416 0 0 1-.6.123c-.225 0-.428-.041-.607-.123a1.329 1.329 0 0 1-.454-.34 1.546 1.546 0 0 1-.285-.51 1.963 1.963 0 0 1-.1-.636v-.064Zm.542.064c0 .156.019.306.056.448.037.141.092.265.167.372a.805.805 0 0 0 .68.349.783.783 0 0 0 .67-.349 1.14 1.14 0 0 0 .17-.372c.037-.142.056-.292.056-.448v-.064c0-.155-.02-.302-.059-.443a1.135 1.135 0 0 0-.17-.375.817.817 0 0 0-.281-.255.77.77 0 0 0-.393-.096.77.77 0 0 0-.392.096.854.854 0 0 0-.281.255c-.075.108-.13.233-.167.375-.037.141-.056.288-.056.443v.064Zm5.29-1.678a2.223 2.223 0 0 1 .314.02c.051.006.097.014.138.023.043.01.078.02.106.033l-.074.53a2.633 2.633 0 0 0-.301-.05 2.391 2.391 0 0 0-.296-.018c-.254 0-.46.058-.618.173a1.002 1.002 0 0 0-.346.484V52h-.545v-3.17h.516l.026.504c.129-.174.283-.31.463-.41.181-.102.387-.152.618-.152Zm2.928 3.287c-.223 0-.428-.038-.615-.115a1.395 1.395 0 0 1-.789-.805 1.65 1.65 0 0 1-.11-.613v-.123c0-.255.04-.484.122-.685.082-.203.19-.374.325-.513.137-.14.291-.248.463-.322.174-.074.352-.111.533-.111.229 0 .428.04.598.12.172.078.315.187.428.328.113.138.197.303.252.492.056.19.085.394.085.615v.243h-2.265c.006.145.033.28.082.407.05.128.12.239.205.335a.973.973 0 0 0 .715.304 1.102 1.102 0 0 0 .89-.428l.332.258a1.36 1.36 0 0 1-.472.425 1.647 1.647 0 0 1-.78.188Zm-.07-2.842c-.11 0-.214.02-.311.061a.781.781 0 0 0-.264.176.995.995 0 0 0-.199.284 1.36 1.36 0 0 0-.111.387h1.705v-.041a1.177 1.177 0 0 0-.062-.314.851.851 0 0 0-.15-.278.751.751 0 0 0-.609-.275Z"/><rect width="116" height="20" x="29" y="232" fill="#fff" rx="4"/><path fill="#111" d="M72.81 242.664a1.6 1.6 0 0 1-.14.58 1.344 1.344 0 0 1-.317.44 1.414 1.414 0 0 1-.474.281 1.841 1.841 0 0 1-.61.097c-.251 0-.475-.046-.67-.138a1.399 1.399 0 0 1-.493-.39 1.792 1.792 0 0 1-.304-.603 2.689 2.689 0 0 1-.106-.774v-.574c0-.283.037-.542.112-.776.074-.235.18-.436.316-.604.137-.168.302-.298.495-.39.195-.093.414-.14.656-.14.235 0 .443.033.624.099.184.067.34.162.47.285.128.123.23.273.304.451.074.178.12.378.14.6h-.82a1.35 1.35 0 0 0-.058-.334.603.603 0 0 0-.132-.237.51.51 0 0 0-.217-.143.845.845 0 0 0-.31-.05.642.642 0 0 0-.332.082.657.657 0 0 0-.234.24 1.24 1.24 0 0 0-.135.39c-.03.152-.044.326-.044.521v.58c0 .42.059.731.176.932.12.201.307.302.563.302.214 0 .384-.057.51-.17.124-.116.194-.301.207-.557h.824Zm.56-.278c0-.231.033-.444.1-.639.066-.197.163-.368.29-.513a1.37 1.37 0 0 1 .468-.339c.186-.083.398-.124.636-.124.239 0 .45.041.636.124.186.082.342.195.469.339.129.145.226.316.293.513.066.195.1.408.1.639v.061c0 .233-.034.448-.1.645a1.498 1.498 0 0 1-.29.51 1.335 1.335 0 0 1-.47.339c-.185.08-.396.121-.632.121-.238 0-.451-.041-.639-.121a1.364 1.364 0 0 1-.471-.339 1.497 1.497 0 0 1-.29-.51 2.008 2.008 0 0 1-.1-.645v-.061Zm.815.061c0 .133.012.258.038.375a.958.958 0 0 0 .12.305.624.624 0 0 0 .21.205.62.62 0 0 0 .317.076c.12 0 .222-.025.308-.076a.598.598 0 0 0 .208-.205.96.96 0 0 0 .12-.305c.025-.117.038-.242.038-.375v-.061a1.7 1.7 0 0 0-.038-.366.96.96 0 0 0-.12-.305.59.59 0 0 0-.208-.208.604.604 0 0 0-.314-.076.598.598 0 0 0-.31.076.615.615 0 0 0-.211.208.958.958 0 0 0-.12.305 1.694 1.694 0 0 0-.038.366v.061Zm3.638-1.617.05.44c.113-.159.251-.281.413-.367.162-.088.342-.132.54-.132.16 0 .306.024.439.071a.846.846 0 0 1 .342.225c.098.102.173.234.226.396.055.16.082.355.082.586V244h-.814v-1.939a.91.91 0 0 0-.044-.308.43.43 0 0 0-.12-.193.424.424 0 0 0-.19-.097.972.972 0 0 0-.253-.029.692.692 0 0 0-.354.085.64.64 0 0 0-.238.228V244h-.817v-3.17h.738Zm4.36-.776v.776h1.183v.601h-1.183v1.362a.95.95 0 0 0 .038.29.474.474 0 0 0 .114.185.433.433 0 0 0 .176.096c.07.02.148.03.234.03.063 0 .126-.003.19-.009a4.12 4.12 0 0 0 .188-.021c.06-.01.116-.019.167-.029.053-.01.098-.02.135-.029l.079.559a1.038 1.038 0 0 1-.2.088 2.07 2.07 0 0 1-.243.059 3.099 3.099 0 0 1-.269.035c-.092.01-.183.015-.273.015-.173 0-.332-.023-.474-.068a.967.967 0 0 1-.363-.214.974.974 0 0 1-.232-.369 1.578 1.578 0 0 1-.082-.539v-1.441h-.724v-.601h.724v-.776h.815Zm4.09 3.946a.706.706 0 0 1-.05-.135 1.778 1.778 0 0 1-.035-.161 1.061 1.061 0 0 1-.586.325 1.37 1.37 0 0 1-.727-.041 1.065 1.065 0 0 1-.349-.196.888.888 0 0 1-.31-.68c0-.334.124-.591.372-.773.25-.184.622-.276 1.116-.276h.454v-.187a.456.456 0 0 0-.15-.36c-.099-.09-.242-.135-.43-.135-.166 0-.287.036-.363.108a.369.369 0 0 0-.114.284h-.815c0-.134.03-.262.088-.383a.97.97 0 0 1 .26-.32c.116-.091.256-.164.42-.216.166-.055.355-.083.568-.083.192 0 .37.024.533.071.166.047.31.116.43.208a.958.958 0 0 1 .285.348c.069.139.103.3.103.484v1.359c0 .17.01.311.032.422.021.111.053.207.094.287v.05h-.827Zm-.777-.571a.866.866 0 0 0 .419-.106.59.59 0 0 0 .243-.228v-.545h-.416c-.127 0-.235.012-.325.038a.595.595 0 0 0-.22.102.393.393 0 0 0-.126.159.476.476 0 0 0-.04.199c0 .109.037.2.113.272.079.073.196.109.352.109Zm3.803-.021c.08 0 .156-.012.228-.035a.6.6 0 0 0 .19-.1.434.434 0 0 0 .168-.357h.767a.936.936 0 0 1-.102.457 1.1 1.1 0 0 1-.29.363 1.421 1.421 0 0 1-.43.241 1.569 1.569 0 0 1-.516.085c-.247 0-.462-.041-.648-.124a1.338 1.338 0 0 1-.466-.342 1.517 1.517 0 0 1-.281-.507 2.043 2.043 0 0 1-.094-.627v-.088c0-.223.031-.431.094-.624a1.347 1.347 0 0 1 .744-.853c.186-.084.4-.126.645-.126.195 0 .376.03.542.088.166.059.308.142.427.249.121.106.215.235.282.387.066.151.097.319.093.507h-.767a.537.537 0 0 0-.035-.223.494.494 0 0 0-.12-.181.567.567 0 0 0-.19-.12.608.608 0 0 0-.244-.047.588.588 0 0 0-.32.079.592.592 0 0 0-.202.211 1.002 1.002 0 0 0-.105.301c-.02.114-.03.231-.03.352v.088c0 .123.01.242.03.357.02.114.054.214.103.302.05.086.118.155.202.208a.61.61 0 0 0 .325.079Zm3.694-3.354v.776h1.184v.601h-1.184v1.362c0 .115.013.212.038.29a.477.477 0 0 0 .114.185.433.433 0 0 0 .176.096c.07.02.149.03.235.03.062 0 .126-.003.19-.009.067-.006.129-.013.188-.021.06-.01.116-.019.167-.029.052-.01.097-.02.134-.029l.08.559a1.041 1.041 0 0 1-.2.088 2.069 2.069 0 0 1-.243.059 3.1 3.1 0 0 1-.27.035c-.091.01-.182.015-.272.015a1.57 1.57 0 0 1-.474-.068.966.966 0 0 1-.364-.214.974.974 0 0 1-.231-.369 1.58 1.58 0 0 1-.082-.539v-1.441h-.724v-.601h.724v-.776h.814Zm8.526-.32.002 2.828c0 .238-.033.45-.099.635a1.266 1.266 0 0 1-.284.472 1.201 1.201 0 0 1-.454.29c-.178.066-.381.1-.61.1-.215 0-.409-.034-.583-.1a1.214 1.214 0 0 1-.442-.29 1.316 1.316 0 0 1-.287-.469c-.067-.187-.1-.4-.1-.638l.003-2.828h.823l.003 2.828c.002.275.052.483.15.624.1.14.244.21.433.21.201 0 .355-.07.46-.21.108-.141.162-.349.164-.624l.003-2.828h.818Zm2.835 3.396a.231.231 0 0 0-.035-.129.293.293 0 0 0-.12-.103 1 1 0 0 0-.228-.09 3.773 3.773 0 0 0-.364-.082 3.78 3.78 0 0 1-.509-.138 1.68 1.68 0 0 1-.393-.202.96.96 0 0 1-.258-.276.697.697 0 0 1-.091-.357c0-.131.032-.256.094-.375a.966.966 0 0 1 .27-.314c.117-.089.259-.161.427-.213a1.89 1.89 0 0 1 .569-.08c.221 0 .419.027.595.08.175.05.324.122.445.213.123.09.217.198.281.323.065.125.097.26.097.407h-.815a.382.382 0 0 0-.149-.308c-.1-.084-.251-.126-.454-.126-.19 0-.333.035-.431.103-.096.068-.143.152-.143.252 0 .047.009.091.029.132a.295.295 0 0 0 .102.108c.051.031.12.061.206.088.085.025.195.048.328.067.191.032.369.072.533.12.164.049.306.113.425.191.119.076.212.17.278.281a.73.73 0 0 1 .103.393c0 .14-.035.27-.103.389a.912.912 0 0 1-.287.305 1.468 1.468 0 0 1-.448.202 2.28 2.28 0 0 1-.589.071c-.239 0-.449-.032-.633-.094a1.509 1.509 0 0 1-.457-.243 1.076 1.076 0 0 1-.281-.343.874.874 0 0 1-.094-.387h.776a.46.46 0 0 0 .071.223c.041.06.093.11.158.149a.728.728 0 0 0 .22.082c.083.018.169.027.257.027.202 0 .355-.033.46-.097.106-.065.158-.148.158-.249Z"/><path stroke="#fff" stroke-linecap="round" stroke-linejoin="round" d="M135 50h8M135 47h8M135 53h8"/><path stroke="#5593E9" d="M15.5 21.5h143v255h-143z"/><path fill="#5593E9" d="M15 0h56v22H15z"/><path fill="#fff" d="m23.475 8.66.035.668c.125-.246.293-.437.504-.574.21-.14.465-.211.761-.211.27 0 .493.055.668.164.18.105.315.272.405.498.125-.203.285-.363.48-.48a1.32 1.32 0 0 1 .71-.182c.206 0 .396.035.567.105.176.067.325.174.446.323.125.148.22.338.287.568.07.23.105.508.105.832V15h-1.3v-4.64c0-.255-.055-.428-.165-.522a.58.58 0 0 0-.41-.147.576.576 0 0 0-.586.416V15h-1.271v-4.64c0-.247-.05-.419-.152-.516a.535.535 0 0 0-.405-.153.631.631 0 0 0-.386.106.676.676 0 0 0-.217.287V15H22.25V8.66h1.225Zm6.14 3.111c0-.457.067-.882.2-1.277a3.1 3.1 0 0 1 .58-1.025c.253-.29.562-.516.925-.68a2.973 2.973 0 0 1 1.237-.246c.465 0 .878.082 1.242.246.367.164.676.39.926.68.253.289.447.63.58 1.025.133.395.199.82.199 1.277v.123c0 .461-.066.89-.2 1.284a2.968 2.968 0 0 1-.58 1.025c-.25.285-.556.51-.92.674a2.974 2.974 0 0 1-1.236.246 3.03 3.03 0 0 1-1.248-.246 2.723 2.723 0 0 1-.925-.674 3.098 3.098 0 0 1-.58-1.025 3.995 3.995 0 0 1-.2-1.284v-.123Zm1.4.123c0 .29.03.561.088.815.063.254.157.479.282.674.129.191.29.344.486.457.195.11.428.164.697.164.262 0 .489-.055.68-.164.195-.113.355-.266.48-.457.13-.195.223-.42.282-.674a3.4 3.4 0 0 0 .093-.814v-.123c0-.282-.03-.55-.093-.803a1.98 1.98 0 0 0-.282-.668 1.334 1.334 0 0 0-1.172-.627c-.265 0-.495.056-.69.17a1.415 1.415 0 0 0-.481.457 2.151 2.151 0 0 0-.282.668 3.56 3.56 0 0 0-.087.803v.123Zm11.637.006c0 .47-.054.9-.164 1.295-.105.39-.263.729-.474 1.014-.211.285-.471.508-.78.668-.308.16-.664.24-1.066.24-.387 0-.723-.068-1.008-.205a2.07 2.07 0 0 1-.726-.592l-.065.68h-1.271V6h1.4v3.264c.2-.23.434-.409.703-.534.27-.125.588-.187.955-.187.407 0 .764.08 1.072.24.313.156.575.377.786.662.21.285.369.627.474 1.026.11.394.164.83.164 1.306v.123Zm-1.4-.123c0-.28-.025-.546-.076-.796a2.021 2.021 0 0 0-.24-.668 1.204 1.204 0 0 0-.446-.452 1.315 1.315 0 0 0-.691-.17c-.332 0-.604.077-.815.229a1.492 1.492 0 0 0-.486.598v2.619c.113.246.275.447.486.603.215.156.49.235.826.235.266 0 .49-.053.674-.159a1.28 1.28 0 0 0 .446-.445c.113-.187.195-.406.246-.656.05-.254.076-.525.076-.815v-.123Zm3.34-3.117h3.38v5.18h1.881V15h-5.261v-1.16h1.968V9.826h-1.968V8.66Zm1.851-1.64a.73.73 0 0 1 .211-.54c.14-.144.338-.216.592-.216.258 0 .457.072.598.216a.72.72 0 0 1 .216.54c0 .218-.072.4-.216.544-.14.141-.34.211-.598.211-.254 0-.451-.07-.592-.21a.75.75 0 0 1-.21-.545ZM51.752 6h3.428v7.84h1.933V15h-5.361v-1.16h2.016V7.166h-2.016V6Zm9.902 9.117c-.469 0-.896-.078-1.283-.234a3.002 3.002 0 0 1-.996-.645 2.92 2.92 0 0 1-.639-.966 3.193 3.193 0 0 1-.228-1.213v-.24c0-.505.08-.958.24-1.36.164-.402.38-.746.65-1.031.274-.285.59-.504.95-.657a2.925 2.925 0 0 1 1.142-.228c.461 0 .867.078 1.219.234.351.153.644.37.879.65.238.278.418.608.539.991.121.383.182.803.182 1.26v.591h-4.395c.023.247.084.475.182.686a1.9 1.9 0 0 0 .38.55c.16.153.346.274.557.364.215.086.45.129.703.129.356 0 .682-.07.979-.21.3-.142.545-.335.732-.581l.762.715c-.102.152-.232.3-.393.445a2.89 2.89 0 0 1-.562.381c-.215.11-.457.197-.727.264-.265.07-.556.105-.873.105Zm-.17-5.443a1.354 1.354 0 0 0-.996.416 1.776 1.776 0 0 0-.34.492c-.09.191-.154.41-.193.656h2.97v-.105a1.918 1.918 0 0 0-.11-.54 1.386 1.386 0 0 0-.264-.468 1.272 1.272 0 0 0-.446-.328 1.456 1.456 0 0 0-.62-.123Z"/><defs><linearGradient id="b" x1="98" x2="98" y1="67" y2="109" gradientUnits="userSpaceOnUse"><stop stop-color="#5593E9"/><stop offset="1" stop-color="#8347DE"/></linearGradient><linearGradient id="d" x1="71" x2="71" y1="195" y2="237" gradientUnits="userSpaceOnUse"><stop stop-color="#FF6B75"/><stop offset="1" stop-color="#8347DE"/></linearGradient><linearGradient id="e" x1="56.147" x2="87.607" y1="112.143" y2="116.2" gradientUnits="userSpaceOnUse"><stop stop-color="#5593E9"/><stop offset="1" stop-color="#FF6B75"/></linearGradient><filter id="a" width="142" height="142" x="27" y="17" color-interpolation-filters="sRGB" filterUnits="userSpaceOnUse"><feFlood flood-opacity="0" result="BackgroundImageFix"/><feBlend in="SourceGraphic" in2="BackgroundImageFix" result="shape"/><feGaussianBlur result="effect1_foregroundBlur_704_2821" stdDeviation="25"/></filter><filter id="c" width="142" height="142" x="0" y="145" color-interpolation-filters="sRGB" filterUnits="userSpaceOnUse"><feFlood flood-opacity="0" result="BackgroundImageFix"/><feBlend in="SourceGraphic" in2="BackgroundImageFix" result="shape"/><feGaussianBlur result="effect1_foregroundBlur_704_2821" stdDeviation="25"/></filter></defs></svg>