<svg xmlns="http://www.w3.org/2000/svg" width="439" height="262" fill="none"><rect width="434" height="237" x="4.5" y="9.5" fill="#171717" stroke="#292929" rx="7.5"/><path fill="url(#a)" d="M42.93 119.031c0-.203-.037-.393-.11-.57a1.26 1.26 0 0 0-.36-.492 2.412 2.412 0 0 0-.663-.422c-.271-.13-.61-.25-1.016-.359a9.87 9.87 0 0 1-1.422-.508 5.17 5.17 0 0 1-1.187-.735 3.437 3.437 0 0 1-.828-1c-.203-.38-.305-.817-.305-1.312 0-.479.102-.914.305-1.305.203-.39.484-.724.843-1 .36-.276.784-.487 1.274-.633a5.384 5.384 0 0 1 1.594-.226c.593 0 1.135.086 1.625.258.495.171.919.414 1.273.726a3.251 3.251 0 0 1 1.125 2.508h-2.14a2.162 2.162 0 0 0-.141-.703 1.389 1.389 0 0 0-.36-.547 1.538 1.538 0 0 0-.593-.359 2.33 2.33 0 0 0-.828-.133c-.292 0-.552.036-.782.109a1.61 1.61 0 0 0-.57.297 1.262 1.262 0 0 0-.36.453c-.077.172-.117.36-.117.563 0 .213.053.406.157.578.11.172.265.328.468.469a4 4 0 0 0 .735.374c.292.115.62.222.984.321.521.151 1 .336 1.438.555.437.218.812.479 1.125.781.317.297.562.638.734 1.023.177.38.266.805.266 1.274 0 .5-.102.945-.305 1.336a2.894 2.894 0 0 1-.828.984 3.844 3.844 0 0 1-1.266.609 5.969 5.969 0 0 1-1.601.203c-.36 0-.719-.033-1.078-.101a4.97 4.97 0 0 1-1.024-.297 4.532 4.532 0 0 1-.906-.508 3.516 3.516 0 0 1-.734-.711 3.374 3.374 0 0 1-.485-.922 3.586 3.586 0 0 1-.172-1.14h2.157c.01.343.07.638.18.883.109.244.26.445.452.601.198.156.433.271.703.344.277.073.579.109.907.109.291 0 .55-.034.773-.101.23-.068.422-.162.578-.282.157-.119.276-.263.36-.429.083-.172.125-.36.125-.563Zm9.172 1.781a3.251 3.251 0 0 1-1.04.993 2.532 2.532 0 0 1-1.32.359 3.44 3.44 0 0 1-1.203-.203 2.317 2.317 0 0 1-.937-.641c-.26-.297-.464-.672-.61-1.125-.14-.458-.21-1.007-.21-1.648v-5h2.171v5.015c0 .344.024.633.07.868.052.234.133.424.243.57a.92.92 0 0 0 .43.305c.176.062.393.093.648.093.432 0 .784-.08 1.054-.242.271-.166.477-.393.618-.679v-5.93h2.18V122h-1.97l-.124-1.188Zm11.812-2.96c0 .614-.073 1.184-.219 1.71-.14.527-.351.982-.633 1.368-.276.38-.62.679-1.03.898-.412.219-.884.328-1.415.328-.453 0-.851-.078-1.195-.234a2.722 2.722 0 0 1-.899-.656v3.984h-2.171v-11.703h2.007l.078.828c.26-.313.568-.555.922-.727.355-.171.769-.257 1.243-.257.536 0 1.01.104 1.421.312.412.203.758.495 1.04.875a3.9 3.9 0 0 1 .632 1.36c.146.526.22 1.109.22 1.75v.164Zm-2.172-.164c0-.355-.034-.685-.101-.993a2.377 2.377 0 0 0-.305-.804 1.498 1.498 0 0 0-.531-.539c-.214-.131-.474-.196-.782-.196-.38 0-.692.076-.937.227-.24.146-.427.354-.563.625v3.531c.136.266.323.479.563.641.245.156.562.234.953.234.307 0 .568-.068.781-.203.22-.135.396-.32.532-.555.135-.234.234-.505.296-.812.063-.313.094-.643.094-.992v-.164Zm8.29 4.468a4.727 4.727 0 0 1-1.774-.32 4.246 4.246 0 0 1-1.367-.867 3.902 3.902 0 0 1-.883-1.297 4.216 4.216 0 0 1-.305-1.602v-.312c0-.646.102-1.235.305-1.766.203-.536.487-.997.851-1.383a3.837 3.837 0 0 1 1.297-.898c.5-.214 1.044-.32 1.633-.32.61 0 1.151.101 1.625.304.48.198.883.479 1.211.844.333.365.586.805.758 1.32.172.511.258 1.076.258 1.696v.922h-5.735c.042.286.125.549.25.789.13.234.294.437.492.609s.425.305.68.398c.255.094.534.141.836.141a3.336 3.336 0 0 0 1.242-.242c.193-.083.373-.185.54-.305.166-.12.312-.26.437-.422l1.086 1.172a3.157 3.157 0 0 1-.531.571 3.67 3.67 0 0 1-.766.492c-.292.14-.617.255-.977.343-.36.089-.747.133-1.164.133Zm-.259-7.008a1.672 1.672 0 0 0-1.21.5 2.205 2.205 0 0 0-.383.579 3.164 3.164 0 0 0-.235.75h3.563v-.172a2.058 2.058 0 0 0-.133-.649 1.502 1.502 0 0 0-.875-.875 1.855 1.855 0 0 0-.727-.133Zm11.836-1.757c.329 0 .63.023.907.07.28.042.507.088.68.141l-.321 2.164a6.844 6.844 0 0 0-.883-.149 7.09 7.09 0 0 0-.851-.055c-.61 0-1.1.118-1.47.352-.364.234-.637.57-.82 1.008V122H76.68v-8.453h2.023l.102 1.383a3.84 3.84 0 0 1 1.234-1.125 3.091 3.091 0 0 1 1.57-.414Zm7.282 7.031c.213 0 .416-.031.609-.094.193-.062.362-.151.508-.266a1.16 1.16 0 0 0 .336-.414c.083-.161.12-.341.11-.539H92.5c.01.438-.08.844-.273 1.219a2.965 2.965 0 0 1-.774.969c-.328.271-.71.484-1.148.641a4.14 4.14 0 0 1-1.375.226c-.657 0-1.232-.109-1.727-.328a3.56 3.56 0 0 1-1.242-.914 4.027 4.027 0 0 1-.75-1.352 5.457 5.457 0 0 1-.25-1.672v-.234c0-.594.083-1.148.25-1.664.167-.521.417-.974.75-1.359.333-.386.745-.69 1.234-.914.495-.224 1.068-.336 1.72-.336.52 0 1.002.078 1.444.234.443.156.823.378 1.141.664.323.281.573.625.75 1.031.177.401.26.852.25 1.352h-2.047c.01-.208-.02-.406-.094-.594a1.334 1.334 0 0 0-.32-.484 1.541 1.541 0 0 0-.508-.321 1.66 1.66 0 0 0-.648-.125c-.344 0-.628.071-.852.211a1.603 1.603 0 0 0-.539.563 2.66 2.66 0 0 0-.281.805 5.51 5.51 0 0 0-.078.937v.234c0 .329.026.646.078.954.052.302.143.57.273.804.136.229.316.414.54.555.229.141.518.211.867.211Zm8.039-5.711a3.178 3.178 0 0 1 1.023-.969c.406-.234.86-.351 1.36-.351.442 0 .848.067 1.218.203.37.13.688.336.953.617.266.281.472.643.618 1.086.151.437.226.966.226 1.586V122h-2.172v-5.133a2.33 2.33 0 0 0-.117-.781 1.281 1.281 0 0 0-.32-.531 1.26 1.26 0 0 0-.508-.297 2.06 2.06 0 0 0-.672-.102c-.365 0-.682.065-.953.196-.266.13-.484.312-.656.546V122h-2.172v-12h2.172v4.711ZM109.648 122a1.897 1.897 0 0 1-.132-.359 4.63 4.63 0 0 1-.094-.43 2.989 2.989 0 0 1-.938.672 3.034 3.034 0 0 1-.625.195 3.345 3.345 0 0 1-.742.078c-.432 0-.831-.062-1.195-.187a2.84 2.84 0 0 1-.93-.524 2.395 2.395 0 0 1-.609-.797 2.367 2.367 0 0 1-.219-1.015c0-.891.331-1.578.992-2.063.667-.489 1.659-.734 2.977-.734h1.211v-.5c0-.406-.133-.727-.399-.961-.265-.24-.648-.359-1.148-.359-.443 0-.766.096-.969.289-.203.187-.305.44-.305.757h-2.171c0-.359.078-.7.234-1.023.161-.323.393-.607.695-.851.308-.245.68-.438 1.117-.579a4.865 4.865 0 0 1 1.516-.218c.51 0 .984.062 1.422.187.443.125.825.31 1.148.555.323.245.576.555.758.929.182.37.274.8.274 1.29v3.625c0 .453.028.828.086 1.125.057.296.14.552.25.765V122h-2.204Zm-2.07-1.523a2.313 2.313 0 0 0 1.117-.282c.151-.083.282-.177.391-.281.109-.109.195-.219.258-.328v-1.453h-1.11c-.338 0-.627.034-.867.101a1.58 1.58 0 0 0-.586.274 1.049 1.049 0 0 0-.336.422 1.27 1.27 0 0 0-.109.531c0 .292.102.534.305.727.208.192.52.289.937.289Zm12.469-7.086c.328 0 .63.023.906.07.281.042.508.088.68.141l-.321 2.164a6.82 6.82 0 0 0-.882-.149 7.096 7.096 0 0 0-.852-.055c-.609 0-1.099.118-1.469.352-.364.234-.638.57-.82 1.008V122h-2.172v-8.453h2.024l.101 1.383a3.836 3.836 0 0 1 1.235-1.125 3.089 3.089 0 0 1 1.57-.414Zm3.32 4.32c0-.641.078-1.227.235-1.758.161-.531.39-.987.687-1.367.297-.38.656-.675 1.078-.883a3.193 3.193 0 0 1 1.43-.312c.495 0 .919.083 1.273.25.354.166.657.403.907.711l.085-.805h1.977v8.18c0 .572-.099 1.083-.297 1.531a3.108 3.108 0 0 1-.82 1.133 3.466 3.466 0 0 1-1.266.695 5.176 5.176 0 0 1-1.625.242c-.255 0-.528-.026-.82-.078a4.79 4.79 0 0 1-.867-.242 4.022 4.022 0 0 1-.813-.422 2.675 2.675 0 0 1-.656-.602l.977-1.32c.276.313.588.55.937.711.349.167.727.25 1.133.25.609 0 1.083-.164 1.422-.492.344-.323.515-.784.515-1.383v-.484c-.255.281-.554.5-.898.656a2.795 2.795 0 0 1-1.18.234c-.526 0-1-.107-1.422-.32a3.292 3.292 0 0 1-1.07-.898 4.182 4.182 0 0 1-.687-1.352 5.957 5.957 0 0 1-.235-1.711v-.164Zm2.18.164c0 .354.034.685.101.992.073.302.183.568.329.797.145.224.33.401.554.531.224.131.49.196.797.196.38 0 .693-.073.938-.219.25-.146.448-.349.593-.61v-3.578a1.52 1.52 0 0 0-.593-.609c-.245-.146-.552-.219-.922-.219-.308 0-.573.068-.797.203a1.67 1.67 0 0 0-.563.547c-.145.229-.255.5-.328.813a4.284 4.284 0 0 0-.109.992v.164Zm11.75 4.281a4.732 4.732 0 0 1-1.774-.32 4.245 4.245 0 0 1-1.367-.867 3.916 3.916 0 0 1-.883-1.297 4.217 4.217 0 0 1-.304-1.602v-.312c0-.646.101-1.235.304-1.766.204-.536.487-.997.852-1.383a3.841 3.841 0 0 1 1.297-.898c.5-.214 1.044-.32 1.633-.32.609 0 1.151.101 1.625.304.479.198.882.479 1.211.844.333.365.586.805.757 1.32a5.29 5.29 0 0 1 .258 1.696v.922h-5.734c.042.286.125.549.25.789.13.234.294.437.492.609s.425.305.68.398a2.4 2.4 0 0 0 .836.141 3.339 3.339 0 0 0 1.242-.242c.193-.083.372-.185.539-.305.167-.12.312-.26.437-.422l1.086 1.172a3.126 3.126 0 0 1-.531.571 3.676 3.676 0 0 1-.765.492c-.292.14-.618.255-.977.343a4.829 4.829 0 0 1-1.164.133Zm-.258-7.008a1.672 1.672 0 0 0-1.211.5 2.2 2.2 0 0 0-.383.579 3.168 3.168 0 0 0-.234.75h3.562v-.172a2.049 2.049 0 0 0-.132-.649 1.506 1.506 0 0 0-.875-.875 1.86 1.86 0 0 0-.727-.133Z"/><path fill="#fff" d="m156.016 118.453.25.906 2.25-5.812h2.398l-4.289 9.719a6.202 6.202 0 0 1-.367.695c-.146.25-.331.482-.555.695a2.904 2.904 0 0 1-.82.539c-.318.146-.695.219-1.133.219-.104 0-.201-.005-.289-.016a1.936 1.936 0 0 1-.258-.031 1.997 1.997 0 0 1-.25-.047 3.366 3.366 0 0 1-.258-.062l.266-1.656c.088 0 .2.002.336.007.141.011.252.016.336.016a.704.704 0 0 0 .453-.156c.135-.104.25-.219.344-.344.093-.125.169-.24.226-.344.058-.104.097-.156.117-.156l.524-.984-3.578-8.094h2.375l1.922 4.906Zm5.711-.758c0-.614.088-1.182.265-1.703.177-.526.435-.982.774-1.367.343-.385.76-.687 1.25-.906.494-.219 1.06-.328 1.695-.328s1.2.109 1.695.328c.495.219.912.521 1.25.906a3.9 3.9 0 0 1 .782 1.367c.177.521.265 1.089.265 1.703v.164a5.36 5.36 0 0 1-.265 1.719 3.986 3.986 0 0 1-.774 1.36 3.549 3.549 0 0 1-1.25.906c-.495.213-1.057.32-1.687.32-.636 0-1.204-.107-1.704-.32a3.63 3.63 0 0 1-1.257-.906 3.97 3.97 0 0 1-.774-1.36 5.36 5.36 0 0 1-.265-1.719v-.164Zm2.171.164c0 .355.034.688.102 1 .068.308.174.579.32.813.146.229.334.411.563.547.234.135.515.203.844.203.317 0 .591-.068.82-.203.229-.136.414-.318.555-.547.145-.234.252-.505.32-.813.068-.312.101-.645.101-1v-.164a4.51 4.51 0 0 0-.101-.976 2.602 2.602 0 0 0-.32-.813 1.575 1.575 0 0 0-.555-.554c-.229-.136-.508-.204-.836-.204-.323 0-.599.068-.828.204-.229.135-.417.32-.563.554a2.578 2.578 0 0 0-.32.813 4.509 4.509 0 0 0-.102.976v.164Zm13.125 2.953a3.239 3.239 0 0 1-1.039.993 2.531 2.531 0 0 1-1.32.359c-.437 0-.838-.068-1.203-.203a2.32 2.32 0 0 1-.938-.641c-.26-.297-.463-.672-.609-1.125-.141-.458-.211-1.007-.211-1.648v-5h2.172v5.015c0 .344.023.633.07.868.052.234.133.424.243.57a.916.916 0 0 0 .429.305c.177.062.393.093.649.093.432 0 .783-.08 1.054-.242.271-.166.477-.393.618-.679v-5.93h2.179V122h-1.969l-.125-1.188Zm10.289-7.421c.329 0 .631.023.907.07.281.042.508.088.679.141l-.32 2.164a6.835 6.835 0 0 0-.883-.149 7.08 7.08 0 0 0-.851-.055c-.61 0-1.099.118-1.469.352-.365.234-.638.57-.82 1.008V122h-2.172v-8.453h2.023l.102 1.383a3.844 3.844 0 0 1 1.234-1.125 3.092 3.092 0 0 1 1.57-.414ZM44.719 138.859c0 .631-.07 1.209-.211 1.735a3.97 3.97 0 0 1-.617 1.359c-.276.38-.62.677-1.032.891-.411.208-.89.312-1.437.312-.495 0-.925-.091-1.29-.273a2.845 2.845 0 0 1-.929-.781l-.101.898h-1.954v-12h2.172v4.312c.25-.291.545-.518.883-.679.344-.162.745-.242 1.203-.242.552 0 1.034.106 1.446.32.416.213.763.51 1.039.891.276.38.481.836.617 1.367a6.67 6.67 0 0 1 .21 1.726v.164Zm-2.172-.164c0-.343-.026-.669-.078-.976a2.439 2.439 0 0 0-.274-.805 1.439 1.439 0 0 0-.515-.555c-.22-.135-.492-.203-.82-.203-.396 0-.72.084-.97.25a1.653 1.653 0 0 0-.57.688v3.367c.136.292.326.521.57.687.25.167.579.25.985.25.328 0 .599-.062.813-.187a1.42 1.42 0 0 0 .507-.531c.13-.229.222-.498.274-.805.052-.313.078-.651.078-1.016v-.164Zm9.555 3.117a3.251 3.251 0 0 1-1.04.993 2.532 2.532 0 0 1-1.32.359 3.44 3.44 0 0 1-1.203-.203 2.317 2.317 0 0 1-.937-.641c-.26-.297-.464-.672-.61-1.125-.14-.458-.21-1.007-.21-1.648v-5h2.171v5.015c0 .344.024.633.07.868.052.234.133.424.243.57a.92.92 0 0 0 .43.305c.176.062.393.093.648.093.432 0 .784-.08 1.054-.242.271-.166.477-.393.618-.679v-5.93h2.18V143h-1.97l-.124-1.188Zm9.671-1.132a.629.629 0 0 0-.093-.344c-.058-.099-.164-.19-.32-.274a2.717 2.717 0 0 0-.61-.242 10.599 10.599 0 0 0-.969-.218 9.846 9.846 0 0 1-1.36-.368 4.452 4.452 0 0 1-1.046-.539 2.533 2.533 0 0 1-.688-.734 1.853 1.853 0 0 1-.242-.953c0-.349.084-.682.25-1a2.53 2.53 0 0 1 .72-.836c.312-.24.692-.43 1.14-.57a5.04 5.04 0 0 1 1.515-.211c.589 0 1.117.07 1.586.211.469.135.865.325 1.188.57.328.239.578.526.75.859.172.334.258.696.258 1.086H61.68a1.02 1.02 0 0 0-.399-.82c-.265-.224-.669-.336-1.21-.336-.506 0-.889.091-1.15.273-.254.183-.382.407-.382.672a.81.81 0 0 0 .078.352c.052.104.143.2.274.289.135.083.317.161.547.234.229.068.52.128.874.18.51.083.985.19 1.422.32.438.13.816.3 1.133.508.318.203.565.453.742.75.183.292.274.641.274 1.047 0 .375-.091.721-.274 1.039a2.466 2.466 0 0 1-.765.813 3.914 3.914 0 0 1-1.196.539 6.096 6.096 0 0 1-1.57.187c-.635 0-1.198-.083-1.687-.25a3.992 3.992 0 0 1-1.22-.648 2.882 2.882 0 0 1-.75-.914 2.348 2.348 0 0 1-.25-1.032h2.071c.016.229.078.427.188.594.11.162.25.294.422.398.171.099.367.172.586.219.223.047.453.071.687.071.536 0 .945-.086 1.227-.258.28-.172.421-.393.421-.664Zm4.735-6.133h4.601v6.687h2.29V143h-6.891v-1.766h2.406v-4.914h-2.406v-1.773Zm2.25-2.164c0-.167.029-.321.086-.461.062-.146.148-.268.258-.367.109-.104.24-.185.39-.243.156-.057.328-.085.516-.085.385 0 .69.109.914.328.229.213.344.489.344.828 0 .338-.115.617-.344.836-.224.213-.529.32-.914.32-.188 0-.36-.029-.516-.086a1.212 1.212 0 0 1-.39-.234 1.145 1.145 0 0 1-.258-.367 1.275 1.275 0 0 1-.086-.469Zm8.75 2.164.133 1.172c.302-.422.669-.748 1.101-.977a2.97 2.97 0 0 1 1.438-.351 3.5 3.5 0 0 1 1.172.187c.354.125.658.326.914.602.26.271.46.622.601 1.054.146.427.219.948.219 1.563V143h-2.172v-5.172c0-.333-.039-.607-.117-.82a1.165 1.165 0 0 0-.32-.516 1.15 1.15 0 0 0-.508-.258 2.65 2.65 0 0 0-.672-.078c-.37 0-.685.076-.945.227-.26.146-.472.349-.633.609V143h-2.18v-8.453h1.969Zm11.742 8.609a4.726 4.726 0 0 1-1.773-.32 4.245 4.245 0 0 1-1.368-.867 3.902 3.902 0 0 1-.882-1.297 4.214 4.214 0 0 1-.305-1.602v-.312c0-.646.101-1.235.305-1.766.203-.536.486-.997.851-1.383a3.837 3.837 0 0 1 1.297-.898c.5-.214 1.044-.32 1.633-.32.61 0 1.15.101 1.625.304.479.198.883.479 1.21.844.334.365.587.805.759 1.32.171.511.257 1.076.257 1.696v.922h-5.734c.042.286.125.549.25.789.13.234.294.437.492.609s.425.305.68.398a2.4 2.4 0 0 0 .836.141 3.335 3.335 0 0 0 1.242-.242 2.85 2.85 0 0 0 .54-.305c.166-.12.312-.26.437-.422l1.085 1.172a3.15 3.15 0 0 1-.53.571 3.67 3.67 0 0 1-.766.492c-.292.14-.618.255-.977.343-.36.089-.747.133-1.164.133Zm-.258-7.008a1.673 1.673 0 0 0-1.21.5 2.205 2.205 0 0 0-.384.579 3.164 3.164 0 0 0-.234.75h3.563v-.172a2.06 2.06 0 0 0-.133-.649 1.5 1.5 0 0 0-.875-.875 1.856 1.856 0 0 0-.727-.133Zm11.219 4.532a.625.625 0 0 0-.094-.344c-.057-.099-.164-.19-.32-.274a2.717 2.717 0 0 0-.61-.242 10.603 10.603 0 0 0-.968-.218 9.844 9.844 0 0 1-1.36-.368 4.452 4.452 0 0 1-1.046-.539 2.533 2.533 0 0 1-.688-.734 1.853 1.853 0 0 1-.242-.953c0-.349.083-.682.25-1a2.53 2.53 0 0 1 .719-.836c.312-.24.692-.43 1.14-.57a5.04 5.04 0 0 1 1.516-.211c.588 0 1.117.07 1.586.211.468.135.864.325 1.187.57.328.239.578.526.75.859.172.334.258.696.258 1.086h-2.172a1.02 1.02 0 0 0-.398-.82c-.266-.224-.67-.336-1.211-.336-.505 0-.888.091-1.149.273-.255.183-.382.407-.382.672a.81.81 0 0 0 .078.352c.052.104.143.2.273.289.135.083.318.161.547.234.23.068.52.128.875.18.51.083.984.19 1.422.32.437.13.815.3 1.133.508.317.203.565.453.742.75.182.292.273.641.273 1.047 0 .375-.091.721-.273 1.039a2.46 2.46 0 0 1-.766.813 3.907 3.907 0 0 1-1.195.539 6.097 6.097 0 0 1-1.57.187c-.636 0-1.198-.083-1.688-.25a3.993 3.993 0 0 1-1.219-.648 2.88 2.88 0 0 1-.75-.914 2.348 2.348 0 0 1-.25-1.032h2.07c.016.229.079.427.188.594.11.162.25.294.422.398.172.099.367.172.586.219.224.047.453.071.688.071.536 0 .945-.086 1.226-.258.281-.172.422-.393.422-.664Zm9.609 0a.633.633 0 0 0-.093-.344c-.058-.099-.165-.19-.321-.274a2.715 2.715 0 0 0-.609-.242 10.566 10.566 0 0 0-.969-.218 9.815 9.815 0 0 1-1.359-.368 4.445 4.445 0 0 1-1.047-.539 2.535 2.535 0 0 1-.688-.734 1.857 1.857 0 0 1-.242-.953c0-.349.084-.682.25-1 .167-.318.406-.597.719-.836a3.63 3.63 0 0 1 1.141-.57 5.034 5.034 0 0 1 1.515-.211c.589 0 1.117.07 1.586.211.469.135.865.325 1.188.57.328.239.578.526.75.859.171.334.257.696.257 1.086h-2.171a1.02 1.02 0 0 0-.399-.82c-.266-.224-.669-.336-1.211-.336-.505 0-.888.091-1.148.273-.255.183-.383.407-.383.672 0 .125.026.242.078.352a.79.79 0 0 0 .274.289c.135.083.317.161.546.234.23.068.521.128.875.18.511.083.985.19 1.422.32.438.13.815.3 1.133.508.318.203.565.453.742.75.183.292.274.641.274 1.047 0 .375-.091.721-.274 1.039a2.466 2.466 0 0 1-.765.813 3.924 3.924 0 0 1-1.196.539 6.09 6.09 0 0 1-1.57.187c-.635 0-1.198-.083-1.687-.25a3.985 3.985 0 0 1-1.219-.648 2.885 2.885 0 0 1-.75-.914 2.344 2.344 0 0 1-.25-1.032h2.07c.016.229.078.427.188.594.109.162.25.294.421.398.172.099.368.172.586.219.224.047.454.071.688.071.536 0 .945-.086 1.226-.258.282-.172.422-.393.422-.664Zm19.172-.328.735-5.805h1.992L130.203 143h-1.906l-1.109-5.375-1.071 5.375h-1.906l-1.516-8.453h1.985l.734 5.828 1.063-5.828h1.453l1.062 5.805Zm4.781-5.805h4.602v6.687h2.289V143h-6.891v-1.766h2.407v-4.914h-2.407v-1.773Zm2.25-2.164c0-.167.029-.321.086-.461a1.05 1.05 0 0 1 .258-.367c.11-.104.24-.185.391-.243.156-.057.328-.085.515-.085.386 0 .691.109.915.328.229.213.343.489.343.828 0 .338-.114.617-.343.836-.224.213-.529.32-.915.32-.187 0-.359-.029-.515-.086a1.222 1.222 0 0 1-.391-.234 1.16 1.16 0 0 1-.258-.367 1.28 1.28 0 0 1-.086-.469Zm10.766.094v2.07h3.156v1.601h-3.156v3.633c0 .308.034.565.102.774.073.203.174.367.304.492.131.12.287.206.469.258.188.052.396.078.625.078.167 0 .336-.008.508-.024.177-.015.344-.033.5-.054.161-.026.31-.052.445-.078.141-.026.261-.053.36-.079l.21 1.493a2.858 2.858 0 0 1-.531.234 5.392 5.392 0 0 1-.648.156 7.446 7.446 0 0 1-.719.094 6.876 6.876 0 0 1-.726.039 4.19 4.19 0 0 1-1.266-.18 2.587 2.587 0 0 1-.969-.57 2.628 2.628 0 0 1-.617-.984c-.146-.401-.219-.881-.219-1.438v-3.844h-1.929v-1.601h1.929v-2.07h2.172Zm7.797 3.234a3.175 3.175 0 0 1 1.023-.969c.407-.234.86-.351 1.36-.351.442 0 .849.067 1.219.203.369.13.687.336.953.617.265.281.471.643.617 1.086.151.437.226.966.226 1.586V143h-2.172v-5.133a2.33 2.33 0 0 0-.117-.781 1.278 1.278 0 0 0-.32-.531 1.263 1.263 0 0 0-.508-.297 2.062 2.062 0 0 0-.672-.102c-.364 0-.682.065-.953.196-.265.13-.484.312-.656.546V143h-2.172v-12h2.172v4.711Zm19.32 5.516h5.328V143h-7.531v-11.375h2.203v9.602Zm9.61 0h5.328V143h-7.532v-11.375h2.204v9.602Zm9.953-9.602 1.078 4.273 1.226-4.273h2.727V143h-2.016v-3.367l.094-5.321-1.492 4.938H194l-1.336-4.727.094 5.11V143h-2.016v-11.375h2.727Zm12.445 9.055a.625.625 0 0 0-.094-.344c-.057-.099-.164-.19-.32-.274a2.715 2.715 0 0 0-.609-.242 10.722 10.722 0 0 0-.969-.218 9.868 9.868 0 0 1-1.36-.368 4.437 4.437 0 0 1-1.046-.539 2.535 2.535 0 0 1-.688-.734 1.857 1.857 0 0 1-.242-.953c0-.349.083-.682.25-1 .167-.318.406-.597.719-.836.312-.24.692-.43 1.14-.57a5.04 5.04 0 0 1 1.516-.211c.588 0 1.117.07 1.586.211.469.135.864.325 1.187.57.328.239.578.526.75.859.172.334.258.696.258 1.086h-2.172c0-.328-.132-.601-.398-.82-.266-.224-.669-.336-1.211-.336-.505 0-.888.091-1.149.273-.255.183-.382.407-.382.672 0 .125.026.242.078.352.052.104.143.2.273.289.136.083.318.161.547.234.229.068.521.128.875.18.511.083.985.19 1.422.32.437.13.815.3 1.133.508.318.203.565.453.742.75.182.292.273.641.273 1.047 0 .375-.091.721-.273 1.039a2.46 2.46 0 0 1-.766.813 3.907 3.907 0 0 1-1.195.539 6.096 6.096 0 0 1-1.57.187c-.636 0-1.198-.083-1.688-.25a4.009 4.009 0 0 1-1.219-.648 2.885 2.885 0 0 1-.75-.914 2.358 2.358 0 0 1-.25-1.032h2.071c.015.229.078.427.187.594.11.162.25.294.422.398.172.099.367.172.586.219.224.047.453.071.688.071.536 0 .945-.086 1.226-.258.281-.172.422-.393.422-.664ZM36.54 31v-4.266h.987c.297.004.562.055.794.153.235.095.432.23.592.404.162.172.285.379.37.621.085.24.13.507.131.8v.313c-.002.293-.046.56-.132.803a1.74 1.74 0 0 1-.369.621c-.16.172-.357.307-.592.404a2.108 2.108 0 0 1-.794.147h-.987Zm.55-3.82v3.378h.437c.23-.002.43-.042.598-.12.168-.08.307-.189.416-.326.111-.136.193-.297.246-.483.055-.186.083-.387.085-.604v-.319a2.167 2.167 0 0 0-.085-.6 1.365 1.365 0 0 0-.246-.481 1.14 1.14 0 0 0-.416-.322 1.467 1.467 0 0 0-.598-.123h-.436Zm2.957 2.206c0-.229.033-.44.1-.636.066-.197.16-.368.284-.513.125-.144.276-.257.454-.34.178-.083.378-.125.6-.125.225 0 .426.042.604.126.18.082.33.195.454.34.125.144.22.315.287.512.067.195.1.407.1.636v.064c0 .229-.033.44-.1.636a1.515 1.515 0 0 1-.287.51 1.3 1.3 0 0 1-.451.34 1.416 1.416 0 0 1-.6.123c-.225 0-.427-.041-.607-.123a1.328 1.328 0 0 1-.454-.34 1.542 1.542 0 0 1-.284-.51 1.963 1.963 0 0 1-.1-.636v-.064Zm.542.064c0 .156.018.306.056.448.037.141.092.265.166.372a.806.806 0 0 0 .68.349.783.783 0 0 0 .671-.349c.076-.107.133-.23.17-.372.037-.142.056-.292.056-.448v-.064c0-.155-.02-.302-.059-.443a1.135 1.135 0 0 0-.17-.375.817.817 0 0 0-.281-.255.77.77 0 0 0-.393-.096.77.77 0 0 0-.392.097.854.854 0 0 0-.282.254c-.074.108-.13.233-.166.375-.038.141-.056.288-.056.443v.064Zm4.564 1.17a.877.877 0 0 0 .285-.048.862.862 0 0 0 .248-.129.686.686 0 0 0 .173-.196.5.5 0 0 0 .07-.246h.513a.841.841 0 0 1-.11.404c-.071.127-.166.24-.285.337a1.5 1.5 0 0 1-.41.232 1.39 1.39 0 0 1-.484.085c-.24 0-.45-.043-.63-.13a1.327 1.327 0 0 1-.45-.345 1.527 1.527 0 0 1-.27-.504 1.99 1.99 0 0 1-.091-.603v-.123c0-.21.03-.41.09-.601.061-.192.151-.36.27-.504a1.31 1.31 0 0 1 .451-.349c.18-.085.39-.128.63-.128.188 0 .36.03.516.09.158.059.294.14.407.244a1.076 1.076 0 0 1 .366.814h-.512a.637.637 0 0 0-.065-.27.711.711 0 0 0-.407-.377.82.82 0 0 0-.305-.056.82.82 0 0 0-.425.102.808.808 0 0 0-.275.264c-.07.107-.121.229-.152.363-.03.135-.044.27-.044.407v.124c0 .138.015.276.044.413.031.134.08.256.15.366.07.107.161.195.275.264.115.066.257.1.427.1Zm4.486-.698a.58.58 0 0 0-.091-.331.764.764 0 0 0-.229-.226 1.44 1.44 0 0 0-.31-.155 7.878 7.878 0 0 0-.322-.111 5.005 5.005 0 0 1-.46-.176 2.05 2.05 0 0 1-.425-.252 1.308 1.308 0 0 1-.314-.352.933.933 0 0 1-.12-.48c0-.184.04-.348.12-.492.082-.145.189-.267.32-.367a1.644 1.644 0 0 1 .946-.305c.186 0 .364.032.536.095.172.06.324.146.457.257.133.112.24.246.32.405.08.158.121.335.125.53h-.556a1.166 1.166 0 0 0-.091-.334.763.763 0 0 0-.445-.428.917.917 0 0 0-.346-.061c-.104 0-.205.014-.305.044a.837.837 0 0 0-.264.131.683.683 0 0 0-.184.217.637.637 0 0 0-.067.3.546.546 0 0 0 .093.313c.06.084.137.155.229.213.094.059.194.108.302.147.109.039.212.073.307.102.106.034.212.072.32.115.107.04.21.089.31.143.1.055.193.116.278.185.086.068.162.146.226.234a1 1 0 0 1 .15.287c.036.104.055.22.055.346a.952.952 0 0 1-.129.501 1.149 1.149 0 0 1-.328.357 1.535 1.535 0 0 1-.457.214c-.17.047-.34.07-.51.07-.19 0-.375-.029-.556-.087a1.638 1.638 0 0 1-.49-.252 1.361 1.361 0 0 1-.348-.405 1.165 1.165 0 0 1-.144-.544h.554c.017.132.054.25.108.354a.886.886 0 0 0 .211.26c.086.071.185.125.296.162a1.275 1.275 0 0 0 .68.015.883.883 0 0 0 .275-.123.698.698 0 0 0 .197-.211.588.588 0 0 0 .076-.305Zm2.654-2.86v.768H53.5v.419h-1.207v1.723c0 .123.016.224.047.304.031.08.074.145.129.194.054.047.117.08.187.1a.87.87 0 0 0 .229.029 1.932 1.932 0 0 0 .363-.035l.167-.03c.053-.011.096-.021.129-.03l.076.385a.81.81 0 0 1-.164.073 1.88 1.88 0 0 1-.21.05 2.724 2.724 0 0 1-.495.047c-.142 0-.274-.02-.397-.059a.843.843 0 0 1-.316-.19.933.933 0 0 1-.214-.337 1.461 1.461 0 0 1-.076-.501v-1.723h-.832v-.419h.832v-.767h.545Zm2.168 2.324c0-.229.033-.44.1-.636a1.54 1.54 0 0 1 .284-.513c.125-.144.276-.257.454-.34.178-.083.378-.125.6-.125.225 0 .426.042.604.126.18.082.331.195.454.34.125.144.22.315.287.512.066.195.1.407.1.636v.064c0 .229-.034.44-.1.636a1.515 1.515 0 0 1-.287.51 1.299 1.299 0 0 1-.451.34 1.416 1.416 0 0 1-.6.123c-.225 0-.428-.041-.607-.123a1.329 1.329 0 0 1-.454-.34 1.546 1.546 0 0 1-.285-.51 1.963 1.963 0 0 1-.1-.636v-.064Zm.542.064c0 .156.019.306.056.448.037.141.092.265.167.372a.805.805 0 0 0 .68.349.783.783 0 0 0 .67-.349 1.14 1.14 0 0 0 .17-.372c.037-.142.056-.292.056-.448v-.064c0-.155-.02-.302-.059-.443a1.135 1.135 0 0 0-.17-.375.817.817 0 0 0-.281-.255.77.77 0 0 0-.393-.096.77.77 0 0 0-.392.097.854.854 0 0 0-.281.254c-.075.108-.13.233-.167.375-.037.141-.056.288-.056.443v.064Zm5.29-1.678a2.223 2.223 0 0 1 .314.02c.051.006.097.014.138.023.043.01.078.02.106.033l-.074.53a2.633 2.633 0 0 0-.301-.05 2.391 2.391 0 0 0-.296-.017c-.254 0-.46.057-.618.172a1.002 1.002 0 0 0-.346.484V31h-.545v-3.17h.516l.026.504c.129-.174.283-.31.463-.41.181-.102.387-.152.618-.152Zm2.928 3.287c-.223 0-.428-.039-.615-.115a1.395 1.395 0 0 1-.789-.805 1.65 1.65 0 0 1-.11-.613v-.123c0-.255.04-.484.122-.685.082-.203.19-.374.325-.513.137-.14.291-.248.463-.322.174-.074.352-.111.533-.111.229 0 .428.04.598.12.172.078.315.187.428.328.113.138.197.303.252.492.056.19.085.394.085.615v.243h-2.265c.006.145.033.28.082.407a.973.973 0 0 0 .92.639 1.102 1.102 0 0 0 .89-.427l.332.257a1.36 1.36 0 0 1-.472.425 1.647 1.647 0 0 1-.78.188Zm-.07-2.842c-.11 0-.214.02-.311.061a.781.781 0 0 0-.264.176.995.995 0 0 0-.199.284 1.36 1.36 0 0 0-.111.387h1.705v-.041a1.177 1.177 0 0 0-.062-.314.851.851 0 0 0-.15-.278.751.751 0 0 0-.609-.275ZM36.68 162.312h3.437v.629h-1.363v4.434h1.363V168H36.68v-.625h1.332v-4.434H36.68v-.629Zm5.453 1.461.05.625a1.66 1.66 0 0 1 .567-.511c.224-.125.474-.189.75-.192.221 0 .422.032.602.094.182.063.337.16.464.293.128.133.226.302.293.508.07.203.106.445.106.726V168h-.723v-2.668c0-.187-.02-.346-.062-.477a.712.712 0 0 0-.488-.492 1.386 1.386 0 0 0-.407-.054c-.242 0-.456.061-.64.183-.183.12-.329.279-.438.477V168h-.723v-4.227h.649ZM48 162.75v1.023h1.61v.559H48v2.297c0 .164.02.299.063.406a.659.659 0 0 0 .171.258.65.65 0 0 0 .25.133c.097.026.198.039.305.039a2.533 2.533 0 0 0 .484-.047c.081-.013.155-.026.223-.039l.172-.039.102.512c-.06.036-.133.069-.22.097a3.044 3.044 0 0 1-.605.113 3.433 3.433 0 0 1-.336.016c-.187 0-.363-.026-.527-.078a1.122 1.122 0 0 1-.422-.254 1.243 1.243 0 0 1-.285-.449 1.95 1.95 0 0 1-.102-.668v-2.297h-1.109v-.559h1.11v-1.023H48Zm5.836 4.668c-.14.208-.316.371-.527.488-.211.115-.455.172-.73.172a1.71 1.71 0 0 1-.602-.101 1.178 1.178 0 0 1-.461-.325 1.512 1.512 0 0 1-.297-.554 2.862 2.862 0 0 1-.102-.813v-2.512h.723v2.52c0 .229.018.419.054.57a.931.931 0 0 0 .165.364.593.593 0 0 0 .265.187c.107.037.23.055.367.055.295 0 .532-.06.711-.18.183-.12.318-.281.407-.484v-3.032h.726V168h-.656l-.043-.582Zm2.176-3.645h2.16v3.602h1.379V168h-3.54v-.625h1.438v-2.973h-1.437v-.629Zm1.343-1.109c0-.12.036-.22.106-.301.073-.083.182-.125.328-.125.143 0 .251.042.324.125.073.081.11.181.11.301a.413.413 0 0 1-.11.293c-.073.078-.18.117-.324.117-.146 0-.255-.039-.328-.117a.422.422 0 0 1-.105-.293Zm5.06.086v1.023h1.608v.559h-1.609v2.297c0 .164.02.299.063.406a.657.657 0 0 0 .171.258.652.652 0 0 0 .25.133c.097.026.198.039.305.039a2.536 2.536 0 0 0 .484-.047c.081-.013.155-.026.223-.039l.172-.039.102.512c-.06.036-.133.069-.22.097a3.048 3.048 0 0 1-.605.113 3.435 3.435 0 0 1-.336.016c-.187 0-.363-.026-.527-.078a1.122 1.122 0 0 1-.422-.254 1.243 1.243 0 0 1-.285-.449 1.95 1.95 0 0 1-.102-.668v-2.297h-1.109v-.559h1.11v-1.023h.726Zm3.206 1.023h2.16v3.602h1.38V168h-3.54v-.625h1.438v-2.973H65.62v-.629Zm1.344-1.109c0-.12.035-.22.105-.301.073-.083.183-.125.328-.125.144 0 .252.042.325.125.073.081.109.181.109.301a.413.413 0 0 1-.11.293c-.072.078-.18.117-.324.117-.145 0-.255-.039-.328-.117a.422.422 0 0 1-.105-.293Zm5.004 4.297.066.262.07-.262 1.184-3.188h.738L72.305 168h-.551l-1.738-4.227h.742l1.21 3.188Zm5.015 1.117a2.17 2.17 0 0 1-.82-.152 1.873 1.873 0 0 1-1.05-1.074 2.202 2.202 0 0 1-.15-.817v-.164c0-.341.055-.646.165-.914.11-.271.254-.499.433-.684a1.92 1.92 0 0 1 .618-.429c.231-.099.468-.149.71-.149.305 0 .57.054.797.16.23.105.42.25.57.438.152.185.264.404.337.656.075.253.113.526.113.821v.324h-3.02c.008.192.045.373.11.543.068.169.159.317.273.445a1.283 1.283 0 0 0 .953.406c.258 0 .487-.052.688-.156.2-.104.367-.242.5-.414l.441.344a1.765 1.765 0 0 1-.629.566 2.188 2.188 0 0 1-1.039.25Zm-.093-3.789c-.146 0-.284.027-.414.082-.13.052-.248.13-.352.234a1.337 1.337 0 0 0-.266.379 1.83 1.83 0 0 0-.148.516h2.273v-.055a1.568 1.568 0 0 0-.082-.418 1.139 1.139 0 0 0-.199-.371.995.995 0 0 0-.336-.265 1.034 1.034 0 0 0-.476-.102ZM87.504 168a.838.838 0 0 1-.07-.203 2.648 2.648 0 0 1-.036-.258 1.928 1.928 0 0 1-.542.379 1.77 1.77 0 0 1-.735.16 1.78 1.78 0 0 1-.61-.098 1.472 1.472 0 0 1-.46-.261 1.213 1.213 0 0 1-.293-.395 1.214 1.214 0 0 1-.102-.496c0-.232.046-.435.137-.609.094-.175.225-.319.394-.434.17-.117.373-.204.61-.262.24-.057.506-.085.8-.085h.79v-.333a.807.807 0 0 0-.07-.343.712.712 0 0 0-.2-.258.893.893 0 0 0-.316-.168 1.36 1.36 0 0 0-.414-.059c-.144 0-.272.019-.387.055a.934.934 0 0 0-.285.145.65.65 0 0 0-.184.214.55.55 0 0 0-.062.254h-.727c.003-.153.042-.304.117-.453.079-.148.19-.281.332-.398.146-.12.322-.216.528-.289a2.13 2.13 0 0 1 .707-.11c.24 0 .462.03.668.09.206.057.383.146.531.266.151.117.27.264.356.441.085.177.128.384.128.621v1.965c0 .141.013.29.04.449a2 2 0 0 0 .109.411V168h-.754Zm-1.277-.551a1.392 1.392 0 0 0 .988-.402c.073-.078.13-.159.172-.242v-.856h-.672c-.422 0-.75.063-.984.188a.623.623 0 0 0-.352.59c0 .104.017.2.05.289a.647.647 0 0 0 .427.379c.106.036.23.054.37.054Zm3.953-3.676.05.625a1.66 1.66 0 0 1 .567-.511c.224-.125.474-.189.75-.192.221 0 .422.032.601.094.183.063.338.16.465.293.128.133.225.302.293.508.07.203.106.445.106.726V168h-.723v-2.668c0-.187-.02-.346-.062-.477a.712.712 0 0 0-.488-.492 1.386 1.386 0 0 0-.407-.054c-.242 0-.456.061-.64.183-.183.12-.329.279-.438.477V168h-.723v-4.227h.649Zm4.02 2.079c0-.316.038-.605.116-.868a2.13 2.13 0 0 1 .34-.683c.149-.19.327-.339.535-.446a1.52 1.52 0 0 1 .7-.16c.252 0 .472.043.66.129.19.084.354.206.492.367V162h.723v6h-.664l-.032-.445c-.14.172-.308.302-.504.39a1.635 1.635 0 0 1-.683.133 1.477 1.477 0 0 1-1.223-.617 2.186 2.186 0 0 1-.34-.68 2.872 2.872 0 0 1-.12-.847v-.082Zm.722.082c0 .205.022.401.066.586.045.184.112.347.203.488.094.14.213.252.356.336.143.08.315.121.516.121.122 0 .233-.014.331-.043.1-.029.19-.069.27-.121.08-.055.152-.119.215-.192.062-.075.117-.158.164-.25v-1.961a1.208 1.208 0 0 0-.379-.421 1.005 1.005 0 0 0-.594-.168c-.203 0-.377.041-.523.125a1.051 1.051 0 0 0-.356.339 1.559 1.559 0 0 0-.203.493c-.044.185-.066.38-.066.586v.082Zm11.832.945a.51.51 0 0 0-.051-.231.511.511 0 0 0-.172-.191 1.307 1.307 0 0 0-.32-.156 3.182 3.182 0 0 0-.496-.133 5.046 5.046 0 0 1-.664-.18 2.24 2.24 0 0 1-.512-.25 1.133 1.133 0 0 1-.328-.343.895.895 0 0 1-.117-.461.99.99 0 0 1 .121-.481c.081-.151.194-.282.34-.394.146-.112.319-.201.519-.266.203-.065.426-.098.668-.098.261 0 .495.034.703.102.209.068.386.161.532.281.145.12.257.261.335.422.081.159.122.331.122.516h-.723a.545.545 0 0 0-.07-.266.739.739 0 0 0-.196-.234.98.98 0 0 0-.304-.164 1.18 1.18 0 0 0-.399-.063c-.153 0-.289.017-.406.051a.913.913 0 0 0-.289.137.578.578 0 0 0-.172.199.514.514 0 0 0-.012.457.47.47 0 0 0 .16.176c.079.052.181.099.309.14.13.042.294.082.492.121.261.055.494.119.699.192.206.07.379.156.52.258.141.098.247.214.32.347a.914.914 0 0 1 .114.461c0 .188-.043.358-.129.512a1.188 1.188 0 0 1-.352.394c-.151.11-.332.194-.543.254-.211.06-.441.09-.691.09-.287 0-.542-.038-.766-.113a1.905 1.905 0 0 1-.57-.305 1.37 1.37 0 0 1-.356-.441 1.19 1.19 0 0 1-.121-.52h.723a.75.75 0 0 0 .117.375.84.84 0 0 0 .258.246c.104.063.219.107.344.133.125.026.248.039.371.039.304 0 .545-.056.722-.168.177-.112.267-.26.27-.445Zm3.863 1.199c-.297 0-.57-.051-.82-.152a1.867 1.867 0 0 1-1.051-1.074 2.202 2.202 0 0 1-.148-.817v-.164c0-.341.054-.646.164-.914.109-.271.254-.499.433-.684a1.93 1.93 0 0 1 .617-.429c.232-.099.469-.149.711-.149.305 0 .571.054.797.16.229.105.42.25.571.438.151.185.263.404.336.656.075.253.113.526.113.821v.324h-3.02c.008.192.045.373.11.543.067.169.159.317.273.445a1.286 1.286 0 0 0 .953.406c.258 0 .487-.052.688-.156.2-.104.367-.242.5-.414l.441.344a1.732 1.732 0 0 1-.629.566 2.195 2.195 0 0 1-1.039.25Zm-.094-3.789c-.145 0-.283.027-.414.082-.13.052-.247.13-.351.234a1.344 1.344 0 0 0-.266.379c-.07.149-.12.321-.148.516h2.273v-.055a1.572 1.572 0 0 0-.082-.418 1.146 1.146 0 0 0-.199-.371 1.004 1.004 0 0 0-.813-.367Zm4.832 3.203a1.18 1.18 0 0 0 .711-.234.908.908 0 0 0 .231-.262.667.667 0 0 0 .094-.328h.683a1.118 1.118 0 0 1-.148.539c-.094.169-.22.319-.379.449a1.871 1.871 0 0 1-1.192.422c-.32 0-.6-.057-.839-.172a1.76 1.76 0 0 1-.602-.461 2.012 2.012 0 0 1-.359-.672 2.64 2.64 0 0 1-.121-.804v-.164c0-.279.04-.546.121-.801.08-.255.2-.479.359-.672.162-.195.362-.35.602-.465a1.93 1.93 0 0 1 .839-.172c.25 0 .48.041.688.121.211.079.392.187.543.325a1.43 1.43 0 0 1 .488 1.086h-.683a.959.959 0 0 0-.629-.864 1.107 1.107 0 0 0-.407-.074c-.223 0-.412.046-.566.137a1.082 1.082 0 0 0-.367.351 1.479 1.479 0 0 0-.203.485c-.039.179-.059.36-.059.543v.164c0 .185.02.368.059.551.041.179.108.342.199.488.094.143.216.26.367.351.154.089.344.133.57.133Zm5.747-.074a1.528 1.528 0 0 1-.528.488 1.5 1.5 0 0 1-.73.172c-.222 0-.422-.034-.602-.101a1.18 1.18 0 0 1-.461-.325 1.532 1.532 0 0 1-.297-.554 2.892 2.892 0 0 1-.101-.813v-2.512h.722v2.52c0 .229.019.419.055.57a.937.937 0 0 0 .164.364.595.595 0 0 0 .266.187c.107.037.229.055.367.055.294 0 .531-.06.711-.18.182-.12.318-.281.406-.484v-3.032h.727V168h-.656l-.043-.582Zm4.832-3.723c.067 0 .138.003.211.008.072.003.141.009.207.02a1.449 1.449 0 0 1 .324.074l-.098.707a3.533 3.533 0 0 0-.402-.066 3.116 3.116 0 0 0-.395-.024c-.338 0-.613.077-.824.231a1.333 1.333 0 0 0-.461.644V168h-.726v-4.227h.687l.035.672c.172-.231.378-.414.617-.547.243-.135.517-.203.825-.203Zm3.902 4.383c-.297 0-.57-.051-.82-.152a1.867 1.867 0 0 1-1.051-1.074 2.202 2.202 0 0 1-.149-.817v-.164c0-.341.055-.646.164-.914.11-.271.254-.499.434-.684.182-.187.388-.33.617-.429.232-.099.469-.149.711-.149.305 0 .57.054.797.16.229.105.419.25.57.438.151.185.263.404.336.656.076.253.114.526.114.821v.324h-3.02c.008.192.044.373.109.543.068.169.159.317.274.445a1.293 1.293 0 0 0 .953.406 1.467 1.467 0 0 0 1.187-.57l.442.344a1.763 1.763 0 0 1-.629.566 1.956 1.956 0 0 1-.469.18c-.174.047-.364.07-.57.07Zm-.094-3.789c-.146 0-.284.027-.414.082-.13.052-.247.13-.351.234a1.324 1.324 0 0 0-.266.379 1.85 1.85 0 0 0-.149.516h2.274v-.055a1.572 1.572 0 0 0-.082-.418 1.146 1.146 0 0 0-.199-.371 1.004 1.004 0 0 0-.813-.367Zm9.637 3.203a1.19 1.19 0 0 0 .711-.234.919.919 0 0 0 .23-.262.667.667 0 0 0 .094-.328h.684a1.12 1.12 0 0 1-.149.539c-.094.169-.22.319-.379.449a1.986 1.986 0 0 1-.547.309c-.205.075-.42.113-.644.113-.32 0-.6-.057-.84-.172a1.747 1.747 0 0 1-.601-.461 2.033 2.033 0 0 1-.36-.672 2.64 2.64 0 0 1-.121-.804v-.164c0-.279.04-.546.121-.801.081-.255.201-.479.36-.672.161-.195.361-.35.601-.465.24-.114.52-.172.84-.172.25 0 .479.041.687.121.211.079.392.187.543.325a1.433 1.433 0 0 1 .489 1.086h-.684a.851.851 0 0 0-.086-.36.959.959 0 0 0-.543-.504 1.102 1.102 0 0 0-.406-.074c-.224 0-.413.046-.567.137a1.082 1.082 0 0 0-.367.351 1.523 1.523 0 0 0-.203.485c-.039.179-.058.36-.058.543v.164c0 .185.019.368.058.551.042.179.108.342.199.488.094.143.217.26.368.351.153.089.343.133.57.133Zm5.746-.074a1.525 1.525 0 0 1-.527.488 1.504 1.504 0 0 1-.731.172c-.221 0-.422-.034-.601-.101a1.172 1.172 0 0 1-.461-.325 1.502 1.502 0 0 1-.297-.554 2.854 2.854 0 0 1-.102-.813v-2.512h.723v2.52c0 .229.018.419.055.57a.923.923 0 0 0 .164.364.592.592 0 0 0 .265.187c.107.037.229.055.367.055.295 0 .532-.06.711-.18.183-.12.318-.281.407-.484v-3.032h.726V168h-.656l-.043-.582Zm4.871-.539a.51.51 0 0 0-.051-.231.511.511 0 0 0-.172-.191 1.307 1.307 0 0 0-.32-.156 3.182 3.182 0 0 0-.496-.133 5.046 5.046 0 0 1-.664-.18 2.24 2.24 0 0 1-.512-.25 1.145 1.145 0 0 1-.328-.343.895.895 0 0 1-.117-.461.99.99 0 0 1 .121-.481c.081-.151.194-.282.34-.394.146-.112.319-.201.519-.266.204-.065.426-.098.668-.098.261 0 .495.034.704.102.208.068.385.161.531.281.146.12.258.261.336.422.08.159.121.331.121.516h-.723a.545.545 0 0 0-.07-.266.749.749 0 0 0-.195-.234.985.985 0 0 0-.305-.164 1.176 1.176 0 0 0-.399-.063c-.153 0-.289.017-.406.051a.923.923 0 0 0-.289.137.589.589 0 0 0-.172.199.5.5 0 0 0-.058.234c0 .083.015.158.046.223a.466.466 0 0 0 .161.176c.078.052.181.099.308.14.13.042.294.082.492.121.261.055.494.119.7.192.205.07.379.156.519.258.141.098.248.214.32.347a.914.914 0 0 1 .114.461c0 .188-.043.358-.129.512a1.177 1.177 0 0 1-.352.394c-.151.11-.332.194-.543.254-.211.06-.441.09-.691.09-.287 0-.542-.038-.766-.113a1.905 1.905 0 0 1-.57-.305 1.37 1.37 0 0 1-.356-.441 1.19 1.19 0 0 1-.121-.52h.723a.76.76 0 0 0 .117.375.862.862 0 0 0 .258.246c.104.063.219.107.344.133.125.026.249.039.371.039.305 0 .545-.056.723-.168.177-.112.266-.26.269-.445Zm3.707-4.129v1.023h1.609v.559h-1.609v2.297c0 .164.021.299.063.406a.65.65 0 0 0 .172.258.643.643 0 0 0 .25.133c.096.026.197.039.304.039a2.528 2.528 0 0 0 .485-.047c.08-.013.155-.026.222-.039l.172-.039.102.512a1.07 1.07 0 0 1-.219.097 3.064 3.064 0 0 1-.606.113 3.435 3.435 0 0 1-.336.016c-.187 0-.363-.026-.527-.078a1.128 1.128 0 0 1-.422-.254 1.236 1.236 0 0 1-.285-.449 1.944 1.944 0 0 1-.101-.668v-2.297h-1.11v-.559h1.11v-1.023h.726Zm2.891 3.098c0-.305.044-.588.133-.848.088-.263.214-.491.378-.684.167-.192.369-.343.606-.453.237-.112.504-.168.801-.168.299 0 .567.056.804.168.24.11.442.261.606.453.167.193.294.421.383.684.088.26.133.543.133.848v.086c0 .304-.045.587-.133.847a2.022 2.022 0 0 1-.383.68 1.725 1.725 0 0 1-.602.453 1.894 1.894 0 0 1-.8.164c-.3 0-.569-.055-.809-.164a1.768 1.768 0 0 1-.606-.453 2.046 2.046 0 0 1-.378-.68 2.602 2.602 0 0 1-.133-.847v-.086Zm.722.086c0 .208.025.407.075.597.049.188.123.353.222.496a1.068 1.068 0 0 0 .907.465c.197 0 .371-.041.519-.125.151-.083.276-.196.375-.34.102-.143.177-.308.227-.496.049-.19.074-.389.074-.597v-.086c0-.206-.026-.403-.078-.59a1.516 1.516 0 0 0-.227-.5 1.09 1.09 0 0 0-.375-.34 1.024 1.024 0 0 0-.523-.129c-.201 0-.375.043-.524.129a1.148 1.148 0 0 0-.375.34 1.55 1.55 0 0 0-.222.5c-.05.187-.075.384-.075.59v.086Zm4.618-2.161.019.399a.96.96 0 0 1 .336-.348c.141-.083.31-.126.508-.129.388 0 .647.151.777.453a.968.968 0 0 1 .328-.324.984.984 0 0 1 .5-.129c.31 0 .549.095.715.285.167.191.25.478.25.864V168h-.687v-3.164c0-.354-.163-.53-.489-.527a.616.616 0 0 0-.222.035.435.435 0 0 0-.254.238.582.582 0 0 0-.047.164V168h-.688v-3.168c0-.169-.037-.299-.113-.391-.075-.091-.195-.135-.359-.132a.604.604 0 0 0-.352.089.526.526 0 0 0-.183.239V168h-.688v-4.227h.649Zm11.992 2.754h-1.899L171.57 168h-.722l1.836-5.688h.605l1.805 5.688h-.719l-.449-1.473Zm-1.703-.629h1.511l-.75-2.468-.761 2.468Zm3.793-3.586h3.437v.629h-1.363v4.434h1.363V168h-3.437v-.625h1.332v-4.434h-1.332v-.629ZM188.402 168a.856.856 0 0 1-.07-.203 2.588 2.588 0 0 1-.035-.258 1.948 1.948 0 0 1-.543.379 1.762 1.762 0 0 1-.734.16c-.224 0-.428-.032-.61-.098a1.474 1.474 0 0 1-.461-.261 1.223 1.223 0 0 1-.293-.395 1.225 1.225 0 0 1-.101-.496c0-.232.045-.435.136-.609.094-.175.226-.319.395-.434.169-.117.372-.204.609-.262.24-.057.507-.085.801-.085h.789v-.333a.806.806 0 0 0-.07-.343.711.711 0 0 0-.199-.258.896.896 0 0 0-.317-.168 1.357 1.357 0 0 0-.414-.059c-.143 0-.272.019-.387.055a.931.931 0 0 0-.285.145.645.645 0 0 0-.183.214.546.546 0 0 0-.063.254h-.726c.002-.153.041-.304.117-.453.078-.148.189-.281.332-.398a1.73 1.73 0 0 1 .527-.289c.209-.073.444-.11.707-.11.24 0 .462.03.668.09.206.057.383.146.531.266.151.117.27.264.356.441.086.177.129.384.129.621v1.965c0 .141.013.29.039.449.026.157.062.293.109.411V168h-.754Zm-1.277-.551a1.397 1.397 0 0 0 .988-.402c.073-.078.13-.159.172-.242v-.856h-.672c-.422 0-.75.063-.984.188a.624.624 0 0 0-.352.59.658.658 0 0 0 .211.519.775.775 0 0 0 .266.149c.107.036.23.054.371.054Zm6.113-.57a.523.523 0 0 0-.05-.231.52.52 0 0 0-.172-.191 1.334 1.334 0 0 0-.321-.156 3.182 3.182 0 0 0-.496-.133 5.089 5.089 0 0 1-.664-.18 2.26 2.26 0 0 1-.512-.25 1.145 1.145 0 0 1-.328-.343.895.895 0 0 1-.117-.461.99.99 0 0 1 .121-.481c.081-.151.194-.282.34-.394a1.71 1.71 0 0 1 .52-.266c.203-.065.425-.098.668-.098.26 0 .494.034.703.102.208.068.385.161.531.281.146.12.258.261.336.422.081.159.121.331.121.516h-.723a.545.545 0 0 0-.07-.266.749.749 0 0 0-.195-.234.985.985 0 0 0-.305-.164 1.175 1.175 0 0 0-.398-.063 1.47 1.47 0 0 0-.407.051.923.923 0 0 0-.289.137.589.589 0 0 0-.172.199.5.5 0 0 0-.058.234.5.5 0 0 0 .047.223.455.455 0 0 0 .16.176c.078.052.181.099.308.14.131.042.295.082.493.121.26.055.493.119.699.192.206.07.379.156.519.258.141.098.248.214.321.347a.924.924 0 0 1 .113.461c0 .188-.043.358-.129.512-.083.153-.2.285-.352.394-.151.11-.332.194-.542.254-.211.06-.442.09-.692.09a2.41 2.41 0 0 1-.766-.113 1.917 1.917 0 0 1-.57-.305 1.367 1.367 0 0 1-.355-.441 1.176 1.176 0 0 1-.121-.52h.722a.77.77 0 0 0 .117.375.862.862 0 0 0 .258.246c.104.063.219.107.344.133.125.026.249.039.371.039.305 0 .546-.056.723-.168.177-.112.267-.26.269-.445Zm4.805 0a.51.51 0 0 0-.051-.231.511.511 0 0 0-.172-.191 1.307 1.307 0 0 0-.32-.156 3.182 3.182 0 0 0-.496-.133 5.046 5.046 0 0 1-.664-.18 2.24 2.24 0 0 1-.512-.25 1.145 1.145 0 0 1-.328-.343.895.895 0 0 1-.117-.461.99.99 0 0 1 .121-.481c.081-.151.194-.282.34-.394.146-.112.319-.201.519-.266.203-.065.426-.098.668-.098.261 0 .495.034.703.102.209.068.386.161.532.281.145.12.257.261.336.422.08.159.121.331.121.516H198a.545.545 0 0 0-.07-.266.739.739 0 0 0-.196-.234.98.98 0 0 0-.304-.164 1.18 1.18 0 0 0-.399-.063c-.153 0-.289.017-.406.051a.913.913 0 0 0-.289.137.578.578 0 0 0-.172.199.514.514 0 0 0-.012.457.47.47 0 0 0 .16.176c.079.052.181.099.309.14.13.042.294.082.492.121.261.055.494.119.699.192.206.07.379.156.52.258.141.098.247.214.32.347a.914.914 0 0 1 .114.461c0 .188-.043.358-.129.512a1.188 1.188 0 0 1-.352.394c-.151.11-.332.194-.543.254-.211.06-.441.09-.691.09-.287 0-.542-.038-.766-.113a1.905 1.905 0 0 1-.57-.305 1.37 1.37 0 0 1-.356-.441 1.19 1.19 0 0 1-.121-.52h.723a.75.75 0 0 0 .117.375.84.84 0 0 0 .258.246c.104.063.219.107.344.133.125.026.248.039.371.039.304 0 .545-.056.722-.168.178-.112.267-.26.27-.445Zm2.109-3.106h2.16v3.602h1.379V168h-3.539v-.625h1.438v-2.973h-1.438v-.629Zm1.344-1.109c0-.12.035-.22.106-.301.072-.083.182-.125.328-.125.143 0 .251.042.324.125a.432.432 0 0 1 .109.301.412.412 0 0 1-.109.293c-.073.078-.181.117-.324.117-.146 0-.256-.039-.328-.117a.419.419 0 0 1-.106-.293Zm6.156 4.215a.523.523 0 0 0-.05-.231.52.52 0 0 0-.172-.191 1.334 1.334 0 0 0-.321-.156 3.151 3.151 0 0 0-.496-.133 5.089 5.089 0 0 1-.664-.18 2.231 2.231 0 0 1-.511-.25 1.149 1.149 0 0 1-.329-.343 1.001 1.001 0 0 1 .004-.942c.081-.151.194-.282.34-.394a1.71 1.71 0 0 1 .52-.266c.203-.065.425-.098.668-.098.26 0 .494.034.703.102.208.068.385.161.531.281.146.12.258.261.336.422.081.159.121.331.121.516h-.723a.545.545 0 0 0-.07-.266.749.749 0 0 0-.195-.234.985.985 0 0 0-.305-.164 1.175 1.175 0 0 0-.398-.063 1.47 1.47 0 0 0-.407.051.923.923 0 0 0-.289.137.589.589 0 0 0-.172.199.5.5 0 0 0-.058.234.5.5 0 0 0 .047.223.455.455 0 0 0 .16.176c.078.052.181.099.308.14.131.042.295.082.493.121.26.055.493.119.699.192.206.07.379.156.519.258.141.098.248.214.321.347a.924.924 0 0 1 .113.461c0 .188-.043.358-.129.512-.083.153-.2.285-.351.394-.152.11-.333.194-.543.254-.211.06-.442.09-.692.09a2.4 2.4 0 0 1-.765-.113 1.91 1.91 0 0 1-.571-.305 1.367 1.367 0 0 1-.355-.441 1.176 1.176 0 0 1-.121-.52h.722a.76.76 0 0 0 .118.375c.07.102.156.184.257.246.104.063.219.107.344.133.125.026.249.039.371.039.305 0 .546-.056.723-.168.177-.112.267-.26.269-.445Zm3.707-4.129v1.023h1.61v.559h-1.61v2.297c0 .164.021.299.063.406a.66.66 0 0 0 .172.258.65.65 0 0 0 .25.133c.096.026.198.039.304.039a2.549 2.549 0 0 0 .485-.047c.081-.013.155-.026.222-.039l.172-.039.102.512a1.07 1.07 0 0 1-.219.097 3.081 3.081 0 0 1-.605.113 3.435 3.435 0 0 1-.336.016c-.188 0-.364-.026-.528-.078a1.116 1.116 0 0 1-.421-.254 1.251 1.251 0 0 1-.286-.449 1.969 1.969 0 0 1-.101-.668v-2.297h-1.11v-.559h1.11v-1.023h.726Zm5.871 5.25a.856.856 0 0 1-.07-.203 2.92 2.92 0 0 1-.035-.258 1.948 1.948 0 0 1-.543.379 1.762 1.762 0 0 1-.734.16c-.224 0-.427-.032-.61-.098a1.486 1.486 0 0 1-.461-.261 1.223 1.223 0 0 1-.293-.395 1.225 1.225 0 0 1-.101-.496c0-.232.045-.435.137-.609.093-.175.225-.319.394-.434.169-.117.372-.204.609-.262.24-.057.507-.085.801-.085h.789v-.333a.806.806 0 0 0-.07-.343.711.711 0 0 0-.199-.258.896.896 0 0 0-.317-.168 1.357 1.357 0 0 0-.414-.059 1.28 1.28 0 0 0-.386.055.948.948 0 0 0-.286.145.645.645 0 0 0-.183.214.546.546 0 0 0-.063.254h-.726c.002-.153.041-.304.117-.453.078-.148.189-.281.332-.398.146-.12.322-.216.527-.289.209-.073.444-.11.707-.11.24 0 .463.03.668.09.206.057.383.146.532.266.151.117.269.264.355.441.086.177.129.384.129.621v1.965c0 .141.013.29.039.449.026.157.063.293.109.411V168h-.754Zm-1.277-.551a1.397 1.397 0 0 0 .988-.402c.073-.078.131-.159.172-.242v-.856h-.672c-.421 0-.75.063-.984.188a.624.624 0 0 0-.352.59.658.658 0 0 0 .211.519.775.775 0 0 0 .266.149c.107.036.23.054.371.054Zm3.953-3.676.051.625c.154-.218.342-.389.566-.511.224-.125.474-.189.75-.192.222 0 .422.032.602.094.182.063.337.16.465.293.127.133.225.302.293.508.07.203.105.445.105.726V168h-.722v-2.668c0-.187-.021-.346-.063-.477a.713.713 0 0 0-.488-.492 1.386 1.386 0 0 0-.406-.054c-.243 0-.456.061-.641.183-.182.12-.328.279-.438.477V168h-.722v-4.227h.648Zm5.867-1.023v1.023h1.61v.559h-1.61v2.297c0 .164.021.299.063.406a.66.66 0 0 0 .172.258.65.65 0 0 0 .25.133c.096.026.198.039.304.039a2.549 2.549 0 0 0 .485-.047c.081-.013.155-.026.223-.039l.171-.039.102.512a1.07 1.07 0 0 1-.219.097 3.081 3.081 0 0 1-.605.113 3.435 3.435 0 0 1-.336.016c-.188 0-.363-.026-.528-.078a1.116 1.116 0 0 1-.421-.254 1.251 1.251 0 0 1-.286-.449 1.969 1.969 0 0 1-.101-.668v-2.297h-1.109v-.559h1.109v-1.023h.726Zm5.903 4.129a.51.51 0 0 0-.051-.231.511.511 0 0 0-.172-.191 1.325 1.325 0 0 0-.32-.156 3.182 3.182 0 0 0-.496-.133 5.046 5.046 0 0 1-.664-.18 2.24 2.24 0 0 1-.512-.25 1.133 1.133 0 0 1-.328-.343.895.895 0 0 1-.117-.461.99.99 0 0 1 .121-.481 1.21 1.21 0 0 1 .34-.394c.145-.112.319-.201.519-.266.203-.065.426-.098.668-.098.26 0 .495.034.703.102.209.068.386.161.531.281.146.12.258.261.336.422.081.159.121.331.121.516h-.722a.547.547 0 0 0-.071-.266.723.723 0 0 0-.195-.234.974.974 0 0 0-.305-.164 1.175 1.175 0 0 0-.398-.063c-.154 0-.289.017-.406.051a.913.913 0 0 0-.289.137.578.578 0 0 0-.172.199.514.514 0 0 0-.012.457.463.463 0 0 0 .16.176c.078.052.181.099.309.14.13.042.294.082.492.121.261.055.494.119.699.192.206.07.379.156.52.258.14.098.247.214.32.347a.913.913 0 0 1 .113.461c0 .188-.043.358-.128.512a1.188 1.188 0 0 1-.352.394c-.151.11-.332.194-.543.254-.211.06-.441.09-.691.09-.287 0-.542-.038-.766-.113a1.905 1.905 0 0 1-.57-.305 1.37 1.37 0 0 1-.356-.441 1.176 1.176 0 0 1-.121-.52h.723a.75.75 0 0 0 .117.375.84.84 0 0 0 .258.246c.104.063.219.107.343.133.126.026.249.039.372.039.304 0 .545-.056.722-.168.177-.112.267-.26.27-.445ZM37.758 179v-3.668h-1.164v-.559h1.164v-.296c0-.271.039-.508.117-.711.08-.206.193-.378.336-.516.146-.138.32-.242.523-.312a2.05 2.05 0 0 1 .68-.106c.172 0 .339.014.5.043.164.029.332.065.504.109l-.086.598a2.671 2.671 0 0 0-.375-.094 2.317 2.317 0 0 0-.453-.043c-.339.003-.594.089-.766.258-.169.169-.254.427-.254.774v.296h1.63v.559h-1.63V179h-.726Zm3.523-2.152c0-.305.044-.588.133-.848.089-.263.215-.491.379-.684.167-.192.368-.343.605-.453.237-.112.504-.168.801-.168.3 0 .568.056.805.168.24.11.441.261.605.453.167.193.295.421.383.684.089.26.133.543.133.848v.086c0 .304-.044.587-.133.847a2.021 2.021 0 0 1-.383.68 1.724 1.724 0 0 1-.601.453 1.895 1.895 0 0 1-.801.164c-.3 0-.569-.055-.809-.164a1.763 1.763 0 0 1-.605-.453 2.055 2.055 0 0 1-.379-.68 2.613 2.613 0 0 1-.133-.847v-.086Zm.723.086c0 .208.025.407.074.597.05.188.124.353.223.496a1.067 1.067 0 0 0 .906.465c.198 0 .371-.041.52-.125.15-.083.276-.196.375-.34.101-.143.177-.308.226-.496.05-.19.074-.389.074-.597v-.086a2.19 2.19 0 0 0-.078-.59 1.516 1.516 0 0 0-.226-.5 1.09 1.09 0 0 0-.375-.34 1.026 1.026 0 0 0-.524-.129c-.2 0-.375.043-.523.129a1.138 1.138 0 0 0-.375.34c-.1.143-.173.31-.223.5-.05.187-.074.384-.074.59v.086Zm7.055-2.239c.067 0 .138.003.21.008.073.003.142.009.208.02a1.428 1.428 0 0 1 .324.074l-.098.707a3.538 3.538 0 0 0-.402-.066 3.109 3.109 0 0 0-.395-.024c-.338 0-.613.077-.824.231a1.331 1.331 0 0 0-.46.644V179h-.727v-4.227h.687l.035.672a1.94 1.94 0 0 1 .617-.547c.243-.135.517-.203.825-.203Zm8.707 4.383a2.17 2.17 0 0 1-.82-.152 1.872 1.872 0 0 1-1.051-1.074 2.204 2.204 0 0 1-.149-.817v-.164c0-.341.055-.646.164-.914a2.09 2.09 0 0 1 .434-.684 1.92 1.92 0 0 1 .617-.429c.232-.099.469-.149.71-.149.306 0 .571.054.798.16.229.105.419.25.57.438.151.185.263.404.336.656.075.253.113.526.113.821v.324h-3.02c.009.192.045.373.11.543.068.169.159.317.274.445a1.284 1.284 0 0 0 .953.406c.258 0 .487-.052.687-.156.2-.104.367-.242.5-.414l.442.344a1.77 1.77 0 0 1-.629.566 2.187 2.187 0 0 1-1.04.25Zm-.094-3.789c-.146 0-.284.027-.414.082-.13.052-.248.13-.352.234a1.339 1.339 0 0 0-.265.379c-.07.149-.12.321-.149.516h2.274v-.055a1.568 1.568 0 0 0-.082-.418 1.142 1.142 0 0 0-.2-.371.995.995 0 0 0-.336-.265 1.034 1.034 0 0 0-.476-.102Zm4.687 2.672.067.262.07-.262 1.184-3.188h.738L62.695 179h-.55l-1.739-4.227h.742l1.211 3.188Zm5.016 1.117a2.17 2.17 0 0 1-.82-.152 1.872 1.872 0 0 1-1.051-1.074 2.202 2.202 0 0 1-.148-.817v-.164c0-.341.054-.646.163-.914.11-.271.254-.499.434-.684a1.92 1.92 0 0 1 .617-.429c.232-.099.47-.149.711-.149.305 0 .57.054.797.16.23.105.42.25.57.438.151.185.264.404.336.656.076.253.114.526.114.821v.324h-3.02c.008.192.044.373.11.543.067.169.158.317.273.445a1.284 1.284 0 0 0 .953.406c.258 0 .487-.052.688-.156.2-.104.367-.242.5-.414l.441.344a1.767 1.767 0 0 1-.629.566 2.188 2.188 0 0 1-1.04.25Zm-.094-3.789c-.146 0-.284.027-.414.082-.13.052-.247.13-.351.234a1.339 1.339 0 0 0-.266.379c-.07.149-.12.321-.148.516h2.273v-.055a1.572 1.572 0 0 0-.082-.418 1.142 1.142 0 0 0-.2-.371.996.996 0 0 0-.335-.265 1.034 1.034 0 0 0-.477-.102Zm5.801-.594c.068 0 .138.003.211.008.073.003.142.009.207.02a1.428 1.428 0 0 1 .324.074l-.097.707a3.543 3.543 0 0 0-.403-.066 3.108 3.108 0 0 0-.394-.024c-.339 0-.614.077-.825.231a1.33 1.33 0 0 0-.46.644V179h-.727v-4.227h.688l.035.672a1.94 1.94 0 0 1 .617-.547c.242-.135.517-.203.824-.203Zm3.59 2.805.187.512 1.29-3.239h.808l-2.144 4.879c-.05.11-.114.226-.192.348a1.715 1.715 0 0 1-.277.34c-.11.104-.237.191-.383.262a1.151 1.151 0 0 1-.617.097 1.063 1.063 0 0 1-.125-.015 1.645 1.645 0 0 1-.117-.02l-.09-.019.117-.59c.018 0 .043.001.074.004l.098.007a1.1 1.1 0 0 0 .097.004.79.79 0 0 0 .075.004.468.468 0 0 0 .27-.082.975.975 0 0 0 .218-.195c.065-.076.12-.154.164-.235.047-.08.083-.147.11-.199l.288-.562-1.82-4.028h.809l1.16 2.727Zm7.918-.648c0-.316.039-.605.117-.868a2.13 2.13 0 0 1 .34-.683 1.52 1.52 0 0 1 1.234-.606c.253 0 .473.043.66.129.19.084.355.206.493.367V173h.722v6h-.664l-.031-.445c-.14.172-.309.302-.504.39a1.634 1.634 0 0 1-.684.133 1.477 1.477 0 0 1-1.222-.617 2.188 2.188 0 0 1-.34-.68 2.872 2.872 0 0 1-.121-.847v-.082Zm.722.082c0 .205.023.401.067.586.044.184.112.347.203.488.094.14.212.252.356.336.143.08.315.121.515.121.123 0 .233-.014.332-.043.1-.029.189-.069.27-.121.08-.055.152-.119.214-.192.063-.075.118-.158.165-.25v-1.961a1.208 1.208 0 0 0-.38-.421 1.005 1.005 0 0 0-.593-.168c-.203 0-.378.041-.523.125a1.052 1.052 0 0 0-.356.339 1.559 1.559 0 0 0-.203.493c-.044.185-.067.38-.067.586v.082Zm6.086 2.144a2.17 2.17 0 0 1-.82-.152 1.872 1.872 0 0 1-1.05-1.074 2.204 2.204 0 0 1-.15-.817v-.164c0-.341.056-.646.165-.914a2.09 2.09 0 0 1 .434-.684 1.92 1.92 0 0 1 .617-.429c.232-.099.469-.149.71-.149.305 0 .571.054.798.16.229.105.419.25.57.438.15.185.263.404.336.656.075.253.113.526.113.821v.324h-3.02c.008.192.045.373.11.543.068.169.159.317.273.445a1.284 1.284 0 0 0 .953.406c.258 0 .487-.052.688-.156.2-.104.367-.242.5-.414l.441.344a1.77 1.77 0 0 1-.629.566 2.189 2.189 0 0 1-1.04.25Zm-.093-3.789c-.146 0-.284.027-.414.082a1.04 1.04 0 0 0-.352.234 1.339 1.339 0 0 0-.266.379c-.07.149-.12.321-.148.516h2.273v-.055a1.568 1.568 0 0 0-.082-.418 1.142 1.142 0 0 0-.199-.371.995.995 0 0 0-.336-.265 1.034 1.034 0 0 0-.476-.102Zm6.597 1.645c0 .302-.036.584-.109.847-.073.261-.18.487-.32.68a1.487 1.487 0 0 1-1.23.617c-.259 0-.486-.042-.684-.125a1.416 1.416 0 0 1-.504-.359v2.031h-.723v-5.852h.66l.035.461c.141-.174.31-.307.508-.398.2-.094.432-.141.696-.141.27 0 .51.054.718.16.209.107.383.256.524.446.14.19.247.418.32.683.073.263.11.552.11.868v.082Zm-.722-.082a2.38 2.38 0 0 0-.07-.586 1.455 1.455 0 0 0-.212-.493 1.04 1.04 0 0 0-.359-.339 1.032 1.032 0 0 0-.523-.125c-.232 0-.428.054-.586.164a1.18 1.18 0 0 0-.375.414v2.035c.093.167.218.303.375.41.156.104.354.156.593.156.201 0 .374-.041.52-.125.146-.086.266-.2.36-.343.093-.144.162-.309.206-.497.047-.187.07-.384.07-.589v-.082Zm4.738 2.148a.813.813 0 0 1-.07-.203 2.586 2.586 0 0 1-.036-.258 1.816 1.816 0 0 1-.246.207 1.785 1.785 0 0 1-1.031.332c-.224 0-.427-.032-.61-.098a1.473 1.473 0 0 1-.46-.261 1.213 1.213 0 0 1-.293-.395 1.214 1.214 0 0 1-.102-.496c0-.232.046-.435.137-.609a1.21 1.21 0 0 1 .395-.434c.169-.117.372-.204.609-.262.24-.057.506-.085.801-.085h.789v-.333a.806.806 0 0 0-.071-.343.7.7 0 0 0-.199-.258.891.891 0 0 0-.316-.168 1.366 1.366 0 0 0-.414-.059c-.143 0-.272.019-.387.055a.931.931 0 0 0-.285.145.651.651 0 0 0-.184.214.549.549 0 0 0-.062.254h-.727c.003-.153.042-.304.117-.453.079-.148.19-.281.333-.398.145-.12.321-.216.527-.289.208-.073.444-.11.707-.11.239 0 .462.03.668.09.206.057.383.146.531.266.151.117.27.264.356.441.085.177.128.384.128.621v1.965c0 .141.013.29.039.449.027.157.063.293.11.411V179h-.754Zm-1.277-.551a1.39 1.39 0 0 0 .988-.402c.073-.078.13-.159.172-.242v-.856h-.672c-.422 0-.75.063-.984.188a.623.623 0 0 0-.352.59c0 .104.017.2.05.289a.646.646 0 0 0 .427.379c.106.036.23.054.371.054Zm6.074-3.754c.068 0 .138.003.211.008.073.003.142.009.207.02a1.39 1.39 0 0 1 .324.074l-.098.707a3.498 3.498 0 0 0-.402-.066 3.105 3.105 0 0 0-.395-.024c-.338 0-.613.077-.824.231a1.333 1.333 0 0 0-.461.644V179h-.726v-4.227h.687l.035.672c.172-.231.378-.414.618-.547.242-.135.517-.203.824-.203Zm3.746-.945v1.023h1.609v.559h-1.609v2.297c0 .164.021.299.062.406a.66.66 0 0 0 .172.258.657.657 0 0 0 .25.133c.097.026.198.039.305.039a2.528 2.528 0 0 0 .484-.047c.081-.013.155-.026.223-.039l.172-.039.101.512a1.037 1.037 0 0 1-.218.097c-.086.026-.18.048-.282.067a3.435 3.435 0 0 1-.66.062c-.187 0-.363-.026-.527-.078a1.128 1.128 0 0 1-.422-.254 1.236 1.236 0 0 1-.285-.449 1.943 1.943 0 0 1-.102-.668v-2.297h-1.109v-.559h1.109v-1.023h.727Zm3.426 1.023.019.399a.96.96 0 0 1 .336-.348c.141-.083.31-.126.508-.129.388 0 .647.151.777.453a.968.968 0 0 1 .328-.324.984.984 0 0 1 .5-.129c.31 0 .549.095.715.285.167.191.25.478.25.864V179h-.687v-3.164c0-.354-.163-.53-.488-.527a.622.622 0 0 0-.223.035.423.423 0 0 0-.156.097.402.402 0 0 0-.098.141.617.617 0 0 0-.047.164V179h-.687v-3.168c0-.169-.038-.299-.114-.391-.075-.091-.195-.135-.359-.132a.604.604 0 0 0-.352.089.526.526 0 0 0-.183.239V179h-.688v-4.227h.649Zm6.34 4.305c-.297 0-.571-.051-.821-.152a1.872 1.872 0 0 1-1.051-1.074 2.222 2.222 0 0 1-.148-.817v-.164c0-.341.055-.646.164-.914a2.08 2.08 0 0 1 .434-.684c.182-.187.388-.33.617-.429.232-.099.469-.149.711-.149.305 0 .57.054.797.16.229.105.419.25.57.438.151.185.263.404.336.656.075.253.113.526.113.821v.324h-3.019c.008.192.044.373.109.543.068.169.159.317.273.445a1.287 1.287 0 0 0 .954.406 1.47 1.47 0 0 0 1.187-.57l.442.344a1.739 1.739 0 0 1-.629.566 2.193 2.193 0 0 1-1.039.25Zm-.094-3.789c-.146 0-.284.027-.414.082-.13.052-.248.13-.352.234a1.321 1.321 0 0 0-.265.379c-.071.149-.12.321-.149.516h2.274v-.055a1.612 1.612 0 0 0-.082-.418 1.148 1.148 0 0 0-.2-.371.985.985 0 0 0-.336-.265 1.03 1.03 0 0 0-.476-.102Zm3.679-.516.051.625c.154-.218.343-.389.567-.511.224-.125.474-.189.75-.192.221 0 .422.032.601.094.183.063.337.16.465.293.128.133.225.302.293.508.07.203.106.445.106.726V179h-.723v-2.668c0-.187-.021-.346-.063-.477a.713.713 0 0 0-.488-.492 1.386 1.386 0 0 0-.406-.054c-.242 0-.456.061-.641.183a1.33 1.33 0 0 0-.437.477V179h-.723v-4.227h.648Zm5.868-1.023v1.023h1.609v.559h-1.609v2.297c0 .164.021.299.062.406a.66.66 0 0 0 .172.258.65.65 0 0 0 .25.133c.096.026.198.039.305.039a2.528 2.528 0 0 0 .484-.047c.081-.013.155-.026.223-.039l.172-.039.101.512a1.07 1.07 0 0 1-.219.097 2.585 2.585 0 0 1-.281.067 3.435 3.435 0 0 1-.66.062c-.187 0-.363-.026-.527-.078a1.12 1.12 0 0 1-.422-.254 1.236 1.236 0 0 1-.285-.449 1.943 1.943 0 0 1-.102-.668v-2.297h-1.109v-.559h1.109v-1.023h.727Zm8.011 1.023h2.161v3.602h1.378V179h-3.539v-.625h1.438v-2.973h-1.438v-.629Zm1.344-1.109c0-.12.035-.22.106-.301.073-.083.182-.125.328-.125.143 0 .251.042.324.125a.432.432 0 0 1 .109.301.412.412 0 0 1-.109.293c-.073.078-.181.117-.324.117-.146 0-.255-.039-.328-.117a.419.419 0 0 1-.106-.293Zm3.996 1.109.051.625c.154-.218.342-.389.566-.511.224-.125.474-.189.75-.192.222 0 .422.032.602.094.182.063.337.16.465.293.127.133.225.302.293.508.07.203.105.445.105.726V179h-.722v-2.668c0-.187-.021-.346-.063-.477a.713.713 0 0 0-.488-.492 1.386 1.386 0 0 0-.406-.054c-.243 0-.456.061-.641.183-.182.12-.328.279-.438.477V179h-.722v-4.227h.648Zm10.516 2.727.187.512 1.289-3.239h.809l-2.144 4.879a2.81 2.81 0 0 1-.192.348 1.706 1.706 0 0 1-.277.34c-.11.104-.237.191-.383.262a1.152 1.152 0 0 1-.617.097 1.04 1.04 0 0 1-.125-.015 1.573 1.573 0 0 1-.117-.02l-.09-.019.117-.59c.018 0 .043.001.074.004l.098.007c.034.003.066.004.097.004a.803.803 0 0 0 .075.004.466.466 0 0 0 .269-.082.972.972 0 0 0 .219-.195c.065-.076.12-.154.164-.235a3.41 3.41 0 0 0 .109-.199l.289-.562-1.82-4.028h.809l1.16 2.727Zm3.047-.652c0-.305.044-.588.133-.848.088-.263.214-.491.378-.684.167-.192.369-.343.606-.453.237-.112.504-.168.801-.168.299 0 .567.056.804.168.24.11.442.261.606.453.167.193.294.421.383.684.088.26.133.543.133.848v.086c0 .304-.045.587-.133.847a2.022 2.022 0 0 1-.383.68 1.725 1.725 0 0 1-.602.453 1.894 1.894 0 0 1-.8.164c-.3 0-.569-.055-.809-.164a1.768 1.768 0 0 1-.606-.453 2.046 2.046 0 0 1-.378-.68 2.602 2.602 0 0 1-.133-.847v-.086Zm.722.086c0 .208.025.407.075.597.049.188.123.353.222.496a1.068 1.068 0 0 0 .907.465c.197 0 .371-.041.519-.125.151-.083.276-.196.375-.34.102-.143.177-.308.227-.496.049-.19.074-.389.074-.597v-.086c0-.206-.026-.403-.078-.59a1.516 1.516 0 0 0-.227-.5 1.09 1.09 0 0 0-.375-.34 1.024 1.024 0 0 0-.523-.129c-.201 0-.375.043-.524.129a1.148 1.148 0 0 0-.375.34 1.55 1.55 0 0 0-.222.5c-.05.187-.075.384-.075.59v.086Zm7.028 1.484a1.528 1.528 0 0 1-.528.488 1.5 1.5 0 0 1-.73.172c-.221 0-.422-.034-.602-.101a1.186 1.186 0 0 1-.461-.325 1.515 1.515 0 0 1-.296-.554 2.854 2.854 0 0 1-.102-.813v-2.512h.723v2.52c0 .229.018.419.054.57a.937.937 0 0 0 .164.364.595.595 0 0 0 .266.187c.107.037.229.055.367.055.294 0 .531-.06.711-.18.182-.12.318-.281.406-.484v-3.032h.727V179h-.656l-.043-.582Zm4.832-3.723c.067 0 .138.003.211.008.073.003.142.009.207.02a1.418 1.418 0 0 1 .324.074l-.098.707a3.498 3.498 0 0 0-.402-.066 3.116 3.116 0 0 0-.395-.024c-.338 0-.613.077-.824.231a1.333 1.333 0 0 0-.461.644V179h-.726v-4.227h.687l.035.672c.172-.231.378-.414.618-.547a1.66 1.66 0 0 1 .824-.203Zm8.707 4.383c-.297 0-.571-.051-.821-.152a1.872 1.872 0 0 1-1.05-1.074 2.202 2.202 0 0 1-.149-.817v-.164c0-.341.055-.646.164-.914.11-.271.254-.499.434-.684.182-.187.388-.33.617-.429.232-.099.469-.149.711-.149.305 0 .57.054.797.16.229.105.419.25.57.438.151.185.263.404.336.656.076.253.113.526.113.821v.324h-3.019c.008.192.044.373.109.543.068.169.159.317.274.445a1.293 1.293 0 0 0 .953.406 1.467 1.467 0 0 0 1.187-.57l.442.344a1.739 1.739 0 0 1-.629.566 1.956 1.956 0 0 1-.469.18c-.174.047-.364.07-.57.07Zm-.094-3.789c-.146 0-.284.027-.414.082-.13.052-.247.13-.352.234a1.341 1.341 0 0 0-.265.379 1.85 1.85 0 0 0-.149.516h2.274v-.055a1.572 1.572 0 0 0-.082-.418 1.146 1.146 0 0 0-.199-.371 1.004 1.004 0 0 0-.813-.367Zm3.68-.516.051.625c.153-.218.342-.389.566-.511.224-.125.474-.189.75-.192.221 0 .422.032.602.094.182.063.337.16.464.293.128.133.226.302.293.508.071.203.106.445.106.726V179h-.723v-2.668a1.61 1.61 0 0 0-.062-.477.713.713 0 0 0-.489-.492 1.381 1.381 0 0 0-.406-.054c-.242 0-.456.061-.641.183a1.33 1.33 0 0 0-.437.477V179h-.723v-4.227h.649Zm5.867-1.023v1.023h1.609v.559h-1.609v2.297c0 .164.021.299.062.406a.66.66 0 0 0 .172.258.657.657 0 0 0 .25.133c.097.026.198.039.305.039a2.528 2.528 0 0 0 .484-.047c.081-.013.155-.026.223-.039l.172-.039.101.512a1.037 1.037 0 0 1-.218.097c-.086.026-.18.048-.282.067a3.435 3.435 0 0 1-.66.062c-.187 0-.363-.026-.527-.078a1.128 1.128 0 0 1-.422-.254 1.236 1.236 0 0 1-.285-.449 1.943 1.943 0 0 1-.102-.668v-2.297H185.5v-.559h1.109v-1.023h.727Zm4.961 5.328c-.297 0-.57-.051-.82-.152a1.867 1.867 0 0 1-1.051-1.074 2.202 2.202 0 0 1-.149-.817v-.164c0-.341.055-.646.164-.914.11-.271.254-.499.434-.684.182-.187.388-.33.617-.429.232-.099.469-.149.711-.149.305 0 .57.054.797.16.229.105.419.25.57.438.151.185.263.404.336.656.076.253.114.526.114.821v.324H191c.008.192.044.373.109.543.068.169.159.317.274.445a1.293 1.293 0 0 0 .953.406 1.467 1.467 0 0 0 1.187-.57l.442.344a1.763 1.763 0 0 1-.629.566 1.956 1.956 0 0 1-.469.18c-.174.047-.364.07-.57.07Zm-.094-3.789c-.146 0-.284.027-.414.082-.13.052-.247.13-.351.234a1.324 1.324 0 0 0-.266.379 1.85 1.85 0 0 0-.149.516h2.274v-.055a1.572 1.572 0 0 0-.082-.418 1.146 1.146 0 0 0-.199-.371 1.004 1.004 0 0 0-.813-.367Zm5.801-.594c.068 0 .138.003.211.008.073.003.142.009.207.02a1.39 1.39 0 0 1 .324.074l-.098.707a3.498 3.498 0 0 0-.402-.066 3.1 3.1 0 0 0-.394-.024c-.339 0-.614.077-.825.231a1.333 1.333 0 0 0-.461.644V179h-.726v-4.227h.687l.035.672c.172-.231.378-.414.618-.547.242-.135.517-.203.824-.203Zm5.601 2.239c0 .302-.036.584-.109.847-.073.261-.18.487-.32.68a1.484 1.484 0 0 1-1.231.617c-.257 0-.485-.042-.683-.125a1.405 1.405 0 0 1-.504-.359v2.031h-.723v-5.852h.66l.035.461a1.4 1.4 0 0 1 .508-.398c.201-.094.433-.141.696-.141.27 0 .51.054.718.16.209.107.383.256.524.446.14.19.247.418.32.683.073.263.109.552.109.868v.082Zm-.722-.082a2.37 2.37 0 0 0-.071-.586 1.456 1.456 0 0 0-.21-.493 1.042 1.042 0 0 0-.36-.339 1.03 1.03 0 0 0-.523-.125c-.232 0-.427.054-.586.164a1.186 1.186 0 0 0-.375.414v2.035c.094.167.219.303.375.41.156.104.354.156.594.156.2 0 .373-.041.519-.125.146-.086.266-.2.359-.343.094-.144.163-.309.207-.497.047-.187.071-.384.071-.589v-.082Zm4.73-2.157c.068 0 .138.003.211.008.073.003.142.009.207.02a1.435 1.435 0 0 1 .324.074l-.097.707a3.55 3.55 0 0 0-.403-.066 3.1 3.1 0 0 0-.394-.024c-.339 0-.613.077-.824.231a1.327 1.327 0 0 0-.461.644V179h-.727v-4.227h.688l.035.672c.172-.231.377-.414.617-.547.242-.135.517-.203.824-.203Zm2.149.078h2.16v3.602h1.379V179h-3.539v-.625h1.437v-2.973h-1.437v-.629Zm1.343-1.109c0-.12.036-.22.106-.301.073-.083.182-.125.328-.125.143 0 .251.042.324.125.073.081.11.181.11.301a.413.413 0 0 1-.11.293c-.073.078-.181.117-.324.117-.146 0-.255-.039-.328-.117a.424.424 0 0 1-.106-.293Zm6.157 4.215a.51.51 0 0 0-.051-.231.511.511 0 0 0-.172-.191 1.325 1.325 0 0 0-.32-.156 3.182 3.182 0 0 0-.496-.133 5.004 5.004 0 0 1-.664-.18 2.24 2.24 0 0 1-.512-.25 1.133 1.133 0 0 1-.328-.343.895.895 0 0 1-.117-.461.99.99 0 0 1 .121-.481c.08-.151.194-.282.339-.394.146-.112.32-.201.52-.266.203-.065.426-.098.668-.098.26 0 .495.034.703.102.208.068.386.161.531.281.146.12.258.261.336.422.081.159.121.331.121.516h-.722a.547.547 0 0 0-.071-.266.735.735 0 0 0-.195-.234.974.974 0 0 0-.305-.164 1.175 1.175 0 0 0-.398-.063c-.154 0-.289.017-.406.051a.913.913 0 0 0-.289.137.578.578 0 0 0-.172.199.514.514 0 0 0-.012.457.463.463 0 0 0 .16.176c.078.052.181.099.309.14.13.042.294.082.492.121.26.055.494.119.699.192.206.07.379.156.52.258.14.098.247.214.32.347a.913.913 0 0 1 .113.461c0 .188-.043.358-.129.512-.083.153-.2.285-.351.394-.151.11-.332.194-.543.254-.211.06-.441.09-.691.09-.287 0-.542-.038-.766-.113a1.905 1.905 0 0 1-.57-.305 1.357 1.357 0 0 1-.356-.441 1.176 1.176 0 0 1-.121-.52h.723a.75.75 0 0 0 .117.375.84.84 0 0 0 .258.246c.104.063.218.107.343.133.125.026.249.039.372.039.304 0 .545-.056.722-.168.177-.112.267-.26.27-.445Zm3.863 1.199c-.297 0-.57-.051-.82-.152a1.867 1.867 0 0 1-1.051-1.074 2.202 2.202 0 0 1-.149-.817v-.164c0-.341.055-.646.165-.914.109-.271.253-.499.433-.684.182-.187.388-.33.617-.429.232-.099.469-.149.711-.149.305 0 .571.054.797.16.229.105.419.25.57.438.151.185.263.404.336.656.076.253.114.526.114.821v.324h-3.02c.008.192.044.373.11.543.067.169.158.317.273.445a1.293 1.293 0 0 0 .953.406c.258 0 .487-.052.688-.156.2-.104.367-.242.5-.414l.441.344a1.763 1.763 0 0 1-.629.566 1.956 1.956 0 0 1-.469.18c-.174.047-.364.07-.57.07Zm-.094-3.789c-.146 0-.284.027-.414.082-.13.052-.247.13-.351.234a1.324 1.324 0 0 0-.266.379c-.07.149-.12.321-.148.516h2.273v-.055a1.572 1.572 0 0 0-.082-.418 1.146 1.146 0 0 0-.199-.371 1.004 1.004 0 0 0-.813-.367Zm4.289 3.242a.68.68 0 0 1 .035-.219.542.542 0 0 1 .11-.175.462.462 0 0 1 .176-.121.64.64 0 0 1 .246-.043c.093 0 .175.014.246.043a.45.45 0 0 1 .179.121c.05.049.086.108.11.175a.608.608 0 0 1 0 .434.469.469 0 0 1-.289.285.647.647 0 0 1-.246.043.64.64 0 0 1-.246-.043.457.457 0 0 1-.176-.113.562.562 0 0 1-.11-.172.664.664 0 0 1-.035-.215ZM411.785 98h-.814v-1.849h-1.207V98h-.818v-4.266h.818v1.75h1.207v-1.75h.814V98Zm.706-1.614c0-.23.033-.444.1-.639a1.365 1.365 0 0 1 .759-.853c.185-.081.397-.122.635-.122.239 0 .451.04.636.122.186.083.342.196.469.34.129.145.226.316.293.513.066.195.099.408.099.639v.061c0 .233-.033.447-.099.645a1.499 1.499 0 0 1-.29.51 1.328 1.328 0 0 1-.469.34c-.186.08-.396.12-.633.12-.238 0-.451-.04-.638-.12a1.357 1.357 0 0 1-.762-.85 1.993 1.993 0 0 1-.1-.645v-.061Zm.815.061c0 .133.012.258.038.375a.949.949 0 0 0 .12.305.625.625 0 0 0 .211.205.62.62 0 0 0 .316.076.596.596 0 0 0 .308-.076.6.6 0 0 0 .208-.205.949.949 0 0 0 .12-.305c.025-.117.038-.242.038-.375v-.061c0-.13-.013-.251-.038-.367a.949.949 0 0 0-.12-.304.592.592 0 0 0-.208-.208.61.61 0 0 0-.314-.076.6.6 0 0 0-.31.076.617.617 0 0 0-.211.208.949.949 0 0 0-.12.304 1.661 1.661 0 0 0-.038.367v.061Zm3.407-1.617.023.384a.794.794 0 0 1 .249-.322.636.636 0 0 1 .39-.12c.256 0 .423.112.501.336a.701.701 0 0 1 .237-.246.656.656 0 0 1 .352-.09c.096 0 .184.017.266.052a.53.53 0 0 1 .217.17.78.78 0 0 1 .144.299c.035.121.053.27.053.445V98h-.742v-2.265a.48.48 0 0 0-.02-.15.221.221 0 0 0-.05-.09.156.156 0 0 0-.076-.047.257.257 0 0 0-.085-.014.248.248 0 0 0-.234.147V98h-.718v-2.268a.52.52 0 0 0-.018-.149.21.21 0 0 0-.05-.09.147.147 0 0 0-.07-.045.261.261 0 0 0-.088-.014.22.22 0 0 0-.152.052.357.357 0 0 0-.088.141V98h-.741v-3.17h.7Zm4.635 3.229c-.244 0-.466-.04-.665-.12-.2-.08-.371-.189-.513-.326a1.456 1.456 0 0 1-.331-.486 1.583 1.583 0 0 1-.114-.6v-.118c0-.242.038-.463.114-.662.076-.201.182-.374.319-.519.137-.144.299-.256.487-.336.187-.08.391-.12.612-.12.228 0 .431.038.609.114.18.074.331.18.454.316.125.137.22.302.284.495.065.192.097.404.097.636v.346h-2.15a.826.826 0 0 0 .846.727 1.2 1.2 0 0 0 .466-.091c.073-.032.14-.07.202-.115a.756.756 0 0 0 .164-.158l.408.44a1.184 1.184 0 0 1-.199.213c-.081.069-.176.13-.288.185a1.86 1.86 0 0 1-.802.179Zm-.097-2.628a.623.623 0 0 0-.454.187.811.811 0 0 0-.144.217 1.21 1.21 0 0 0-.088.281h1.336v-.064a.78.78 0 0 0-.049-.243.576.576 0 0 0-.329-.328.691.691 0 0 0-.272-.05ZM396.914 112.922a.575.575 0 0 0-.091-.331.768.768 0 0 0-.228-.226 1.48 1.48 0 0 0-.311-.155 7.8 7.8 0 0 0-.322-.111 5.184 5.184 0 0 1-.46-.176 2.072 2.072 0 0 1-.425-.252 1.31 1.31 0 0 1-.313-.352.932.932 0 0 1-.12-.48c0-.184.04-.348.12-.492.082-.145.188-.267.319-.367a1.638 1.638 0 0 1 .946-.304c.186 0 .365.031.536.094.172.06.325.146.457.257.133.112.24.246.32.405.08.158.122.335.126.53h-.557a1.147 1.147 0 0 0-.091-.334.77.77 0 0 0-.445-.428 1.045 1.045 0 0 0-.65-.017.837.837 0 0 0-.264.131.692.692 0 0 0-.185.217.637.637 0 0 0-.067.299.545.545 0 0 0 .094.314c.06.084.136.155.228.213.094.059.195.108.302.147.109.039.212.073.308.102.105.034.212.072.319.115.107.041.211.089.311.143.099.055.192.116.278.185.086.068.161.146.225.234a1.025 1.025 0 0 1 .205.633.953.953 0 0 1-.128.501 1.135 1.135 0 0 1-.329.357 1.525 1.525 0 0 1-.457.214 1.822 1.822 0 0 1-1.066-.017 1.642 1.642 0 0 1-.489-.252 1.358 1.358 0 0 1-.349-.405 1.149 1.149 0 0 1-.143-.544h.553c.018.132.054.251.109.354a.879.879 0 0 0 .211.261c.086.07.184.124.296.161a1.29 1.29 0 0 0 .679.015.914.914 0 0 0 .276-.123.705.705 0 0 0 .196-.211.588.588 0 0 0 .076-.305Zm2.772 1.137c-.223 0-.428-.038-.616-.115a1.393 1.393 0 0 1-.788-.805 1.658 1.658 0 0 1-.111-.613v-.123a1.8 1.8 0 0 1 .123-.685c.082-.203.19-.374.325-.513.137-.141.291-.248.463-.322.174-.074.352-.112.533-.112.229 0 .428.041.598.121.172.078.314.187.428.328.113.138.197.302.252.492.056.189.085.394.085.615v.243h-2.265c.006.145.033.281.082.408.051.126.119.238.205.334a.963.963 0 0 0 .715.304 1.101 1.101 0 0 0 .89-.428l.332.258a1.287 1.287 0 0 1-.472.425 1.648 1.648 0 0 1-.779.188Zm-.071-2.842a.79.79 0 0 0-.31.061.779.779 0 0 0-.264.176.987.987 0 0 0-.199.284c-.053.112-.09.241-.112.387h1.706v-.041a1.182 1.182 0 0 0-.062-.313.765.765 0 0 0-.401-.478.778.778 0 0 0-.358-.076Zm4.351-.446a2.167 2.167 0 0 1 .313.021c.051.006.097.014.138.023.043.01.078.021.105.033l-.073.53a2.531 2.531 0 0 0-.302-.05 2.32 2.32 0 0 0-.295-.017c-.254 0-.46.057-.619.172a1.006 1.006 0 0 0-.345.484V114h-.545v-3.17h.515l.027.504c.129-.174.283-.311.463-.41.181-.102.387-.153.618-.153Zm2.768 2.45.05.196.053-.196.888-2.391h.553l-1.292 3.17h-.413l-1.303-3.17h.556l.908 2.391Zm2.447-2.391h1.62v2.701h1.034V114h-2.654v-.469h1.078v-2.229h-1.078v-.472Zm1.007-.832c0-.09.027-.165.08-.226.054-.062.136-.093.246-.093.107 0 .188.031.243.093a.324.324 0 0 1 .082.226.31.31 0 0 1-.082.22c-.055.058-.136.088-.243.088-.11 0-.192-.03-.246-.088a.317.317 0 0 1-.08-.22Zm3.862 3.621a.859.859 0 0 0 .284-.047.84.84 0 0 0 .249-.129.683.683 0 0 0 .173-.196.497.497 0 0 0 .07-.246h.513a.841.841 0 0 1-.111.404 1.17 1.17 0 0 1-.285.337 1.403 1.403 0 0 1-.893.317c-.24 0-.45-.043-.63-.129a1.317 1.317 0 0 1-.451-.346 1.529 1.529 0 0 1-.27-.504 2 2 0 0 1-.091-.603v-.123c0-.209.031-.41.091-.601a1.51 1.51 0 0 1 .27-.504c.121-.146.271-.263.451-.349.18-.086.39-.129.63-.129.187 0 .359.031.515.091.159.059.294.14.408.243a1.076 1.076 0 0 1 .366.815h-.513a.708.708 0 0 0-.472-.648.817.817 0 0 0-.304-.055.823.823 0 0 0-.425.102.818.818 0 0 0-.275.264 1.123 1.123 0 0 0-.153.363 1.938 1.938 0 0 0-.044.408v.123c0 .138.015.276.044.413.032.134.081.256.15.366.07.107.162.195.275.264a.85.85 0 0 0 .428.099Zm3.653.44a1.6 1.6 0 0 1-.615-.115 1.388 1.388 0 0 1-.788-.805 1.658 1.658 0 0 1-.112-.613v-.123c0-.256.041-.484.124-.685.082-.203.19-.374.325-.513.136-.141.291-.248.463-.322.173-.074.351-.112.533-.112.228 0 .428.041.597.121.172.078.315.187.428.328.113.138.197.302.252.492.057.189.085.394.085.615v.243h-2.265a1.136 1.136 0 0 0 .288.742.959.959 0 0 0 .714.304 1.102 1.102 0 0 0 .891-.428l.331.258a1.28 1.28 0 0 1-.472.425 1.656 1.656 0 0 1-.779.188Zm-.07-2.842a.795.795 0 0 0-.574.237.99.99 0 0 0-.2.284 1.418 1.418 0 0 0-.111.387h1.705v-.041a1.18 1.18 0 0 0-.061-.313.854.854 0 0 0-.15-.279.745.745 0 0 0-.609-.275Zm4.38 1.942a.39.39 0 0 0-.038-.173.4.4 0 0 0-.129-.143.984.984 0 0 0-.241-.117 2.268 2.268 0 0 0-.372-.1 3.81 3.81 0 0 1-.498-.135 1.73 1.73 0 0 1-.383-.187.861.861 0 0 1-.247-.258.676.676 0 0 1-.087-.346c0-.129.03-.249.09-.36a.93.93 0 0 1 .255-.296c.11-.084.24-.15.39-.199.152-.049.319-.074.501-.074.195 0 .371.026.527.077.157.05.289.121.399.211a.933.933 0 0 1 .252.316c.06.119.09.248.09.387h-.542a.415.415 0 0 0-.052-.2.566.566 0 0 0-.147-.175.728.728 0 0 0-.228-.123.873.873 0 0 0-.299-.047c-.115 0-.217.012-.305.038a.693.693 0 0 0-.217.102.443.443 0 0 0-.128.15.368.368 0 0 0-.044.176c0 .062.011.118.035.167a.342.342 0 0 0 .12.131.91.91 0 0 0 .231.106c.098.031.221.061.369.091.196.041.371.089.525.143.154.053.284.117.389.194a.78.78 0 0 1 .241.26c.056.1.085.215.085.346a.777.777 0 0 1-.097.384.874.874 0 0 1-.264.296 1.287 1.287 0 0 1-.407.19 1.887 1.887 0 0 1-.518.068c-.215 0-.407-.029-.575-.085a1.432 1.432 0 0 1-.427-.229 1.012 1.012 0 0 1-.267-.331.878.878 0 0 1-.091-.39h.542a.573.573 0 0 0 .088.282.65.65 0 0 0 .193.184.84.84 0 0 0 .258.1c.094.019.187.029.279.029.228 0 .409-.042.542-.126.132-.084.2-.195.202-.334ZM394.676 130v-4.266h1.268c.176.002.348.026.516.071.168.043.317.11.448.202.131.092.236.209.314.351.078.143.116.314.114.513a.899.899 0 0 1-.404.744c-.08.055-.165.102-.255.141a1.126 1.126 0 0 1 .556.366 1.05 1.05 0 0 1 .217.648 1.114 1.114 0 0 1-.428.911c-.13.101-.282.179-.454.234-.17.055-.345.083-.527.085h-1.365Zm.545-1.995v1.535h.835a.92.92 0 0 0 .591-.208.704.704 0 0 0 .255-.557.735.735 0 0 0-.061-.322.655.655 0 0 0-.173-.237.772.772 0 0 0-.261-.153 1.076 1.076 0 0 0-.322-.058h-.864Zm0-.451h.756c.101-.002.201-.018.298-.047a.867.867 0 0 0 .261-.132.704.704 0 0 0 .185-.214.59.59 0 0 0 .07-.293.617.617 0 0 0-.07-.305.57.57 0 0 0-.185-.205.799.799 0 0 0-.266-.12 1.376 1.376 0 0 0-.308-.041h-.741v1.357Zm4.465 2.505c-.223 0-.428-.038-.616-.115a1.393 1.393 0 0 1-.788-.805 1.658 1.658 0 0 1-.111-.613v-.123a1.8 1.8 0 0 1 .123-.685c.082-.203.19-.374.325-.513.137-.141.291-.248.463-.322.174-.074.352-.112.533-.112.229 0 .428.041.598.121.172.078.314.187.428.328.113.138.197.302.252.492.056.189.085.394.085.615v.243h-2.265c.006.145.033.281.082.408.051.126.119.238.205.334a.963.963 0 0 0 .715.304 1.101 1.101 0 0 0 .89-.428l.332.258a1.287 1.287 0 0 1-.472.425 1.648 1.648 0 0 1-.779.188Zm-.071-2.842a.79.79 0 0 0-.31.061.779.779 0 0 0-.264.176.987.987 0 0 0-.199.284c-.053.112-.09.241-.112.387h1.706v-.041a1.182 1.182 0 0 0-.062-.313.765.765 0 0 0-.401-.478.778.778 0 0 0-.358-.076Zm2.76-.387.038.469c.115-.164.257-.292.425-.384.168-.094.355-.142.562-.144.166 0 .317.024.452.071.136.047.252.12.348.22a.977.977 0 0 1 .22.38c.053.153.079.334.079.545V130h-.542v-2.001c0-.141-.016-.26-.047-.357a.566.566 0 0 0-.14-.238.548.548 0 0 0-.226-.132 1.042 1.042 0 0 0-.305-.041.847.847 0 0 0-.48.138.992.992 0 0 0-.328.358V130h-.542v-3.17h.486Zm4.518 3.229c-.223 0-.428-.038-.616-.115a1.393 1.393 0 0 1-.788-.805 1.658 1.658 0 0 1-.111-.613v-.123a1.8 1.8 0 0 1 .123-.685c.082-.203.19-.374.325-.513.137-.141.291-.248.463-.322.174-.074.352-.112.533-.112.229 0 .428.041.598.121.172.078.314.187.428.328.113.138.197.302.252.492.056.189.085.394.085.615v.243h-2.265c.006.145.033.281.082.408.051.126.119.238.205.334a.955.955 0 0 0 .715.304c.193 0 .365-.039.516-.117.15-.078.275-.182.374-.311l.332.258a1.287 1.287 0 0 1-.472.425 1.648 1.648 0 0 1-.779.188Zm-.071-2.842a.79.79 0 0 0-.31.061.779.779 0 0 0-.264.176 1.007 1.007 0 0 0-.199.284c-.053.112-.09.241-.111.387h1.705v-.041a1.182 1.182 0 0 0-.062-.313.765.765 0 0 0-.401-.478.778.778 0 0 0-.358-.076Zm3.082 2.783v-2.751h-.873v-.419h.873v-.223c0-.203.03-.38.088-.533.061-.154.145-.283.252-.386.11-.104.24-.182.393-.235a1.54 1.54 0 0 1 .509-.079c.129 0 .254.011.375.032.124.022.25.049.378.082l-.064.449a1.944 1.944 0 0 0-.281-.071 1.745 1.745 0 0 0-.34-.032c-.254.002-.445.066-.574.193-.127.127-.191.321-.191.58v.223h1.222v.419h-1.222V130h-.545Zm2.88-3.17h1.62v2.701h1.034V130h-2.654v-.469h1.078v-2.229h-1.078v-.472Zm1.008-.832c0-.09.026-.165.079-.226.055-.062.137-.093.246-.093.108 0 .189.031.243.093a.324.324 0 0 1 .082.226.31.31 0 0 1-.082.22c-.054.058-.135.088-.243.088-.109 0-.191-.03-.246-.088a.316.316 0 0 1-.079-.22Zm3.794.064v.768h1.207v.419h-1.207v1.723c0 .123.016.224.047.304.031.08.074.145.129.194.054.047.117.08.187.099.072.02.149.03.229.03a1.89 1.89 0 0 0 .363-.036c.061-.009.116-.019.167-.029l.129-.029.076.384a.872.872 0 0 1-.164.073 2.405 2.405 0 0 1-.706.097c-.141 0-.272-.02-.396-.059a.841.841 0 0 1-.316-.19.942.942 0 0 1-.214-.337 1.459 1.459 0 0 1-.076-.501v-1.723h-.832v-.419h.832v-.768h.545Zm4.427 3.097a.39.39 0 0 0-.038-.173.4.4 0 0 0-.129-.143.984.984 0 0 0-.241-.117 2.268 2.268 0 0 0-.372-.1 3.81 3.81 0 0 1-.498-.135 1.73 1.73 0 0 1-.383-.187.861.861 0 0 1-.247-.258.676.676 0 0 1-.087-.346c0-.129.03-.249.09-.36a.93.93 0 0 1 .255-.296c.11-.084.24-.15.39-.199.152-.049.319-.074.501-.074.195 0 .371.026.527.077.157.05.289.121.399.211a.933.933 0 0 1 .252.316c.06.119.09.248.09.387h-.542a.415.415 0 0 0-.052-.2.566.566 0 0 0-.147-.175.728.728 0 0 0-.228-.123.873.873 0 0 0-.299-.047c-.115 0-.217.012-.305.038a.693.693 0 0 0-.217.102.443.443 0 0 0-.128.15.368.368 0 0 0-.044.176c0 .062.011.118.035.167a.342.342 0 0 0 .12.131.91.91 0 0 0 .231.106c.098.031.221.061.369.091.196.041.371.089.525.143.154.053.284.117.389.194a.78.78 0 0 1 .241.26c.056.1.085.215.085.346a.777.777 0 0 1-.097.384.874.874 0 0 1-.264.296 1.287 1.287 0 0 1-.407.19 1.887 1.887 0 0 1-.518.068c-.215 0-.407-.029-.575-.085a1.432 1.432 0 0 1-.427-.229 1.012 1.012 0 0 1-.267-.331.878.878 0 0 1-.091-.39h.542a.573.573 0 0 0 .088.282.65.65 0 0 0 .193.184.84.84 0 0 0 .258.1c.094.019.187.029.279.029.228 0 .409-.042.542-.126.132-.084.2-.195.202-.334ZM398.877 144.289V146h-.542v-4.266h1.383c.191.004.372.035.542.091.172.057.322.139.451.246.129.108.23.241.305.399.076.158.114.34.114.545 0 .205-.038.386-.114.545a1.156 1.156 0 0 1-.305.395c-.129.107-.279.19-.451.246-.17.057-.351.086-.542.088h-.841Zm0-.445h.841c.125-.002.24-.022.345-.059a.846.846 0 0 0 .276-.164.721.721 0 0 0 .182-.255.86.86 0 0 0 .067-.345.883.883 0 0 0-.067-.349.738.738 0 0 0-.182-.264.782.782 0 0 0-.276-.167 1.032 1.032 0 0 0-.345-.061h-.841v1.664Zm5.089-1.073a2.167 2.167 0 0 1 .313.021c.051.006.097.014.138.023.043.01.078.021.105.033l-.073.53a2.531 2.531 0 0 0-.302-.05 2.32 2.32 0 0 0-.295-.017c-.254 0-.46.057-.619.172a1.006 1.006 0 0 0-.345.484V146h-.545v-3.17h.515l.027.504c.129-.174.283-.311.463-.41.181-.102.387-.153.618-.153Zm1.611.059h1.62v2.701h1.034V146h-2.654v-.469h1.078v-2.229h-1.078v-.472Zm1.008-.832c0-.09.026-.165.079-.226.055-.062.137-.093.246-.093.108 0 .189.031.243.093a.324.324 0 0 1 .082.226.31.31 0 0 1-.082.22c-.054.058-.135.088-.243.088-.109 0-.191-.03-.246-.088a.316.316 0 0 1-.079-.22Zm3.861 3.621a.85.85 0 0 0 .284-.047.84.84 0 0 0 .249-.129.668.668 0 0 0 .173-.196.498.498 0 0 0 .071-.246h.512a.841.841 0 0 1-.111.404 1.15 1.15 0 0 1-.284.337 1.413 1.413 0 0 1-.894.317c-.24 0-.45-.043-.63-.129a1.327 1.327 0 0 1-.451-.346 1.508 1.508 0 0 1-.269-.504 1.97 1.97 0 0 1-.091-.603v-.123c0-.209.03-.41.091-.601.06-.191.15-.359.269-.504.121-.146.272-.263.451-.349.18-.086.39-.129.63-.129.188 0 .36.031.516.091.158.059.294.14.407.243a1.074 1.074 0 0 1 .366.815h-.512a.639.639 0 0 0-.065-.27.708.708 0 0 0-.161-.225.748.748 0 0 0-.246-.153.823.823 0 0 0-.305-.055.826.826 0 0 0-.425.102.818.818 0 0 0-.275.264 1.12 1.12 0 0 0-.152.363c-.03.135-.044.271-.044.408v.123c0 .138.014.276.044.413.031.134.081.256.149.366a.85.85 0 0 0 .276.264.846.846 0 0 0 .427.099Zm2.338-2.789h1.62v2.701h1.034V146h-2.654v-.469h1.078v-2.229h-1.078v-.472Zm1.008-.832c0-.09.026-.165.079-.226.055-.062.137-.093.246-.093.108 0 .189.031.243.093a.324.324 0 0 1 .082.226.31.31 0 0 1-.082.22c-.054.058-.135.088-.243.088-.109 0-.191-.03-.246-.088a.316.316 0 0 1-.079-.22Zm2.997.832.038.469c.115-.164.257-.292.425-.384.168-.094.355-.142.562-.144.166 0 .317.024.452.071a.86.86 0 0 1 .348.22.977.977 0 0 1 .22.38c.053.153.079.334.079.545V146h-.542v-2.001c0-.141-.016-.26-.047-.357a.566.566 0 0 0-.14-.238.548.548 0 0 0-.226-.132 1.038 1.038 0 0 0-.305-.041.85.85 0 0 0-.48.138.992.992 0 0 0-.328.358V146h-.542v-3.17h.486Zm3.018 1.559c0-.237.028-.453.085-.651.058-.199.142-.37.252-.512.109-.143.242-.254.398-.334.156-.08.333-.121.53-.121.196 0 .366.036.513.106.148.068.274.168.378.299l.026-.346h.492v3.103c0 .209-.033.394-.099.556a1.14 1.14 0 0 1-.276.413c-.117.114-.257.2-.421.258a1.602 1.602 0 0 1-.827.059 1.647 1.647 0 0 1-.635-.258c-.1-.07-.186-.157-.258-.261l.281-.325c.066.08.135.147.205.202a1.002 1.002 0 0 0 .648.229c.129 0 .245-.019.348-.056a.7.7 0 0 0 .434-.428 1.04 1.04 0 0 0 .058-.363v-.272c-.105.121-.23.213-.375.278a1.236 1.236 0 0 1-.498.094 1.11 1.11 0 0 1-.524-.123 1.19 1.19 0 0 1-.398-.34 1.617 1.617 0 0 1-.249-.51 2.207 2.207 0 0 1-.088-.636v-.061Zm.542.061c0 .154.015.301.047.44.033.138.083.26.152.366a.81.81 0 0 0 .266.252c.108.06.237.091.387.091a.884.884 0 0 0 .252-.033.727.727 0 0 0 .363-.243c.047-.056.088-.119.123-.187v-1.453a.968.968 0 0 0-.123-.182.7.7 0 0 0-.161-.141.69.69 0 0 0-.202-.093.794.794 0 0 0-.246-.036.788.788 0 0 0-.393.094.8.8 0 0 0-.266.255 1.156 1.156 0 0 0-.152.369 1.953 1.953 0 0 0-.047.44v.061ZM415.072 160.116h-1.775V162h-.548v-4.266h2.619v.463h-2.071v1.459h1.775v.46Zm3.267.78h-1.424l-.343 1.104h-.542l1.377-4.266h.454l1.354 4.266h-.539l-.337-1.104Zm-1.277-.472h1.133l-.562-1.852-.571 1.852Zm5.657-.366a3.363 3.363 0 0 1-.041.477c-.026.16-.065.315-.117.463a2.042 2.042 0 0 1-.2.419c-.08.129-.176.241-.29.337l.736.612-.372.355-.844-.715a1.409 1.409 0 0 1-.393.053c-.181 0-.344-.028-.489-.082a1.375 1.375 0 0 1-.677-.566 2.131 2.131 0 0 1-.202-.419 2.542 2.542 0 0 1-.117-.46 3.347 3.347 0 0 1-.041-.474v-.375c.002-.157.016-.315.041-.475.025-.16.064-.314.117-.463.053-.148.119-.287.199-.416.08-.131.176-.244.287-.34.114-.097.243-.174.387-.228.147-.057.311-.085.492-.085a1.329 1.329 0 0 1 1.166.65c.082.129.149.268.2.416.052.149.091.304.117.466.025.16.039.318.041.475v.375Zm-.539-.381a3.913 3.913 0 0 0-.021-.334 2.048 2.048 0 0 0-.173-.665.98.98 0 0 0-.178-.267.782.782 0 0 0-.261-.184.85.85 0 0 0-.352-.068.787.787 0 0 0-.606.255 1.04 1.04 0 0 0-.182.267 1.858 1.858 0 0 0-.114.322 2.414 2.414 0 0 0-.064.343 3.187 3.187 0 0 0-.018.331v.381a2.51 2.51 0 0 0 .082.676c.029.114.067.221.114.323.049.101.11.191.182.269a.825.825 0 0 0 .258.188.855.855 0 0 0 .351.067.85.85 0 0 0 .352-.067.863.863 0 0 0 .439-.454 2.107 2.107 0 0 0 .17-.665c.012-.118.019-.23.021-.337v-.381Z"/><g filter="url(#b)"><circle cx="333" cy="71" r="21" fill="url(#c)"/></g><g filter="url(#d)"><circle cx="71" cy="191" r="21" fill="url(#e)"/></g><path stroke="#FF6B75" d="M389.5 85.5h38v85h-38z"/><path fill="#FF6B75" d="M389 61h34v24h-34z"/><path fill="#fff" d="m397.553 69.66.088.88c.23-.317.507-.562.832-.733a2.27 2.27 0 0 1 1.089-.264c.325 0 .62.047.885.14.27.094.5.24.692.44.195.2.345.457.451.773.109.317.164.698.164 1.143V76h-1.4v-3.938c0-.261-.032-.48-.094-.656a.998.998 0 0 0-.258-.422.908.908 0 0 0-.404-.222 1.94 1.94 0 0 0-.545-.07c-.309 0-.578.068-.809.205-.226.136-.41.322-.551.556V76h-1.406v-6.34h1.266Zm9.984 6.34a1.388 1.388 0 0 1-.099-.275 5.812 5.812 0 0 1-.065-.34 2.29 2.29 0 0 1-.744.516 2.565 2.565 0 0 1-1.043.216c-.336 0-.641-.047-.914-.14a2.204 2.204 0 0 1-.697-.399 1.788 1.788 0 0 1-.604-1.354c0-.68.252-1.199.756-1.558.508-.36 1.234-.539 2.18-.539h1.025v-.416c0-.336-.113-.602-.34-.797-.226-.2-.547-.299-.961-.299-.187 0-.351.024-.492.07a.986.986 0 0 0-.351.182.743.743 0 0 0-.211.276.825.825 0 0 0-.071.34h-1.4c0-.247.056-.485.17-.715.117-.235.287-.442.51-.621.222-.184.494-.33.814-.44.324-.11.693-.164 1.107-.164.375 0 .723.047 1.043.14.321.09.598.227.832.41.235.18.418.407.551.68.133.27.199.586.199.95v2.824c0 .277.02.531.059.762.043.226.104.423.182.591v.1h-1.436Zm-1.687-1.014c.179 0 .347-.021.504-.064.16-.047.302-.106.427-.176.129-.074.239-.158.328-.252.094-.094.168-.19.223-.287v-1.19h-.891c-.57 0-.992.092-1.265.276a.893.893 0 0 0-.405.785c0 .129.022.25.065.363.043.11.107.206.193.287.09.079.201.141.334.188.137.047.299.07.487.07Zm7.447-.755.099.468.106-.463 1.535-4.576h1.447L414 76h-1.207l-2.508-6.34h1.447l1.565 4.57Z"/><defs><linearGradient id="a" x1="82.5" x2="134" y1="113" y2="126" gradientUnits="userSpaceOnUse"><stop stop-color="#5593E9"/><stop offset="1" stop-color="#FF6B75"/></linearGradient><linearGradient id="c" x1="333" x2="333" y1="50" y2="92" gradientUnits="userSpaceOnUse"><stop stop-color="#5593E9"/><stop offset="1" stop-color="#8347DE"/></linearGradient><linearGradient id="e" x1="71" x2="71" y1="170" y2="212" gradientUnits="userSpaceOnUse"><stop stop-color="#FF6B75"/><stop offset="1" stop-color="#8347DE"/></linearGradient><filter id="b" width="142" height="142" x="262" y="0" color-interpolation-filters="sRGB" filterUnits="userSpaceOnUse"><feFlood flood-opacity="0" result="BackgroundImageFix"/><feBlend in="SourceGraphic" in2="BackgroundImageFix" result="shape"/><feGaussianBlur result="effect1_foregroundBlur_702_2783" stdDeviation="25"/></filter><filter id="d" width="142" height="142" x="0" y="120" color-interpolation-filters="sRGB" filterUnits="userSpaceOnUse"><feFlood flood-opacity="0" result="BackgroundImageFix"/><feBlend in="SourceGraphic" in2="BackgroundImageFix" result="shape"/><feGaussianBlur result="effect1_foregroundBlur_702_2783" stdDeviation="25"/></filter></defs></svg>