<svg width="21" height="23" viewBox="0 0 21 23" fill="none" xmlns="http://www.w3.org/2000/svg">
<path d="M18.9388 9.64293C18.8843 9.8051 18.7968 9.9545 18.6817 10.0819C18.45 10.329 18.1549 10.5092 17.828 10.6034C17.0965 10.8449 16.4032 10.7097 16.0761 10.6245C16.0841 10.5894 16.0929 10.556 16.1009 10.5218L16.0717 10.6236C16.0202 10.6131 15.9679 10.6008 15.9165 10.5876L15.8881 10.5797L14.6133 10.2478H14.6053L4.44609 7.16268C4.23387 7.09909 4.03753 6.992 3.86982 6.84837L1.71901 4.97128C1.57661 4.84567 1.47976 4.67728 1.44328 4.49192C1.33778 3.98621 1.12412 2.9309 1 2.32423C1.02394 2.0503 1.31916 1.85451 1.62946 1.91422L2.782 2.13985C2.94386 2.16687 3.09653 2.23289 3.22655 2.33211C3.35657 2.43132 3.45996 2.56067 3.52761 2.70877L4.10742 4.06962L8.05265 5.09244L7.9507 4.77813L6.57474 0.547228C6.51357 0.263646 6.7627 0.000256784 7.09073 0.000256784H8.3727C8.56305 -0.00377011 8.75138 0.0396218 8.92038 0.126449C9.08939 0.213276 9.23366 0.340755 9.33995 0.497184L12.9031 6.0582L13.1238 6.40939L14.8083 6.84837L16.5965 7.31281L16.9121 7.39095C16.9556 7.40149 17.0354 7.4208 17.1329 7.45065C17.4919 7.55864 18.1267 7.7597 18.6028 8.31281C18.6622 8.38108 18.7164 8.45356 18.7651 8.52967C18.9911 8.87822 19.0647 9.27067 18.9388 9.64293Z" fill="#fff"/>
<rect y="18" width="21" height="5" fill="#fff"/>
</svg>
